/* XPM */
static char *_c97868a61b746bfa557fa7939a084a84Lwqd7w79dRNHwbe[] = {
/* columns rows colors chars-per-pixel */
"60 60 245 2 ",
"   c #020103",
".  c #090303",
"X  c #020A04",
"o  c #03050B",
"O  c #0A060A",
"+  c #050A0D",
"@  c #090A0E",
"#  c #0C0A05",
"$  c #130D0D",
"%  c #150B08",
"&  c #14120E",
"*  c #18140A",
"=  c #030513",
"-  c #090613",
";  c #040C13",
":  c #0B0D12",
">  c #01051B",
",  c #030D1A",
"<  c #0B0D1A",
"1  c #140D14",
"2  c #150E19",
"3  c #041315",
"4  c #0C1215",
"5  c #04131A",
"6  c #0C141A",
"7  c #01191E",
"8  c #0C191D",
"9  c #121316",
"0  c #13151A",
"q  c #141A1D",
"w  c #1A1B1D",
"e  c #191716",
"r  c #051009",
"t  c #231C1D",
"y  c #241D15",
"u  c #27160C",
"i  c #1B231D",
"p  c #15221B",
"a  c #24211B",
"s  c #372B1D",
"d  c #020D24",
"f  c #030927",
"g  c #031322",
"h  c #0C1522",
"j  c #021B23",
"k  c #0C1B23",
"l  c #03132D",
"z  c #0C152A",
"x  c #021B2A",
"c  c #0C1C2C",
"v  c #131623",
"b  c #151C23",
"n  c #1B1D22",
"m  c #141C2B",
"M  c #1A1D2B",
"N  c #161628",
"B  c #031434",
"V  c #091434",
"C  c #041B33",
"Z  c #0C1B34",
"A  c #03153A",
"S  c #031A3B",
"D  c #0C1B3B",
"F  c #0D173A",
"G  c #141E33",
"H  c #111C3B",
"J  c #13173A",
"K  c #221C24",
"L  c #281F24",
"P  c #0D2125",
"I  c #0C232C",
"U  c #0B272A",
"Y  c #152224",
"T  c #1C2225",
"R  c #15232B",
"E  c #1C242A",
"W  c #162A2B",
"Q  c #1C292D",
"!  c #1E2B22",
"~  c #042333",
"^  c #0D2433",
"/  c #0C233B",
"(  c #08273B",
")  c #142334",
"_  c #1B2534",
"`  c #152A33",
"'  c #1C2B32",
"]  c #13233B",
"[  c #152A3B",
"{  c #1A2C3B",
"}  c #1A243A",
"|  c #163135",
" . c #19333B",
".. c #212326",
"X. c #22242B",
"o. c #22292C",
"O. c #2C292E",
"+. c #2C2526",
"@. c #232532",
"#. c #232B33",
"$. c #242A37",
"%. c #223333",
"&. c #2E2E2D",
"*. c #051D42",
"=. c #0C1B44",
"-. c #0C1E49",
";. c #081740",
":. c #111D45",
">. c #022244",
",. c #0B2244",
"<. c #0C254A",
"1. c #0D2B4B",
"2. c #05284A",
"3. c #132344",
"4. c #1B2544",
"5. c #13234B",
"6. c #132C4D",
"7. c #1C2D4D",
"8. c #142D43",
"9. c #15324D",
"0. c #193347",
"q. c #0B2A57",
"w. c #132C54",
"e. c #1A2E54",
"r. c #132A56",
"t. c #0E335B",
"y. c #0B3256",
"u. c #143354",
"i. c #1B3355",
"p. c #14355B",
"a. c #1B345A",
"s. c #14395D",
"d. c #1D3A5B",
"f. c #1B3857",
"g. c #222C4B",
"h. c #212540",
"j. c #223742",
"k. c #223454",
"l. c #21345C",
"z. c #223C5D",
"x. c #253955",
"c. c #0D3A65",
"v. c #133963",
"b. c #1C3B65",
"n. c #1D3B6A",
"m. c #163867",
"M. c #133F70",
"N. c #233C62",
"B. c #233B69",
"V. c #1D455F",
"C. c #22425E",
"Z. c #1C426D",
"A. c #194169",
"S. c #1B4675",
"D. c #0A417A",
"F. c #234264",
"G. c #24446B",
"H. c #29476B",
"J. c #364A68",
"K. c #234B74",
"L. c #2B4C74",
"P. c #254C79",
"I. c #2D4B7A",
"U. c #274676",
"Y. c #334D79",
"T. c #2B527C",
"R. c #2B5278",
"E. c #34547A",
"W. c #2C5482",
"Q. c #285887",
"!. c #345483",
"~. c #345A85",
"^. c #385989",
"/. c #28528B",
"(. c #386395",
"). c #3B74A7",
"_. c #3E74B2",
"`. c #1A5591",
"'. c #466A98",
"]. c #517297",
"[. c #4976A6",
"{. c #587BA8",
"}. c #4A74B1",
"|. c #5E8BB8",
" X c #568AB4",
".X c #6384AB",
"XX c #6D93BC",
"oX c #589BC6",
"OX c #5891D2",
"+X c #669AC6",
"@X c #739AC9",
"#X c #6087C8",
"$X c #63A2CC",
"%X c #6EA1CE",
"&X c #77A1CF",
"*X c #68A9D4",
"=X c #75ABD5",
"-X c #7AAEDA",
";X c #76A6D6",
":X c #7CB1DC",
">X c #77B2D9",
",X c #6EB1DC",
"<X c #7DB4E7",
"1X c #7BACEA",
"2X c #86AADC",
"3X c #82B4DC",
"4X c #8AB6DA",
"5X c #94B7DB",
"6X c #88B9E6",
"7X c #96BBE4",
"8X c #89BDF6",
"9X c #8FB5F0",
"0X c #A0B9E1",
"qX c #8AC2E8",
"wX c #94C5EB",
"eX c #9CC5E9",
"rX c #9ACBED",
"tX c #96C6E8",
"yX c #8CC6F5",
"uX c #8CCBF5",
"iX c #89C6F4",
"pX c #9DCDF2",
"aX c #93CCFB",
"sX c #95CAFB",
"dX c #94D2FD",
"fX c #9BD2FC",
"gX c #97D8FF",
"hX c #9EDDFF",
"jX c #9FD0F1",
"kX c #A3C4EC",
"lX c #A1CDF1",
"zX c #A5CBFD",
"xX c #A4D5FC",
"cX c #A3DCFF",
"vX c #ABDBFF",
"bX c #A7D4FA",
"nX c #B4DDFF",
"mX c #B5D5FC",
"MX c #A3E0FF",
"NX c #BCE4FF",
"BX c #B6E5FF",
"VX c #C2E3FF",
"CX c #C3EAFF",
"ZX c #CBF4FF",
"AX c #D1FAFF",
/* pixels */
"k : y s u * K #.m 5 ..&.$ 9 o.#.1 2 +.+.1 1 +.O.2 1 O.O.1 2 &.O.@ * +.+.$ & a +.e $ t +.e K &.+.1 t #.O.9 9 +...2 < $.%.",
"  X * % . . M _ > > N w o o k c o = < 2 o = h < o = < 6 o , v v o o 4 0 o o 0 6 O o 0 0 o o 2 N - O k b     K e O o h I ",
"8 + . % % 2 g > ,./ z v m m Z l / Z F F Z D Z C D Z Z C / [ / C D D V D D H F V F F J F J H D J F H C x c h - O O 1 X 3 ",
"E 0   . n N l A a.B.l.x.J.J.z.a.H.b.f.a.F.N.f.u.F.G.p.u.G.F.y.w.G.b.p.s.B.A.a.w.U.n.r.t.B.U.m.q.B.Y.u.S 9.] > - K t     ",
"v 0     M ] *.b.'.2XkX5X0XkX7X5XkXeX7X7XeXeX7X5XeXeX5X5XeXtX4X4XqXqX3X3X6X6X:X-X6X3X-X;X:X:X=X;X9X;XoX XT.1.l , N t .   ",
"0 : = v G 3.!.&XAXZXCXVXVXVXVXCXnXNXVXVXNXVXVXVXnXNXnXVXNXBXnXBXvXvXMXvXhXfXcXfXfXfXfXsXpXuXsXfXsX8XyXdX<X'.p.V < 1 # % ",
"o o N _ l Y.7XAX9X[.~.^.!.Y.!.^.U.I.!.!.U.Y.^.^.Y.I.!.^.I.I.!.!.P.I.^.^.P.P.!.~.U.U.W.W.U.P.W.W.n./.).oX8X<X{.J.d - e u ",
"= o ) [ i.4XAX&Xm.c.G.B.<.5.l.a.=.-.l.l.-.:.l.l.5.;.l.B.=.-.l.l.3.=.a.x.,.3.x.l.-.<.a.a.-.<.N.B.r.t.A.Q.).<X8X'.A , a a ",
"< , ^ ,..XAXXXA.s.y.1./ 3.] Z Z G G c c G R c c G G z h ) G m m m m b h m m h m m m c k G ) c G H 7.>.s.D.).dX;Xn.D : & ",
"E G B C.lXlXR.1.9.0.B x _ ) , 6 b b : 3 b b ; + n N ; ; n n ; = w n ; @ n n ; ; Y Y ; + E Y 6 6 $.} g ( A.Q.OXiX[.q., o ",
"_ ) C ].ZX X2.~ 8.{ 5 , Q E @ @ T T r X T b X + n T @ X T q o o M R ; + R R , 3 R R , ; R R , 5 X.T 5 x V.D.`.1X1XZ.d , ",
"h x f.4XxXK.u./ R b q 8 q w 9 9 9 q 4 4 9 8 4 9 9 9 4 4 9 9 4 4 0 h , 6 b b b h b k h h k c k 8 0 w i k 9.t.`.OXyXW.B I ",
"d d E.VXXX2.C.{ 3 @ T ! + : a i X r p p X X p p X X e i X X i i O O w ..@ 9 ..T = @ b T + ; T T : 9 i p P >.`.).aX).1.0.",
"> l ].CX[.2.0.{ 4 @ ..o.+ + ..i X r i i X   8 i X   i ..  X i w X . t ..O # ..w +   v ! o r o.Q 3 ; i %.3 x S.(.8X|.u.8.",
"N H {.nX(.t./ ) q e w b j 8 b 0 6 b q 8 q 0 6 0 0 4 0 0 2 2 e 9 9 4 w i 9 9 q 6 4 3 q w 6 8 Y k j j p ! p U s.W.9X;Xa.~ ",
"h.7.@XbXW.v.C 5 T T : 3 R R ; + v M = o $.@.- - n v - - N M - o q w @ 4 T Y 3 X T Y 3 r Y Y 3 3 [ U 3 r Q  .>.D.;X8Xf.B ",
"g.6.&XsXW.d.C 3 E E < : T Y ; ; X.q o : #.T o o n w o o ..v @ @ w n : o T w + + Y E ; + E E r 3 I  .3 r |  .S A.*XuXp.A ",
"H 1.=XdXK.9.I k R v v v q 8 q 3 q 9 q q q 4 4 4 0 4 9 4 9 9 9 1 w 9 9 9 0 0 0 : q q 4 6 v b k 8 m R 8 8 U ( 1.A.oXuXn.-.",
"V =.:XdXZ.1.` Q k 5 K @.3 3 T q @ 4 o...o + b n @ @ b T o O w w : o w K @ : T b : + b E + 3 Q b 8 5 Y Q 7 ~ V.S.oXuXL.e.",
"B *.:XgXZ.1.{ _ , , @.X.; X T T @ 4 o.T X @ w i o X w n o @ n n   + ....X o n E o o E E o ; X.' , , %.| 3 j C.R.oXuXP.a.",
"D <.-XfXK.9.` P 5 m n v q 8 4 Y 4 T q 4 4 q 4 q @ 6 4 4 0 9 2 q @ 0 0 0 0 4 4 n 4 4 0 v 6 4 b E 8 h Y Y U ~ 9.S.oXuXS.1.",
"4.i.:XdXT.f.I 5 E _ < : E T r 3 q T @ o T T @ 4 q n @ o T w O @ w ..@ o T n o ; T T ; ; Q E 3 3 ) R 8 3 |  .1.c.*XuXn.-.",
"g.l.-XyXT.d.x 3 ' _ - = o.E + + T T X o T T + @ w T X o ..n o + n K + o ..T X o T E o + %.#.3 ; { W 3 3 | 0.2.t.*XdXZ.*.",
"4.N.=XiX~.d.z 8 R R v 2 b p ; 3 T q ; @ q q @ @ w q @ @ w w @ O e w : : w q : 4 q n ; ; #.E 4 6 R R 8 8 | ( 6.M.*XdXZ.<.",
"H <.-XdXZ.9.{ W k , M @.; 3 T p 4 X q T X + T q @ @ T w   @ ..q : o n ..o @ T q : o E X.; 6 Q b 5 < W Q 7 ~ f.S.oXdXR.w.",
"V 1.<XfXZ.1.` ' , 5 X.K ; @ Y T o @ T n @ + w T o + w T : @ w ..  : n K + @ b T o : Q Q 3 ; E #., 8 Q W 7 U f.T.oXdXT.a.",
"V 6.-XsXK.6.) Q g b M b 4 3 q T ; 4 q q 4 ; 4 T @ 4 q q q 1 9 n o 9 w 0 4 4 6 T @ 0 E n 6 : 8 ' , b R Y U ~ 9.T.$XdXP.1.",
"3.e.=XuXT.f.c 7 R E 2 2 T Y 3 4 b n : @ w q @ @ q q @ 4 ..n @ : w w @ @ w w : : b T 6 3 T b ; 6 E ) 5 3 |  .1.Z.,XdXG.;.",
"g.f.=XyX~.C.I 3 ' E < - E E ; + X.T + X T T +   n T 4 @ n K @   ..n o O T T @ o o.n ; + E E 4 ; %.Q 3 3 | 0.1.A.,XgXZ.A ",
"4.w.=XaXT.d.I 5 R m v v p p 6 4 q q 4 4 9 q 4 + q q q 4 9 0 : @ w e 9 : q q 4 : n q ; 6 b Y 8 8 ) P 8 8 U ( 1.A.*XgXK.,.",
"D <.-XdXS.9.` R k h X.X.4 3 b q 4 : n b @ ; q q 9 4 n w @ @ w 0 : @ w w @ @ n q : : b T 3 6 E Y 8 h Y W 7 ~ s.K.$XgXI.r.",
"V ,.>XdXZ.9.{ _ 5 < @.#.+ + E n ; X n T   + T w q + w T @ @ K n O o v E X @ E b @ o E Q + ; Q E , , W Q 7 ~ V.K.$XgXE.u.",
"V ,.-XfXS.9.[ Q 5 Y X.n : 4 q M X 6 n q : @ 9 T X 4 q q : : 0 n o 1 q 0 @ @ q T + 4 b b 6 4 b Q 3 h R W I ~ a.P.$XhXR.w.",
"H i.;XyXR.p.c j R _ 0 9 b b < 6 q b 4 : q 6 4 4 0 q : : w e : 1 9 w 1 @ q q 4 4 q b 6 5 b b 6 8 R R 5 P  .8.1.S.*XhXG.S ",
"g.x.%X8X~.F.l 7 | ' 4 o E E ; = T T +   T T +   T T     ....o O K T o   T T = X T T + + Q E ; ; ' R 3 8 j.9.<.m.,XMXA.B ",
"4.u.%XiXW.N.^ I ' E 6 : T T < - T q @ @ T q @ + w q @ ; n n @ @ n w @ : n n : : T n ; : E T 6 3 ` Y 8 P  .8.1.m.*XMXG.S ",
"J ,.=XaXZ.u.[ W k 8 v n 4 4 b N 3 : 0 b : : q q 4 @ 0 q @ 9 w 0 : : w n : 4 q q 6 : b n 3 6 Y b 8 k Q W j ( N.Z.$XhXL.5.",
"l S =XaXM.1. .' 3 3 X.O.X 3 E X.+ X T T   @ T T X o T T o + T K + O ..X.o o T T @ o E Q + ; Q Q , 8 %.%.3 C B.P.$XhXE.i.",
"l ,.%XiXS.u.) ` 7 , n E 4 ; M M @ @ q w ; : w w : @ q w O : w w @ : ....: @ w T ; : b n 3 4 T R 7 8 Q W 7 ~ l.K.$XMXR.7.",
"H k.%X8XT.a.x k Y k 0 q q q < 0 q q 4 4 q 4 4 6 0 0 4 4 0 9 9 : 9 w 0 e q 9 4 6 0 q 8 6 q v 8 q Y P p P P / u.Z.*XhXF.=.",
"4.a.+X<X^.f.x , R _ : - o.T ; < T T + X E n o X T T @   ..n o O ..X.@ o T n X @ T E ; o Q E ; 3 Q ' 3 3  .0.>.m.>XhXb.S ",
"4.e.$X6XT.p.^ 3 W R : : T T , - T q @ @ n b @ @ b q @ @ w w @ @ X.n @ O n n ; @ T n ; ; E T 4 ; Q W 3 3 |  .<.v.*XcXb.S ",
"H ,.%XiXS.u.[ k k k q 0 6 0 v 0 q q w q 4 4 0 0 4 4 9 6 9 9 w 0 w 0 0 0 6 9 q 4 0 0 8 0 6 q b k k P p P U ( u.Z.$XvXG.3.",
"l S +XuXZ.1. .' 3 5 E ..@ ; M E 4 4 ..T + X n T   @ n n o O w X.@ @ n n X @ n T X ; E M ; ; E Q ; 7 Q W 7 ~ l.P.$XMXJ.k.",
"V S +XaXS.1.[ ` , 3 ....+ 3 n X.: 4 T T + X b n X : n n o @ w K O @ K n @ @ b T o : E T ; 3 E Q ; 7 Q W j ~ d.L.=XdXF.g.",
"H 3.[.aX^.u.^ P P k v w 8 q b N b 0 4 4 6 q 9 4 q 4 4 4 9 e 0 : 0 9 9 9 4 0 q 4 q 6 6 6 6 q b k m I k P ^ ( e.Z.qXqXf.8.",
"g.6.Q.uX{.d.^ 7 _ R : : T ..6 < T Y @ + n T @ X T q o + n T : o ..v @ @ n n ; + T n ; ; E E 4 3 ' ` 5 5  .0.9.P.MX=X1.Z ",
"g.6.A.8X|.H./ j ' Q 9 @ o.X.- 0 T T @ @ T n o @ w T +   T n o @ i T @   E T X + T E ; X o.E , ; Q _ 3 5 0.9.f.(.BXXXB d ",
"J B m.@X2XR.y.~ [ k 4 e y & 1 0 0 q 6 6 q 6 4 6 6 ; 4 0 4 4 0 4 q 4 4 6 4 6 q 5 6 6 b b h k R 6 i q b ` ~ c.M.XXVXJ.l G ",
"f f <..XeX~.K.s.f g X...1 $ K X.o : n n o @ q T o ; n T o @ n T o @ n n X ; b T ; 6 Q Q ; 3 E X.: : 0.8.*.q.~.nX5Xk.} ' ",
"o > 4.H.9X&XQ.Z.*.A 4.h.> , } ' = O K ..O o ....O O K n O o N ..  o K n   o n ..= : X.X.= = X.@.6 ; 9.s.q.c.@XCX].z { M ",
": , / S {.xX}.M.m.-.-.-.Z C / C m h N m h v M v N v m v v v v N v v M m N v M m M G M m m m ) } ^ / u.t.c.[.NX7XN.l v < ",
"w 4 ; B Z.;XsX}.(.U.q.r.A.t.2.2.x.7.D S e.e.D S i.k.D A k.e.S S 7.7.D B k.7.S D k.i.S A x.i.=.,.C.A.q.c.).xXBX!.7.G o O ",
"a 4 ; d w.~.2X8X#X}.D.m.Q.P.t.v.K.K.s.u.U.H.p.s.L.R.s.p.I.H.t.v.K.E.s.p.Y.L.f.A.L.R.f.p.T.R.d.Z.~.K.W.|.vXCX].<.4.@.o O ",
"* # 0 > ;.q.U.2XzX0X2X2X4X6X:X-X-X4X:X-X6X4X3X4XwXwXqXwXrXrX7XrXrXjXeXtXlXjXrXrXjXjXwXwXlXpXtXlXbXmXVXAXnX.X>./ z v O 1 ",
". . - G f ;.q.n.'.#X5X7X4X4X7X7X4XqXwXrXwXrXpXfXpXwXxXxXpXpXvXbXbXjXvXvXlXbXvXvXvXlXbXnXbXxXvXmXeXmX5XXXL.D x.H > o y t ",
". . 0 N = > / 7./ 6.H.J.a.a.H.I.t.m.U.B.m.m.Y.!.m.n.!.W.n.m.Y.^.b.B.E.!.B.b.L.E.m.B.I.I.b.b.I.Y.x.i.J.x.l l G M   O e t ",
"1 # 1 9 + 3 h R g k Z Z D F =.J A ;.:.-.;.:.:.5.=.=.:.=.:.=.-.:.=.=.:.:.:.:.:.:.;.J =.:.:.H :.:.H Z G m > h v 0 O 1 1 * ",
"K 1 . O 9 9 @ @ q q ; ; N N f > N v > - N M h ; v v > > v m < = N v < - N v ; @ N 0 - = N N < o N h , - 2 0 1 . t & . . ",
"K 2     e e # # w q     N N = o q 9     w w     w e     w e     w 9     w w     t e     y e .   K n = o K w .   t & .   "
};
