/* XPM */
static char *download_2_removebg_preview1675119727[] = {
/* columns rows colors chars-per-pixel */
"60 60 235 2 ",
"   c #16081B",
".  c #290B1E",
"X  c #260B1D",
"o  c #33061C",
"O  c #3C031B",
"+  c #3B0A1D",
"@  c #370615",
"#  c #140D23",
"$  c #1A0B24",
"%  c #140E2C",
"&  c #1B0E2C",
"*  c #0D132C",
"=  c #09152A",
"-  c #14122C",
";  c #1B132D",
":  c #151627",
">  c #100F37",
",  c #021635",
"<  c #0E1635",
"1  c #011C35",
"2  c #0B1A35",
"3  c #02163B",
"4  c #0D163B",
"5  c #011C3C",
"6  c #0A1B3B",
"7  c #121433",
"8  c #1A1332",
"9  c #13163A",
"0  c #1C1238",
"q  c #121A3B",
"w  c #151A34",
"e  c #240B24",
"r  c #2B0B25",
"t  c #240C2B",
"y  c #2B0B2A",
"u  c #270625",
"i  c #330A22",
"p  c #320B2A",
"a  c #380A25",
"s  c #24122C",
"d  c #281329",
"f  c #331424",
"g  c #39182E",
"h  c #3A1327",
"j  c #2B1234",
"k  c #341334",
"l  c #210C35",
"z  c #012135",
"x  c #01213C",
"c  c #0B2035",
"v  c #4C000E",
"b  c #43031D",
"n  c #49061C",
"m  c #57061A",
"M  c #600D1F",
"N  c #79141C",
"B  c #430C23",
"V  c #460923",
"C  c #530E23",
"Z  c #550A29",
"A  c #4A1125",
"S  c #4B172B",
"D  c #54132B",
"F  c #581528",
"G  c #4B1532",
"H  c #5A1B33",
"J  c #591433",
"K  c #670D25",
"L  c #7C0F22",
"P  c #611425",
"I  c #64112C",
"U  c #641B2C",
"Y  c #6B1629",
"T  c #7A1B29",
"R  c #631C33",
"E  c #6B1C33",
"W  c #7B1E34",
"Q  c #781D37",
"!  c #53202F",
"~  c #5F2138",
"^  c #7C202D",
"/  c #6D2134",
"(  c #6A2539",
")  c #732333",
"_  c #7D2234",
"`  c #7D213A",
"'  c #712238",
"]  c #6C262E",
"[  c #041643",
"{  c #091743",
"}  c #021B41",
"|  c #0A1C42",
" . c #001A48",
".. c #121540",
"X. c #061F52",
"o. c #012244",
"O. c #01224B",
"+. c #09224A",
"@. c #082140",
"#. c #172247",
"$. c #142C5A",
"%. c #14305F",
"&. c #052E5C",
"*. c #052863",
"=. c #0C3263",
"-. c #0A336C",
";. c #0C3A6C",
":. c #0B3673",
">. c #0B3972",
",. c #0C3A7D",
"<. c #143D75",
"1. c #153879",
"2. c #192F61",
"3. c #213162",
"4. c #213B73",
"5. c #703644",
"6. c #13427D",
"7. c #9A0D1D",
"8. c #821B2B",
"9. c #851629",
"0. c #97182B",
"q. c #851E34",
"w. c #9B1D35",
"e. c #930E23",
"r. c #A61B2A",
"t. c #B11A29",
"y. c #832336",
"u. c #81223A",
"i. c #8B2738",
"p. c #972736",
"a. c #91232D",
"s. c #B8202F",
"d. c #AB2332",
"f. c #A62939",
"g. c #B32436",
"h. c #B22A33",
"j. c #BD2B35",
"k. c #BC2839",
"l. c #AF333D",
"z. c #B9343E",
"x. c #AC292F",
"c. c #E5151D",
"v. c #EC161D",
"b. c #E51C1D",
"n. c #EC1B1E",
"m. c #EB1517",
"M. c #F21C1C",
"N. c #EB201E",
"B. c #D31C26",
"V. c #DB1D25",
"C. c #D41D29",
"Z. c #DB1D2B",
"A. c #D81422",
"S. c #C61C29",
"D. c #E31624",
"F. c #EC1624",
"G. c #E51C23",
"H. c #ED1B24",
"J. c #ED172A",
"K. c #E41E2A",
"L. c #ED1B29",
"P. c #F11625",
"I. c #F11B24",
"U. c #F31729",
"Y. c #F21A2A",
"T. c #FA1E28",
"R. c #E51E32",
"E. c #F21830",
"W. c #DC2226",
"Q. c #D4232B",
"!. c #DC222C",
"~. c #D52B2E",
"^. c #DA2B2D",
"/. c #C12D36",
"(. c #CC2C36",
"). c #C42C3C",
"_. c #CC2B3A",
"`. c #CB2635",
"'. c #D52532",
"]. c #DB2534",
"[. c #D42A34",
"{. c #D92934",
"}. c #D42539",
"|. c #D32B3B",
" X c #DA2B3B",
".X c #DB253C",
"XX c #C73339",
"oX c #D4363B",
"OX c #E42125",
"+X c #EC2025",
"@X c #E3222B",
"#X c #EB222B",
"$X c #E22B2D",
"%X c #F3212C",
"&X c #F12026",
"*X c #E42433",
"=X c #E12A34",
"-X c #E42739",
";X c #973445",
":X c #853646",
">X c #AC2B43",
",X c #B52540",
"<X c #B93747",
"1X c #B3384B",
"2X c #D62F40",
"3X c #DB2941",
"4X c #C53C4C",
"5X c #D43443",
"6X c #D93A48",
"7X c #D33B51",
"8X c #E1354B",
"9X c #9D4955",
"0X c #984559",
"qX c #A74758",
"wX c #B14D55",
"eX c #9E5764",
"rX c #B05668",
"tX c #BE646E",
"yX c #D8474D",
"uX c #C74458",
"iX c #D94A54",
"pX c #CC525C",
"aX c #D4505A",
"sX c #E14D5D",
"dX c #CA4B60",
"fX c #CC5B69",
"gX c #D25962",
"hX c #D34F66",
"jX c #063B85",
"kX c #0C3D83",
"lX c #0E3E8A",
"zX c #133C82",
"xX c #0D4389",
"cX c #144284",
"vX c #12428A",
/* pixels */
"5 5 5 5 } 5 5 5 1 5 5 5 1 1 o.x x 5 5 5 } 5 5 } { [ { { 6 | | 5 x 6 | 5 3 5 5 5 5 } 5 3 5 5 5 1 5 5 z x x 5 [ } 5 x 1 5 ",
"5 1 5 5 5 } 5 5 5 x 1 3 x 5 5 5 x 1 5 x 5 1 6 4 7 7 & & $ $ $ & w w - < q 6 1 1 x 5 | 6 , 5 x x 1 5 5 5 5 5 } } 5 5 5 z ",
"1 5 5 [ } 5 5 z 5 x 5 3 6 3 [ | 5 5 5 5 1 2 : e f S ( :X0X9X9X9X` ( ! i # = 2 , x 5 5 3 | 5 5 5 5 5 5 5 5 1 5 5 5 o.5 5 ",
"z 5 5 } } 5 5 5 x 5 5 5 4 [ 3 3 4 4 < : : f 5.eXtXfXgXaXyXiXyXyXaXpXfXtXeX5.g s - 7 6 3 [ } 5 o.x 5 5 5 3 5 5 5 } 5 5 5 ",
"5 5 5 3 5 5 } 5 o.5 5 @.[ 6 x x 6 7 d H qXgXiXoXQ.Q.C.C.B.W.V.V.W.B.C.{.6XsXhXqXH u 7 , 3 } 3 } 5 5 [ } 6 , 1 5 5 5 5 5 ",
"} 5 5 5 5 } } } 5 } o.5 5 6 , = $ G 0XfX7X'.OXv.&XI.H.G.G.G.H.H.H.H.G.H.J.D.-X7XhXeXG e w 6 5 5 5 5 } 5 5 3 1 5 x x } [ ",
"} 5 5 5 } 5 [ } 5 5 } 5 o.2 # @ ;XaX6XS.W.K.H.Y.F.H.L.L.+XH.n.m.n.N.H.L.U.E.L.C.C.5XaX;Xi # q | } } } 5 5 5 5 5 z 5 5 [ ",
"} 5 5 5 } } } 5 5 5 5 5 2 # S wX8XW.K.#XL.H.Y.J.L.J.L.L.H.H.I.I.N.N.G.J.Y.J.G.+XH.G.Q.iXwXG t < 5 x 5 5 5 5 5 5 x x 5 [ ",
"5 1 5 } } 5 5 5 3 6 5 q t R pXoXW.OXOXOXH.J.H.H.H.H.G.H.H.H.Y.L.G.G.Y.U.Y.I.H.+XN.n.%XA.8XdXF X c x 5 5 3 } } 5 x x 5 5 ",
"5 5 } } } 5 z 1 3 2 9 $ ' dX'.@XG.+XG.+XH.H.I.H.H.H.H.H.H.L.L.L.#XG.I.P.Y.I.G.n.b.&Xv.%XD.[.pX/   2 , 5 } [ 5 5 5 5 5 } ",
"5 5 } } 5 z z 1 1 7 e ( uX].K.Y.H.H.H.I.I.H.H.n.I.H.H.I.I.H.H.H.L.L.J.I.H.H.H.G.n.+XH.G.#X!.Q.yXE e 2 z 5 } 5 5 5 } } } ",
"x 5 5 x 1 1 1 1 3 ; D uX'.L.H.I.I.I.I.I.H.H.I.H.H.M.I.H.I.H.H.J.H.J.H.H.I.H.H.G.+Xn.+XH.G.OXH.{.uXF : c 5 5 x 5 5 5 } } ",
"} 5 x x 1 1 , 2 w i 1X XG.M.#XG.G.n.I.H.H.H.I.H.H.I.H.H.H.H.H.Y.L.Y.I.I.I.M.n.H.n.%XH.D.G.#XL.D..X1X+ - , 5 x 1 5 [ } 5 ",
"} 5 5 5 x 1 4 7 X :X5XG.&Xm.L.K.H.G.+XH.H.I.L.I.H.H.n.H.H.H.H.H.H.H.H.I.I.I.I.H.H.c.Y.H.H.H.H.Y.F.5X:Xi 2 6 5 5 5 3 } 5 ",
"5 5 5 5 5 } 5 & I 4XQ.v.T.T.F.H.L.L.H.H.I.N.H.H.H.L.L.L.H.H.H.n.H.+Xn.H.H.H.H.L.F.L.H.%XH.H.H.n.I.W.4XI ; 5 5 6 1 1 x 5 ",
"5 5 3 3 } } 9 i 1XQ.OXH.M.P.P.L.L.J.I.H.n.n.H.H.L.L.J.Y.Y.H.H.n.n.G.+XG.G.H.H.J.L.L.H.H.I.I.H.H.n.G.3X>Xp , 3 5 z 1 z 5 ",
"5 1 5 } [ q t Y oXOXOXG.I.I.H.I.L.J.Y.%Xn.n.&XF.H.G.H.I.P.J.L.G.+XH.G.I.H.H.Y.L.L.D.H.H.I.I.I.H.H.G.G.5XJ 8 6 5 1 1 x 5 ",
"x 5 } [ 3 7 + p.^.n.G.G.Y.I.H.H.L.L.Y.F.G.$X~.(.(._.[.'.L.E.H.+XG.H.H.H.H.%XH.J.K.*X X|.`.`.|.}.^.K.H.{.;X. 9 1 1 1 5 5 ",
"5 1 5 } 5 7 Z 4XW.b.G.+XH.L.n.H.+XG.D.*XXXp.) G a D Y f.|.V.G.N.n.+XOXb.b.+Xn.L.*X`.a.Y A V H y.,X X+XW.<XC l | 1 x 5 5 ",
"5 5 5 5 5 s 8.2X@XH.G.+XG.H.H.n.n.OX!._.8.n y % 9 ; t O L /.$Xb.H.H.+X+Xn.b.+X].g.K o $ 7 < ; r I w.{.Q.'.q.y [ 5 x 5 5 ",
"5 5 5 5 5 y f.*XL.J.G.G.L.J.H.I.H.!.XXN o & 9 | 3 @.< % y I ).K.J.J.L.H.H.V.*Xd.V & w c 6 5 , - $ O r.[.{.d.r { } } } } ",
"5 5 5 6 2 a ).L.Y.Y.H.H.G.H.H.H.J.{.p.@ ; x } } [ 3 O.O.| e 9. XR.U.Y.J.P.C.2XK ; 5 1 5 } [ o.o.O.& m h.!.k.a q } } } 5 ",
"5 5 5 6 9 F (.I.Y.U.H.n.H.H.H.H.H.|.D % 6 3 5 }  .=.<.<.*.0 Z >X].F.Y.U.M.'.i.a * 1 1 x [ X.-.6.;.$.r _ }.|.H * 5 } } } ",
"} 5 5 2 & / ~.v.U.Y.H.H.I.H.n.G.H.s.p 6 | 5 5 } &.>.zXkX6.3.u ;X{.F.H.I.H.[.E t 1 z 5 3 X.1.cXkXcX<.#.A _.`.] ; 3 5 } } ",
"5 5 5 < t _ [.n.I.Y.J.H.H.H.H.G.@Xd.y } 5 5 x } -.vXjXxXjX4.j W {.M.n.M.n.oXH % 6 5 5 } *.zXzXzXkX1.$.k k.|.' e w 5 [ [ ",
"5 5 5 < y _ ~.n.H.I.Y.H.H.H.H.H.=Xr.y 3 3 5 1 } :.xXjXxXxX4.k W [.n.M.m.H.|.D 8 , } 5 5 *.zX,.zXlXzX2.k ).|.) e - 5 5 [ ",
"5 5 } 9 r _ ~.N.H.H.Y.L.+X+XH.H.K.h.p 4 5 , | } *.cXlXkXkX2.y i.[.G.I.I.Y.}.U s < 6 x 1 O.>.cXkXlX1...G }.].y.. - 5 5 } ",
"5 5 5 < r _ [.n.n.H.J.Y.N.G.I.H.OX/.D ; q , 5 }  .=.:.:.-...Z <X[.G.H.Y.U.}.p.o 7 1 z x } O.>.,.,.$.y q.].{.y.. 2 5 x 5 ",
"5 5 5 4 d _ [.H.N.H.I.L.H.G.I.I.H.~.a.+ % 6 } } o.3 [ +.{ y 0.`.W.OXn.I.F.*X2XK ; x 1 1 5 5 } O.O.8 C k.*X'._ r 7 1 5 x ",
"5 5 5 7 r _ {.H.n.N.L.J.H.H.H.I.I.OXXXT i & 9 3 1 1 7 8 u I ).#Xb.+XI.H.H.R.C.g.b ; w 2 6 6 6 6 # B w.}.L.|._ e 2 5 x 1 ",
"5 5 5 9 y W  XF.n.H.H.J.Y.I.G.L.J.F.W.).8.V t 8 - ; e O 8.k.*XD.G.H.Y.F.L.K.D.=Xh.m o s 0 0 & e m r. XK.D.2Xy.X 2 z 5 1 ",
"5 5 5 9 y ` ].H.H.H.J.Y.I.P.L.H.H.Y.H.!._.>XE F D A E p._.@Xc.#XH.Y.P.Y.H.D.I.G.^.j.p.F Z J J u.h. XZ.L.L.|._ r 2 5 5 1 ",
"5 5 5 4 r _ {.v.I.H.H.J.I.J.H.H.H.Y.H.G.@X].`._._._.[.'.@XH.H.H.H.H.J.H.H.H.J.H.OX@X[.|._._.|.|.!.OXL.H.H.{.y.r < 5 5 5 ",
"5 5 5 4 r _ {.H.H.H.Y.H.H.H.H.H.H.H.H.H.H.H.H.H.I.H.H.H.I.H.H.H.H.H.H.H.H.H.H.H.H.G.H.H.H.H.H.H.J.H.H.H.F.[.u.y < 5 5 o.",
"z 5 } 4 r _ {.v.H.G.I.H.H.H.H.H.H.H.H.H.H.H.H.H.H.H.H.H.H.H.H.H.H.H.H.H.H.L.H.H.H.H.H.H.H.H.F.H.L.H.H.H.M.{.` r 4 5 5 } ",
"5 5 } 4 r y.{.P.H.H.I.J.I.H.H.+XH.H.H.H.H.H.F.H.H.H.H.H.H.F.H.H.H.H.H.H.I.H.H.H.I.H.I.L.H.H.H.H.H.H.H.M.F.].u.y < 5 x 5 ",
"1 5 } < y _ {.M.I.G.L.I.H.H.H.H.H.H.I.H.H.H.H.H.H.H.H.H.H.H.I.H.H.H.H.H.H.H.H.H.I.F.H.H.H.H.H.H.L.H.H.H.F.[.q.y < x 5 o.",
"1 5 } 4 y _ '.I.H.H.H.H.H.H.H.H.+XH.H.H.H.H.H.H.H.H.H.H.H.H.H.H.H.H.H.I.H.H.H.H.H.H.H.H.H.H.H.H.L.H.H.n.v. X` y < 5 } 5 ",
"5 5 5 4 r _ [.v.H.H.H.J.H.H.H.H.Y.H.H.H.H.H.H.I.H.H.H.H.H.H.H.H.H.J.H.H.H.H.I.H.H.H.H.H.H.I.H.H.J.H.H.I.I.{.u.y 4 5 5 5 ",
"x 1 } < r _ {.n.H.H.Y.H.H.H.I.H.H.H.H.I.H.H.H.J.F.H.H.H.H.H.H.H.H.H.H.H.H.H.H.H.H.H.H.H.H.H.H.H.L.H.n.n.F.{.q.y < x 5 o.",
"5 5 [ < r _ {.P.H.G.Y.H.H.H.H.H.H.H.H.H.H.H.H.H.H.H.H.H.H.H.H.I.H.H.H.H.H.H.H.H.H.H.H.H.H.H.H.J.J.H.H.H.M.[.u.r 4 5 5 o.",
"x 5 } 4 r _ {.v.H.H.H.H.J.H.H.H.H.I.H.H.H.H.H.H.H.H.H.H.H.H.H.H.H.H.H.H.H.L.H.H.H.H.H.H.H.I.H.H.L.L.n.I.H.{.u.y < 5 5 5 ",
"1 5 } < r _ {.M.Y.H.I.Y.H.H.H.H.H.H.H.H.H.H.H.H.H.H.I.H.L.H.H.H.I.H.H.H.H.H.H.I.H.H.H.H.H.H.H.H.L.H.n.H.P.[.u.r < x 5 } ",
"1 5 } q r _ {.I.H.G.L.H.I.H.H.H.H.L.H.H.I.H.H.H.I.H.H.H.H.H.H.H.H.H.H.I.H.H.H.H.I.H.H.H.H.H.H.H.H.H.H.H.n.].u.r < 5 x 5 ",
"5 5 5 < r _ {.M.H.H.H.H.H.H.H.H.H.I.H.H.H.H.I.H.H.H.H.H.H.H.H.H.H.H.J.H.H.H.H.H.H.H.H.H.I.H.H.H.L.H.H.M.I.[.u.r < 5 5 x ",
"z 5 } 4 r _ {.H.H.G.Y.J.H.H.H.H.H.H.H.H.H.H.H.H.H.H.H.H.H.I.H.H.H.H.H.H.H.H.H.H.H.H.H.H.H.H.H.H.J.H.H.H.H.{.u.r 4 x } 5 ",
"5 5 } 4 r _ {.M.H.H.H.I.H.H.H.H.H.H.H.H.H.H.H.H.H.H.L.H.H.H.H.H.H.H.H.H.H.H.H.H.H.H.Y.H.H.H.H.H.J.H.H.n.P.[.` y 4 5 5 o.",
"5 5 } < y _ {.I.H.L.H.I.H.H.+XI.H.H.H.L.H.H.H.H.n.I.H.H.H.H.H.L.H.H.I.H.I.H.J.H.H.H.G.H.H.H.H.I.H.H.I.I.F.^.y.r < 5 5 5 ",
"5 5 1 < r u.{.n.H.G.Y.n.n.I.H.I.H.I.L.L.G.%XH.H.M.M.m.n.#XH.L.D.&Xn.n.H.F.Y.Y.G.G.G.+X+Xn.H.I.H.F.Y.U.Y.M.~.y.. 6 5 5 5 ",
"3 1 5 4 y u.~.M.#XL.H.I.%Xc.H.D.H.H.L.G.L.D.%XM.M.m.N.+XD.#XD.L.b.&XI.v.%XP.H.H.+XH.H.G.G.+Xn.&XI.I.F.P.M.^.T f < 5 5 5 ",
"5 5 5 q j u.^.M.H.G.Y.H.D.#X-X*X#XD.+Xn.G.&Xv.Y.Y.P.H.K.@X!.-XR.L.F.Y.H.I.H.H.L.H.Y.H.+X@X$X+Xb.n.n.+XG.N.[._ r 7 5 5 5 ",
"5 5 5 2 y q.[.n.G.G.H.K.]._.r.e.t.|.!.+Xn.I.I.P.J.L.Z.{.h.0.0.g.|.!.G.Y.H.&XG.L.Y.D.*X^.t.7.t.XXW.OXOX#Xn.[._ r 7 6 5 3 ",
"1 x 1 2 l Q |.D.G.+XH.Q.z.M i r n y.[.OX+Xb.#XJ.#XK._.w.@ X . @ 8.XXV.G.I.H.Y.L.n.V.j.8.V u i / /.@XD.D.I.'._ e 7 5 3 5 ",
"1 5 5 2 y Q |.H.D.K.'.k.v e 6 5 * + w.{.@X+XH.K.D. Xp.b 8 z z : + 8.(.W.G.I.J.K.OXoX8.+ 8 6 4 e T ).*XF.Y.].) t w , 1 5 ",
"5 5 5 6 ; ] [.H.U.R.,XV j w 5 } 6 ; n f.~.OXG.K.=Xx.b ; 6 5 3 < : o f.Q.K.+XI.OX~.p.+ % 6 3 +.9 . T 3XE.F.{./ s 2 5 5 5 ",
"5 5 5 3 < G j.!..X,XZ y q [ 1 z } < d C h.^.Q.'.z.Y s 5 5 x } 3 | ; n l.|.W.W.~.f.n e 6 1 5 5 6 7 . w.3XZ.4X~ - 1 5 5 5 ",
"3 5 [ 5 , k _ wX;XD l 9 4 1 1 z 5 5 7 r F p.XXl.] y < 5 1 5 5 5 6 < 0 G a.4Xz.i.n s < 5 5 x 1 , 5 7 + i.<Xp.g 2 5 x 5 5 ",
"6 3 } } 3 7 B ! h & 4 { 5 1 z 1 x 5 5 * e A U C j 4 5 x 5 1 | 5 } | { 0 A F C + 8 6 3 5 5 x 5 5 } 3 : f U A w 5 x 5 5 5 ",
"5 5 5 5 5 4 7 - * = 5 5 1 x 5 5 } 5 x 3 , - 0 7 > 4 [ x 5 x 6 [ 5 5 3 , < 8 8 < { { [ 5 5 5 5 5 @.3 z = : : 6 } 5 o.5 } ",
"5 5 1 5 5 5 5 6 @.5 1 z z 5 4 { [ 5 5 x 5 x o.} { { } 5 1 x [ 5 5 5 5 5 } [ } | [ { { [ } o.} } 5 3 1 z z z } } 5 5 5 } "
};
