/* XPM */
static char *aW1hZ2VzLXJlbW92ZWJnLXByZXZpZXctMg__[] = {
/* columns rows colors chars-per-pixel */
"60 60 176 2 ",
"   c #001C3D",
".  c #021F40",
"X  c #052343",
"o  c #092646",
"O  c #0A2847",
"+  c #0B2A49",
"@  c #122E4D",
"#  c #13314F",
"$  c #0E3452",
"%  c #143452",
"&  c #153A56",
"*  c #1C3B56",
"=  c #153D5A",
"-  c #1C3E5A",
";  c #203D59",
":  c #1B425E",
">  c #26455F",
",  c #28445F",
"<  c #1A4661",
"1  c #1E4C66",
"2  c #244662",
"3  c #2B4761",
"4  c #244A64",
"5  c #284A63",
"6  c #304A63",
"7  c #324F69",
"8  c #23526A",
"9  c #2B536D",
"0  c #34546C",
"q  c #395169",
"w  c #275772",
"e  c #2F5D75",
"r  c #315571",
"t  c #335C71",
"y  c #3D5B73",
"u  c #3B6477",
"i  c #3D657C",
"p  c #4A5F74",
"a  c #476379",
"s  c #4F6C7F",
"d  c #396E87",
"f  c #3D778B",
"g  c #436D82",
"h  c #4A6E83",
"j  c #596C82",
"k  c #4A7386",
"l  c #4B778C",
"z  c #4F768E",
"x  c #5A7386",
"c  c #587689",
"v  c #5D7C8F",
"b  c #507790",
"n  c #597D91",
"m  c #617B8D",
"M  c #647F91",
"N  c #697F91",
"B  c #588297",
"V  c #5A8897",
"C  c #57879A",
"Z  c #638292",
"A  c #688798",
"S  c #648C9B",
"D  c #778A9C",
"F  c #65919E",
"G  c #4E93A0",
"H  c #5394A4",
"J  c #5995A7",
"K  c #579EB1",
"L  c #6992A4",
"P  c #6C99A7",
"I  c #7D95A3",
"U  c #629AB1",
"Y  c #5DA2AC",
"T  c #66A0AE",
"R  c #7DA3AC",
"E  c #6EAEB6",
"W  c #66AAB9",
"Q  c #76A8B6",
"!  c #68B0BC",
"~  c #6FB2C2",
"^  c #7ABAC3",
"/  c #79C2CD",
"(  c #7BC7D5",
")  c #7ECBD2",
"_  c #829DAA",
"`  c #83A3AE",
"'  c #92A1AD",
"]  c #88A6B2",
"[  c #8BABB5",
"{  c #93A7B2",
"}  c #82B2BD",
"|  c #88B1BA",
" . c #93B1BD",
".. c #85BBC1",
"X. c #94B6C3",
"o. c #99BDC7",
"O. c #ABBFC8",
"+. c #B1BFC6",
"@. c #9CC5CC",
"#. c #8DCBD2",
"$. c #78c937",
"%. c #78c937",
"&. c #78c937",
"*. c #78c937",
"=. c #78c937",
"-. c #78c937",
";. c #78c937",
":. c #78c937",
">. c #78c937",
",. c #78c937",
"<. c #78c937",
"1. c #78c937",
"2. c #78c937",
"3. c #78c937",
"4. c #78c937",
"5. c #78c937",
"6. c #78c937",
"7. c #78c937",
"8. c #78c937",
"9. c #78c937",
"0. c #78c937",
"q. c #78c937",
"w. c #78c937",
"e. c #78c937",
"r. c #78c937",
"t. c #78c937",
"y. c #78c937",
"u. c #78c937",
"i. c #78c937",
"p. c #78c937",
"a. c #78c937",
"s. c #78c937",
"d. c #78c937",
"f. c #78c937",
"g. c #78c937",
"h. c #78c937",
"j. c #78c937",
"k. c #78c937",
"l. c #78c937",
"z. c #78c937",
"x. c #78c937",
"c. c #78c937",
"v. c #78c937",
"b. c #78c937",
"n. c #78c937",
"m. c #78c937",
"M. c #78c937",
"N. c #78c937",
"B. c #78c937",
"V. c #78c937",
"C. c #78c937",
"Z. c #78c937",
"A. c #78c937",
"S. c #78c937",
"D. c #78c937",
"F. c #78c937",
"G. c #78c937",
"H. c #78c937",
"J. c #78c937",
"K. c #78c937",
"L. c #78c937",
"P. c #78c937",
"I. c #78c937",
"U. c #78c937",
"Y. c #78c937",
"T. c #78c937",
"R. c #78c937",
"E. c #78c937",
"W. c #78c937",
"Q. c #F1FDF6",
"!. c #F2FEFD",
"~. c #F5FFFE",
"^. c #F6FFFF",
"/. c #FAFCFB",
"(. c #FAFFFF",
"). c #FDFFFE",
/* pixels */
"                      .                                                                                                 ",
"                                                                                                                        ",
"                                                                                                                        ",
"                                                      .                                     .                           ",
"                                                                                                                .       ",
"                                    .             .                                                     .               ",
"                                                                                                                        ",
"                                                                                                                        ",
"                    .                                                                                       .           ",
"                                                      X * ; X   X .                                                     ",
"                                              X * 0 k ` 3.3.| R [ [ M 2 o                       .                       ",
"                                        X 2 h [ 4.m.Y.~.).(.~.Q.~.!.T.k.o.m ;                                           ",
"  .                                   * P 9.F.E.~./.Y.v.-.;.L.W.P.L.W.~.~.Y.,.Z , .                                     ",
"                                  X u @.K./.~.N.-._ x , O # c m q 6 x { g./.~.Y.k.x                                     ",
"                                O V x.E./.f._ y +             .       . ; D k.).).f.s o                                 ",
"                              + F V.~.T.` ;                               . 6 ' I./.L._ o                               ",
"                            O S D.(.b.Z o                                     . j l.).P.a             .                 ",
"                          X B V.~.N.Z .                                           p h.~.d.x .                           ",
"                          g y.~.U.A X                                         .     m W.).d.;                           ",
"                        : =.E.Q.[ O                                                 @ +.).T.m                           ",
"                        C G.~.z.5                                                     q g./.-.%                         ",
"                      5 <.R.E. .X                                           .           N W.T.m                 .       ",
"                      S V.E.D.z                                                         , v.).;.#                       ",
"                    o } R.E.y.3                                                         o O.).U.A X                     ",
"                    # #.R.E.o.+                                                           I E.~.;.#                     ",
"                    : 1.E.R.L                                                             v E.~.4.;                     ",
"                    9 u.E.D.k                                                             x E.!.r.1                     ",
".                   e s.E.M.d                                                             p U.~.D.s                     ",
"                    4 u.~.G.k             .                                               6 n.~.H.S                     ",
"                    4 w.E.K.C                                                             y F.~.D.c                     ",
"    .               1 w.E.R.P .                                                           v E.Y.i.t                     ",
"                    = *.R.R.} O                                   .                     . ` ~.R.1.>                     ",
"                    O E K.E.7.-                                                     .   + ;.~.K.&.&                     ",
"                      f s.E.B.g                                                         7 b.W.G...@                     ",
"                      < *.E.R.} +                                                     . ] E.E.u.l                       ",
"                      X H A.Y.V.z                                                     p c.~.J.} %                       ",
"        .               = ) K.Y.<.2                                                 2 >.Y.R.t.i                         ",
"                          d u.Y.H...%                                             * X.Y.Q.A.T O                         ",
"                          O Y Z.!.C.Q @                             .           * X.Y.~.K.&.4                           ",
"                        . . % E G.E.F...*                                     r $.T.Q.K.2.s .                           ",
"              .               - ^ G.E.R.:.d X                             # n 8.E.!.C.#.t .                             ",
"                                = W p.R.Q.M.Q 4 .                   X - b $.J.E.E.S./ 8                                 ",
"                                  $ G 6.Z.E.E.x.[ h 2 $ + o + & 9 n } 7.H.~.~.S.6.J :                     .             ",
"                                  . . w K 5.Z.E.~.T.c.4.:.O.$.8.M.R.E.~.R.S.u.! e o                                     ",
"                                        . 4 U %.e.Z.J.K.R.E.E.E.K.S.A.a.q.W e O                                         ",
"                        .                   o = d H ~ / ( %.0.0.#.W H f 9 O                                   .         ",
"                                        .         . o $ $ = 1 8 & O X                                                   ",
"                                                                                                                        ",
"                                              .         .                                                               ",
"                                                                                                                        ",
"    .               .                                                           .                                       ",
"                                                                                                              .       . ",
"                                                                                                                        ",
".                                                                                                                       ",
"                                                                                                                        ",
"                                                                .                                                       ",
"                                                            .                                                           ",
"                                                                                                                        ",
"                                      .                                                           .                     ",
"                .                                                                           .                           "
};
