/* XPM */
static char *neon_light_square_banner_glowing_frame_isolated_on_transparent_background_realistic_template_sign_vector1675126897[] = {
/* columns rows colors chars-per-pixel */
"60 60 154 2 ",
"   c #010302",
".  c #010B01",
"X  c #090E00",
"o  c #00060C",
"O  c #010D0B",
"+  c #090D0A",
"@  c #011401",
"#  c #091303",
"$  c #021C01",
"%  c #081B05",
"&  c #01130B",
"*  c #0B1308",
"=  c #031B09",
"-  c #0B1C09",
";  c #041412",
":  c #081211",
">  c #051A13",
",  c #081817",
"<  c #131612",
"1  c #022301",
"2  c #092402",
"3  c #012A00",
"4  c #0C2A02",
"5  c #05220A",
"6  c #0C230A",
"7  c #112B05",
"8  c #10220A",
"9  c #142F0C",
"0  c #113102",
"q  c #17330B",
"w  c #1B380C",
"e  c #122A10",
"r  c #1A3311",
"t  c #20340F",
"y  c #263C15",
"u  c #283F11",
"i  c #233C1A",
"p  c #1D4300",
"a  c #294F02",
"s  c #2D5403",
"d  c #345F06",
"f  c #355C0B",
"g  c #395C0C",
"h  c #2C4315",
"j  c #28421F",
"k  c #3C5B14",
"l  c #3A561C",
"z  c #3A591E",
"x  c #3C640D",
"c  c #3C6A0F",
"v  c #3D6212",
"b  c #3C6C12",
"n  c #3C6819",
"m  c #3B7014",
"M  c #2C4623",
"N  c #2E4825",
"B  c #344C2C",
"V  c #3C5434",
"C  c #42640E",
"Z  c #40680F",
"A  c #416314",
"S  c #426B14",
"D  c #486A14",
"F  c #43671A",
"G  c #456C1A",
"H  c #4B6F1A",
"J  c #4B751C",
"K  c #52741E",
"L  c #405C2B",
"P  c #4B7521",
"I  c #537922",
"U  c #5A7F27",
"Y  c #55772A",
"T  c #5C7E2A",
"R  c #506C39",
"E  c #5A7E38",
"W  c #657E54",
"Q  c #558128",
"!  c #5C832C",
"~  c #63852E",
"^  c #658B33",
"/  c #6A8E37",
"(  c #648A3D",
")  c #6C933D",
"_  c #668740",
"`  c #698D43",
"'  c #68804C",
"]  c #6D8A4A",
"[  c #6E9640",
"{  c #6C9048",
"}  c #739744",
"|  c #719941",
" . c #759C4D",
".. c #789F4E",
"X. c #678056",
"o. c #6C8450",
"O. c #68825D",
"+. c #7E9F53",
"@. c #7CA353",
"#. c #7FB45A",
"$. c #6D8662",
"%. c #758D6B",
"&. c #82AE57",
"*. c #80A15A",
"=. c #84AD5C",
"-. c #8BAF5C",
";. c #83B35C",
":. c #89B35E",
">. c #879E70",
",. c #85AE60",
"<. c #8DAA67",
"1. c #8DAD6E",
"2. c #8CB363",
"3. c #8CB861",
"4. c #91B563",
"5. c #94BC6A",
"6. c #98BA6B",
"7. c #89A074",
"8. c #8AA578",
"9. c #8FA97A",
"0. c #96AD7F",
"q. c #93B173",
"w. c #9CBA74",
"e. c #99C36D",
"r. c #9FC474",
"t. c #9ECA71",
"y. c #A2C373",
"u. c #A5CB76",
"i. c #A6CB7C",
"p. c #ACCF7D",
"a. c #A7D37C",
"s. c #AAD27C",
"d. c #B1D37F",
"f. c #96B385",
"g. c #9BB590",
"h. c #9FB994",
"j. c #A8BF95",
"k. c #ABCF83",
"l. c #ADD982",
"z. c #B0D180",
"x. c #B5DB86",
"c. c #B7DA88",
"v. c #BCDD8C",
"b. c #ABC298",
"n. c #BDE28F",
"m. c #AEC8A3",
"M. c #B1CCA1",
"N. c #C0E28E",
"B. c #C3E693",
"V. c #C2E995",
"C. c #C6ED9B",
"Z. c #CCEE9A",
"A. c #D7F9A5",
"S. c #DDFFAC",
/* pixels */
"                      o       o   o       +       +     o                                                               ",
"                        o                   +         +     o       .                   +                               ",
"                                    +                   +                                                               ",
"            o                 o         .   .   +   X   . .   . X   .   .     . X       X                               ",
"                              .   X   .   . . . . . . .   . . . . X . X       .   X   X           o o                   ",
"                  . . . . . . .   X   . . . . . . . . . . . @ . . . X . X . X .   X   + X     .                         ",
"            o         . . . . . . . . . . . @ . @ @ @ @ @ @ @ . . . . @ . . . . + . . . X   . o .     o     o           ",
"            .     . . . . . . . . . . . . . . @ & & @ & @ & @ @ @ @ & . # . @ . . . . .   + . .   . o o       o         ",
"    o           #   . @   . @ @ . & . & & . @ . . @ & & @ & @ & @ & & & & & & & > . O & O ; ; . &   #   .       o o     ",
"        .   . .   -   $ . . @ . . . . . @ $ $ $ $ $ $ @ . @ @ @ $ $ $ $ $ @ @ @ . @ @ . @ @ . @ . - . . . . :           ",
"o         . .   @ . 8 % . B %.8.<.-.4.6.y.d.v.B.n.c.s.r.5.4.2.2.:.;.:.;.;.;.=.;.e.,. .@.2.` p @ . $ . . . . +   o o     ",
"            . . # . . . %.M.O.V k x C D K T ^ ) / ~ U K D S Z Z c c c c x c c x x x ! J d @.s.` 2 . . . .   .           ",
"          . . . . @ @ %.h.7 @ $ @ @ @ @ @ @ @ $ $ $ $ @ $ @ $ $ $ 1 $ $ $ $ $ $ @ $ . @ 1 . 0 f.W . @ . @   + .         ",
"  o       . . . .   V g.q @ 2 . $ $ @ $ $ $ @ @ $ $ $ $ 1 1 $ 1 $ $ $ $ $ $ $ $ 6 $ 6 $ . $ 9 6 b.u @ . @ . @           ",
"o   o o   . . . @ . $.O.@ 1 . 4 @ @ $ % % 5 5 = = = 5 5 5 = $ $ 2 $ 2 % $ % % $ $ . @ - @ . @ @ >.' . . @ .             ",
"        . . . . @ . 9.R . . 7 @ $ @ $ = = $ = $ = $ $ $ 5 5 5 5 $ $ $ $ $ $ $ $ % - @ @ - - . . l q.@ $ @ .   @         ",
"        .   . . . $ w.A @ $ $ @ $ $ $ $ $ $ 1 $ 1 $ 1 1 $ 1 1 1 1 1 1 $ 1 $ $ $ $ $ @ $ @ % @ @ F =.@ @ . . .         + ",
"          . @ . . % y.C . 2 @ $ $ $ $ $ $ 1 1 1 1 1 1 1 1 1 1 1 1 1 1 1 $ 1 1 $ $ $ $ @ = = @ @ b &.@ = & .   X       X ",
"      . . . . @ . 7 d.H @ $ @ $ $ $ $ $ 1 $ 1 1 1 $ 1 1 1 3 3 1 1 1 1 1 1 $ 1 1 $ $ $ @ = $ $ @ v &.@ @ &   .     X     ",
"          . . . . r N.I @ $ = $ $ $ 1 $ $ 1 1 1 1 1 1 1 1 1 1 3 1 1 1 1 1 1 1 $ 1 $ $ $ $ % @ @ b ;.@ @ & . . .         ",
"  X     . . . @ . i Z.U @ $ $ $ $ 1 $ 1 1 1 1 1 1 1 1 3 3 3 1 3 1 3 1 3 1 1 2 2 $ $ $ $ $ % $ @ S ;.@ $ & . . .       X ",
"        . . . @ . j A.~ @ $ $ % $ $ 1 $ 1 1 1 1 1 1 3 1 3 1 3 3 1 3 1 1 1 1 1 1 1 1 $ $ $ 5 $ @ v &.@ @ O . . .   X   + ",
"    X   . . . @ . M S.^ @ 2 $ $ 1 $ 1 1 1 1 1 1 3 3 1 3 3 3 3 3 1 3 1 3 1 1 1 1 $ 1 = $ % 5 $ @ S &.$ @ O . X X       + ",
"  X     . . . . . N S.^ @ 5 = 5 1 1 1 1 1 1 1 1 3 1 3 3 1 3 3 3 3 3 3 1 3 1 1 1 1 2 $ $ 1 = % $ b ;.@ = + . X X         ",
"  X   X . . . @ . j C.~ @ $ = $ $ 1 1 1 1 1 1 3 1 3 1 3 3 3 3 3 3 3 3 3 4 1 2 1 1 5 1 $ 2 5 $ $ b :.$ @ ; . . # X     + ",
"  +     . . @ @ . i B.U @ $ 5 $ 1 1 1 1 1 1 3 1 1 3 3 3 3 3 3 3 3 3 3 3 3 3 3 1 2 1 2 $ $ % $ @ b :.@ @ & . . X X   +   ",
"      X . @ . @ . r x.K @ $ 1 $ 1 1 1 1 3 3 3 3 3 3 3 3 3 3 3 3 3 3 3 3 3 1 3 3 1 1 1 $ 1 5 $ $ v :.$ @ & . . X       + ",
"      X . . @ @ @ 7 u.J $ 2 5 $ 1 1 1 1 1 1 4 3 3 3 3 3 3 3 3 3 3 3 3 3 1 3 1 1 1 1 1 1 $ 5 $ @ S 3.@ @ & + . .   +     ",
"      . . . @ @ . 2 5.D $ 1 = $ $ 1 1 3 3 3 3 3 3 3 3 3 3 3 3 3 3 3 3 3 3 3 3 1 1 4 1 $ $ 5 $ $ J 5.$ @ & + . . X       ",
"        . . @ @ & $ :.Z $ 1 5 1 1 1 1 1 3 3 3 3 3 3 3 3 3 3 3 3 3 3 3 3 3 1 3 1 1 1 1 1 1 2 $ $ Q t.1 @ ; & X .       + ",
"      . . @ @ @ @ $ :.c $ $ 1 5 1 1 3 1 3 3 3 3 3 3 3 3 3 3 p 3 3 3 3 3 3 1 1 3 1 1 1 $ $ 5 $ $ ^ a.1 @ & & . X X   o   ",
"      . . . @ @ = @ &.c $ $ $ 5 1 1 1 3 3 3 3 3 3 3 3 3 p 3 3 3 3 3 3 3 3 3 3 3 1 1 1 $ 1 1 $ $ ) l.2 & & # . .         ",
"  .   . X . . @ & @ :.m $ 1 $ $ $ 1 1 1 1 3 3 3 3 3 3 3 3 3 3 3 3 3 3 3 1 3 1 5 3 1 1 1 $ 1 $ @ [ C.3 . > & . .   .     ",
"      .   . . @ & $ ,.S $ $ $ 5 1 1 1 1 1 1 1 3 3 3 3 3 3 3 3 3 3 0 3 3 3 3 3 3 5 1 1 1 $ 1 1 @ [ n.2 . ; . . . .       ",
"      . . X . . & @ ;.b $ $ $ % 1 1 1 1 1 1 3 3 1 3 3 3 3 3 3 3 3 3 3 3 1 3 1 3 1 1 1 1 $ $ 2 @ ) n.1 . ; . .           ",
"      . X . @ @ & $ ;.S $ $ $ 2 $ 1 $ 1 3 1 1 3 3 3 3 1 3 3 3 3 3 3 3 3 3 3 1 3 5 1 1 1 $ 1 1 @ ^ x.2 & & . & . .       ",
"  .   . . X . @ & @ ,.b @ $ $ $ 1 1 1 1 1 1 3 1 1 3 1 3 3 3 3 3 3 3 3 1 3 1 1 5 1 1 1 1 $ 1 $ @ ! i.$ @ O . . . .       ",
"      .   . . . & @ ,.S $ $ - $ $ 1 $ 1 1 1 1 1 1 1 3 3 3 3 3 3 3 3 5 3 1 3 1 1 1 $ $ $ $ $ 2 @ I r.@ & O   @           ",
"          X . . & $ =.S @ $ $ $ 1 $ 1 1 5 1 1 1 1 3 1 5 1 3 1 1 3 3 3 3 1 1 1 1 5 1 2 $ $ $ $ @ H 2.@ = O   #   .       ",
"        X   . . & @ ;.b @ $ # $ $ $ $ $ 1 1 5 1 1 1 1 3 1 3 3 3 3 5 1 1 5 1 1 1 2 $ % $ $ $ $ @ S :.. & &   $   .       ",
"X       X . . O O @ ,.G @ $ - % $ $ 2 1 $ 1 1 1 1 1 1 1 3 1 1 1 3 5 1 1 1 1 1 2 @ 6 $ % % @ % @ G @.$ & O   . @         ",
"          . + . & $ =.f 1 $ - @ @ $ $ $ $ $ 1 $ 1 $ 1 1 1 1 1 1 1 1 1 1 1 $ $ 2 5 2 . $ $ @ 6 @ k =.. . , & .       o o ",
"      X   X . . O @ ,.P . @ 6 @ $ $ $ $ 2 5 $ 2 $ 1 1 2 2 1 1 1 1 1 1 $ 1 $ $ $ 6 @ @ 6 $ . - . v 5..   ; . . .         ",
"            . . . @ 2.F . $ @ - # $ $ # $ $ 2 $ 2 $ $ 1 1 2 2 1 1 1 1 1 $ 1 $ $ @ @ $ 6 @ @ $ . g 5.@ . o o . # o       ",
"          X   + O @ ,.s 1 $   % $ @ $ $ $ $ $ $ $ $ $ 1 1 $ 2 $ $ $ $ $ $ $ $ $ % @ $ @ . # - @ v +.@ ; ; .   .         ",
"            X   & . `  .. $ @ @ $ $ $ $ % $ 2 $ $ 2 $ 1 $ 1 2 1 1 1 1 $ 2 $ $ $ 6 $ $ . @ -   . +._ @ & O O .     o     ",
"          X . . O . s u.w @ 8 . @ @ $ @ $ $ $ $ $ $ $ $ $ 1 1 $ $ 1 $ $ $ $ $ $ @ @ $ @ - @ . y 6.f . .   o @     o o o ",
"          . o .   $ @ E M.@ $ . . @ @ @ @ @ @ @ $ @ $ $ @ $ $ $ $ @ $ $ @ $ @ @ . @ @ . . . w 0.` @ . & o   +           ",
"              + . . . 4 W j.7.z n b b m m m c m m m b m m m m m J I ! ^ ) ) | ) } T Y F k @.w.] @ . . . . .             ",
"          + o . . # @ . . h ' 1.;.#.#.#.#.#.#.#.;.#.#.#.#.#.;.;.e.t.a.n.C.Z.C.Z.k.r.k.k.*._ k . . .   . o   .           ",
"          o   . + . @ % @ . . @ @ @ @ @ @ @ @ $ $ @ @ $ $ @ $ $ $ $ $ 1 4 4 4 4 9 @ . . . . @ . . .                     ",
"            o   .       . @ @ % @ @ @ & = = & @ & @ = @ = = & = = @ @ @ @ @ & . & . . ; , O o .   .   . . .             ",
"            +   . + + @ # . .   . . O . . . O O . O O + . & & . & @ & & & & O O O & o   o o o O .   .                   ",
"    X   +                 . # X . + . . . + + + + . + . + + + + & & . . & & . O   : : O : O       .                     ",
"X           o     + < < .     X   .     .   .     . .   . . . . @ . . @ . . . . . .       o X *   . .   .               ",
"X             + +       .     X . . . X . X . . X . X X X X X . . . . . @ @ . . @   . # .     X                         ",
"    X         +     +                   o     . . .   .   . . . . . .   o   .     .                                     ",
"                +         +                       o o     .   o     .   o                   o                           ",
"                      +     +     o   .         o o   . o     o                           o         .                   ",
"                                                            o   o           o   o         o                             "
};
