/* XPM */
static char *bmVvbi1ncmVlbi1yZWN0YW5nbGUtYmFubmVyLW5lb24tcmVjdGFuZ2xlLXBuZy1yZW1vdmViZy1wcmV2aWV3[] = {
/* columns rows colors chars-per-pixel */
"60 60 164 2 ",
"   c #001E1A",
".  c #00231D",
"X  c #001E25",
"o  c #001E29",
"O  c #001737",
"+  c #001D36",
"@  c #03163C",
"#  c #001C3C",
"$  c #002124",
"%  c #002825",
"&  c #002229",
"*  c #003F2C",
"=  c #002235",
"-  c #00233A",
";  c #00283B",
":  c #003E31",
">  c #00551E",
",  c #005D1E",
"<  c #004225",
"1  c #00432B",
"2  c #004B28",
"3  c #005623",
"4  c #005923",
"5  c #01562B",
"6  c #024734",
"7  c #08443C",
"8  c #00602D",
"9  c #0D653B",
"0  c #14663E",
"q  c #13683F",
"w  c #061744",
"e  c #081646",
"r  c #011B41",
"t  c #0A1C44",
"y  c #071748",
"u  c #012141",
"i  c #032940",
"p  c #0A4C40",
"a  c #0F6540",
"s  c #146640",
"d  c #166C42",
"f  c #186E44",
"g  c #17654B",
"h  c #1C6A4A",
"j  c #177044",
"k  c #16BD28",
"l  c #06C322",
"z  c #0BC523",
"x  c #02CF24",
"c  c #0ACC23",
"v  c #0CCC2B",
"b  c #13C529",
"n  c #11CF2D",
"m  c #02D524",
"M  c #0CD225",
"N  c #01DC25",
"B  c #0ADA27",
"V  c #03D52A",
"C  c #0CD32C",
"Z  c #04DC2A",
"A  c #0CDD29",
"S  c #11D32D",
"D  c #10DB2C",
"F  c #15C330",
"G  c #0FD731",
"H  c #0FDC31",
"J  c #10D530",
"K  c #14DE31",
"L  c #01E425",
"P  c #01EB25",
"I  c #09EB27",
"U  c #01E429",
"Y  c #0BE42A",
"T  c #02EC29",
"R  c #0AEC2B",
"E  c #12E62C",
"W  c #14ED2D",
"Q  c #01F326",
"!  c #01FA26",
"~  c #01F429",
"^  c #0AF22C",
"/  c #01FB29",
"(  c #0AFA2D",
")  c #07EE30",
"_  c #12E431",
"`  c #12EB34",
"'  c #12ED3A",
"]  c #1EEF3C",
"[  c #0DF237",
"{  c #03FC32",
"}  c #19F13A",
"|  c #308C59",
" . c #359B5D",
".. c #3CAF50",
"X. c #3CAD5D",
"o. c #3CB556",
"O. c #3DB55A",
"+. c #3EBA5C",
"@. c #3A9363",
"#. c #40A85D",
"$. c #41B45B",
"%. c #40B85F",
"&. c #42AC64",
"*. c #47B364",
"=. c #41BE60",
"-. c #4BBF6E",
";. c #38D64B",
":. c #36D350",
">. c #36DD51",
",. c #3BDF53",
"<. c #1CEA40",
"1. c #1BF143",
"2. c #24EE40",
"3. c #3CE24F",
"4. c #37E754",
"5. c #3BE352",
"6. c #37EB54",
"7. c #3AEC53",
"8. c #3AF355",
"9. c #37FF54",
"0. c #3AFA56",
"q. c #3AF458",
"w. c #37FB5C",
"e. c #38FD58",
"r. c #49DB5C",
"t. c #42F75A",
"y. c #40C167",
"u. c #4AD369",
"i. c #4FDF6E",
"p. c #4FDF69",
"a. c #54DB6E",
"s. c #49D670",
"d. c #53D772",
"f. c #55D773",
"g. c #57DE77",
"h. c #54DB72",
"j. c #59D974",
"k. c #61D87E",
"l. c #4AE264",
"z. c #4CE169",
"x. c #49FB65",
"c. c #4BFE6E",
"v. c #52E273",
"b. c #65FF7D",
"n. c #6AFF7F",
"m. c #67FF81",
"M. c #65FF80",
"N. c #68FF82",
"B. c #6DFF82",
"V. c #6EFF83",
"C. c #6DFF81",
"Z. c #69FF85",
"A. c #6BFF85",
"S. c #6BFF86",
"D. c #69FF87",
"F. c #6CFF84",
"G. c #6CFF86",
"H. c #6EFF84",
"J. c #6DFF84",
"K. c #6CFF8A",
"L. c #6BFF88",
"P. c #75FF89",
"I. c #72FF88",
"U. c #7AFD93",
/* pixels */
"+ + # - # # r # r r t r # r # # # # # # # # # # # # # @ # # # @ # # # # # # # # # # # # # # # # # # # # # # # # # # # # ",
"+ # + # # # # r # r @ # # # # # # # # @ # # @ # @ # # # # # # # # # # # # # # # # # # # # # # # # # # # # # # # # # # # ",
"# # # # # # # # # # # # # # # # # # r r # r r # # r # r # # t # r # # r r r # r r # # r # r r r # # # # # # # # # # # # ",
"# # # # # # # # # # + # # # + + # # # # # # # # # # # # # # # # # # # # # # # # # # # # # # # # # # # # # # # # # # # # ",
"# # # # # # # + # + # # + + # # # # # # + # # - # # # + # # # + # - + + + # # # + # # + # # # + # # # # # r # # # # # # ",
"r w # # # # + # + # - + + # # # + # # + + # # + + + # # # # # + # + # # # # + + + # # + # + + - # # # # # # # # # # # # ",
"# # # # # # + + # + # # # # # # # # # # r r # r r r r # # r # r # r r # r # # r r r # r r # r r # # # # # # # # r # # # ",
"# w # # + # + # + + # # # # r # r r r r r # r # r # r # r # r # r # r # r r r # r # r # r # r # # # # # # # # # # # # # ",
"# # # # + # # # # # # # # @ w # r # # # # # r # # # # # r # r # # # # + r # # # # # # # # # r # # # # # # # # # # # # # ",
"# # # # # # # + O # # # r t r @ # # # # # # # # # # # # + # # # # # # # # # # # # # # @ # # # # r - r # # # # u # # # # ",
"# # # # # # # # # r r @ # @ # r # # # # # # + # # # # # # # + # # # # # + + # # # # # + # # # + # # # # # # # # # # # # ",
"# # # # # # # # # # # r # # # - # # + # # + # + + # + # # # + # + # + # # # # # # # # + # # # # # # # # # # # # # # # # ",
"+ # # # r # # w # # + # - - = & + + # # + + # # + # # + + + # # # + # # + # + # # # + # # # + + # r r # # # # # # # # # ",
"+ # # # # r r # # # = = & = ; & = = = = = = = = - = = = - = = = = = = = = = = = = = + = = + = = # + - # # + # # # # # # ",
"# # # # w # # # # + + = & o $ . . . . . . . . . . . . . . . . . . . . . . . . . . . . . . . . X - + # r # # # # # # # # ",
"# # # @ # @ # # - + & p h h h h j j j d j j j j d j d j d f d f f 0 f f f f q f j q j q d d d h 7 = O + # @ u # # # # # ",
"r # # # + # # # r & 2 @.o.$...o.o.O.o.o.o.o.O.o.O.O.o.O.$.O.%.%.O.$.o.$.o.$.$.o.$.$.%.o.%.O.*.&. .< = # + # # # # r # # ",
"r r + + + + + + - X 4 y.L.b.P.A.G.S.D.D.A.A.S.S.A.A.G.A.G.G.S.F.V.F.F.V.F.F.F.F.n.F.A.b.D.D.I.U.%.> X # + # # # r # r # ",
"r r # # # # r # r & 5 s.c.] 1.' ' ' [ ` ` ` _ W E _ _ _ _ A H H D S D S S C S C S c c v v v F :.f., o r # # # # r # - # ",
"r r r # # t r r # & 3 v.w.[ { { { / / ~ ~ ~ Q Q P Q P P P L P L L U Z N N N N m m m m m x x l >.v.4 X t + + # # r r r # ",
"r r # r r r r r t o > a.9.^ / / / / / / ! ! Q Q Q Q P P P P P P L L L L L N N N B M N m x M l ,.j., X t # + r + r - r # ",
"+ # + # r r u r @ X 3 v.t.I / / / / / / ! ! ! Q Q Q Q Q P P P P P P L L L L L N N N m m m C z >.f.4 o # # + r # r # # # ",
"@ # # + # # # t t o > a.8.W Q / ! / / / ! / / ! Q Q Q Q P P P P P P P L L L L L N B N N m M v ,.j.4 o # # + # # r # r # ",
"# + + # # # # # # X 3 a.t.E I ^ ! / / / / / / / ! ! / ~ Q Q Q Q P P P P P L L L L N N N N m v 5.h.3 X w # + # # r r # # ",
"# + - + + # + # @ % 4 g.t.E ) ~ ! / / / / / / / / ! ! Q Q Q Q Q P Q P P P P L L L L U U N B c 3.h.4 o @ # # # # r # r # ",
"# # # # + # # # @ X > v.q.E ) ~ Q Q ! ! ! / / / ! ( ( ! ! Q Q Q Q Q P P P P P L L N L N N Z M 4.j.4 o # # + # # r # # # ",
"r r r # # # # + + X , i.8.Y ) T ~ Q ~ Q ! / ! / / ( / / / ! Q Q Q Q T T P P P P L L U U U Z M 6.a.4 $ t + # # # r # r # ",
"w r r - # # # # @ X > a.7.Y ) T ~ Q ~ Q Q Q Q ! / / / / / / ! Q Q Q Q ~ Q P P P P L T U U Z C 6.h.4 o # # + # # r r # # ",
"r r r r r # # # @ o 3 j.7.A Y P P P ~ Q Q Q Q ! ! ! / / / ! ! ! ! Q Q Q Q Q P P I L P L U Y B 3.f.4 o # # + t # r # # # ",
"r # # # # - # # # X 3 j.t.B Y I P P P P Q Q ! ! ! ! / / / ! ! ! ! ! Q Q Q Q Q P I P P L U Y D 7.a.4 o t # + - # r r r - ",
"# + + # - # # r t X 3 i.3.B L P U P T P P ~ Q Q ! ! ! ! / / ! / / / / ~ ~ Q Q Q Q P P P U Y D 7.i.4 o # # # # # r # # # ",
"+ + + # + # # # # o 5 i.6.B U U U U T T T T Q Q Q Q ! ! / / ! ! / / ! / / ! Q Q Q Q Q P P Y Y 7.v.4 $ r - + # # # # # # ",
"+ + r r # # # # r & 3 j.7.M Y U L L P P P P P Q Q Q Q Q ! / ~ / / / / / / / ! Q Q Q Q Q P R A 7.a.4 $ # - + - # # # # + ",
"+ + r r t # + + # $ 3 j.5.M Z L L L L P L P P P Q Q Q Q ~ Q ~ / / / ! / / / ! ! ! Q ! Q T R Y 8.a.4 X r - # # # # # # # ",
"# + r r t + + # r & 3 j.r.M Z U N L L L L L L P P Q Q Q Q ~ Q ! ! / / / / / / / ! ! Q Q ~ R Y 8.a.4 X w r # # # # @ # # ",
"# # u r # # @ + # $ 3 j.3.c Z N L N L L N P P L P P P P Q Q Q Q Q ! / / / / ( / ! ! ! Q ^ ^ I 8.a.3 o w r r r # # # @ @ ",
"r r r r # @ + # # $ 3 f.3.c N N N N N N L L L L L P P P P Q Q Q Q ! ! ! / / ( / { / / / ^ ^ Y 0.p., X e y r r # # # @ t ",
"r # # # # # @ # # X > j.3.c V N N N N N N N L L L L L P P P P Q Q Q Q Q / ~ / / / / / / / [ R 0.p., o e y r # # # # r @ ",
"+ # - # + @ # # r & 3 f.4.z V V N m N N N N U L L L P P P P P P Q Q Q ! ~ ! / ! / / / / / ( R 9.l., X y y r r - # # t # ",
"+ + + + @ + # # r & 3 f.5.z V V m N m N N L N U L L L P P P P P P P Q Q / Q ! ! / / / ! / ( ^ 9.p., o y y r # + # # t r ",
"# + - + # r r r # & < j.;.z c c m m m m V N V U U N U U U T T T I L P P P ~ Q Q ! ! / ! ( ^ ^ 9.z.4 X t r # + # # # r r ",
"r r # # r r r u u & * M.r.k b z v n v n v G S C G G G D G G K D D E _ _ ` ` ` ` W ` } ' } } 2.x.u.4 $ u r # # - + # r r ",
"r r r r r r r r u X 2 *.U.F.P.n.H.H.H.G.G.H.H.K.G.F.G.G.F.F.F.F.V.I.D.D.L.L.K.G.F.m.S.b.A.K.F.U.-.5 $ # # # + + + # r r ",
"# r # # r r r - # = 1 @.&.%.o.O.$.$.$.$.$.$.$.$.$.$.O.$.o.o.o.O.$.$.O.O.O.O.O.O.$.o.o.O.O.=.O.#.| 1 o + # # + + + + r r ",
"+ + + + # - + + t # & : g 9 9 q s 0 s s s s s 0 0 s s s q q q s 0 0 q q d d d s 0 q q d 9 q s g 6 & = # # + # + + + r r ",
"# + + # + + - + + # - & X % %   . . . . . . . .   . . . $ . . .   . . . . . .   . . . . . . . $ & o - # # # @ O + + r r ",
"r w r # r # + = @ @ - + ; + + = - = = = - - - - = - - = - - - - - = & - - = - - = + = = ; - - - # # # + # u t @ + + # r ",
"w r w r t # + + @ @ @ r + # # # # + # + # # # + # # r # # r # # # + # - # t # # # # # + # # # r r r r r # # @ t # - r r ",
"# # r # r # # # # # # # # # # # r # # # # # # # # # # # # # # # # # # # # # # # # # # r # - # r r # # # # # r # # + # r ",
"# # # # # # # # # # # # # # # # # # # # # # # # r - # # # # # # # # # # # # # # # # # # # # # # # # # # # # # # # # # # ",
"# # # # # # # # # # # # # # # # # # # # # # # # # # # # # # # # # # # # # # # # # # # # # # # # # # # # # # # # # # # # ",
"# # # # # # # # # # # # # # # # # # # # # # # # # # # # # # # # # # # # # # # # # # # # # # # # # # # # # # # # # # # # ",
"# # # # # # # # # # # # # # # # # # # # # # r # # # # # # # # # # # # # # # # # # # # # # # # # # # # # # # # # # # # # ",
"# # # # # # # # # # r # # # # # # # # # # # # # # # # # # # # # # # # # # # # # # # # # r # # # # # r # # # # # # # r # ",
"# # # # # # # # # # # # # # # # # # # # # # # # # # # # # # # # # # # # r # # # # # # # # # # # # # # # # # # # # # # # ",
"# # # # # # # # # # # # # # # # # # # # # # # # # # # # # r # # # # # # # # # # # # # # # # # # # # # # # # # # # # # # ",
"# # # # # # # # # # # # # # # # # # # # # # # # # # # # # # # # # # # # # # # # # # # # # # # # # # # # r # # # # # # # ",
"# # # # # # # # # # # # r # # # # # r # # # # # # # # # # # # # # # # # # # # # # # # # # # # # # # # # # # # # # # # # ",
"# # # # r # # # # # # # # # # # # # # # # # # # # # # # # # # # # r # # # # # # # # r # # # # # # # # # # # # # # # # # ",
"# # # # # # # # # # # # # # # # # # # # # # # # # # r # # # # # # - # # # # # # # # # # # # # # # # # # # # # # # # # # "
};
