/* XPM */
static char *UDBkb3du[] = {
/* columns rows colors chars-per-pixel */
"60 60 90 1 ",
"  c #060500",
". c #0C0C03",
"X c #141302",
"o c #1B1B11",
"O c #1F2018",
"+ c #2C2A07",
"@ c #2C2A0B",
"# c #302E09",
"$ c #3C3906",
"% c #3C3908",
"& c #272612",
"* c #212219",
"= c #2C2B19",
"- c #001C3D",
"; c #272725",
": c #282927",
"> c #22272B",
", c #25282C",
"< c #292C2D",
"1 c #262C31",
"2 c #292E32",
"3 c #292F39",
"4 c #2E3235",
"5 c #2D333C",
"6 c #303234",
"7 c #433F01",
"8 c #444001",
"9 c #4B4700",
"0 c #4C4800",
"q c #504C02",
"w c #575200",
"e c #5D5801",
"r c #615B00",
"t c #6A6500",
"y c #797200",
"u c #7F7800",
"i c #031F40",
"p c #052141",
"a c #092443",
"s c #112A47",
"d c #142D4A",
"f c #1B334D",
"g c #263443",
"h c #2A3644",
"j c #2F3A46",
"k c #2D3C4D",
"l c #313742",
"z c #333B44",
"x c #383F45",
"c c #333D49",
"v c #243B53",
"b c #2A3C52",
"n c #2F4255",
"m c #334354",
"M c #3A4554",
"N c #3C4956",
"B c #304358",
"V c #314458",
"C c #3D4A59",
"Z c #3B4B5F",
"A c #3D4D61",
"S c #3E4E61",
"D c #404D5A",
"F c #817A00",
"G c #827A00",
"H c #8A8400",
"J c #8E8700",
"K c #8F8700",
"L c #8F8800",
"P c #9E9500",
"I c #9E9600",
"U c #9F9600",
"Y c #B3A900",
"T c #B4AB00",
"R c #C2B700",
"E c #C2B800",
"W c #C8BD00",
"Q c #CABF00",
"! c #CFC400",
"~ c #D9CD00",
"^ c #E0D400",
"/ c #EADE00",
"( c #F4E700",
") c #F7EA00",
"_ c #F9EC00",
"` c #FAEC00",
"' c #FCEE00",
"] c #FCEF00",
"[ c #FEF100",
"{ c #FFF100",
/* pixels */
"--------------------afSml<;oXXXXo;2zNZfa--------------------",
"-----------------pfbc,=%eGUYRQWRYUGe$=,cBfi-----------------",
"---------------pvD6=qKQ/_]]]]]]`][]`/QKq=6Dvi---------------",
"--------------fN6#yQ(]]]``]`]`]]``]``][(Qy#6Mf--------------",
"------------ab2#G~]`]]``]```]`````]`]`]`]]~G@2bi------------",
"-----------dl*r!]]]````]`]`]`]`]`]`]```]`_`]!r*gd-----------",
"----------v5@I(`_]``]`````]`]`]`]`]`]````]`]](U+3di---------",
"---------B<7Q]]]``]``]`]`]```]`````]```]]```]`]Q7,b---------",
"-------in<w^`]]`]`]`]```]```]`````]```]`]`]`]`]]^w,bi-------",
"------in<r/[]``````]`]`]```]`]`]`]`]`]`````]`]``]/r,vi------",
"------v2w/[]`]`]]`````]`]```]`]`]`]`]`]`]````````]/w:f-i----",
"-----f57^]_]``]````]`]```]`]`]`````]```]```]`]]`]]]^75di----",
"----am+Q]]`]`]``]`````]`]`]```]`]`]`]```]````]`]`]``Q+gi----",
"----m&I[_]````]``]`]`]`]```]`]```````]`]`]`]]`````]`]Uob----",
"---f,e(]]]_]`]`]]`]`]`]`]```]`]`]`````]`]`]``````]`]](r,si--",
"--ik@![]__]_]````]`````]```]```]`]`]`]```]``]`]`]```]]!+gi--",
"--v2G]`]`]`]`]``]`]`]`]`]`]```]````]```]```]```]`]````]G>f--",
"--m#~]``]`````]````]`````]`]`]``]`]`]```]`]`]`]```]`]`]~@c--",
"-d2y```]```]`]`]````]`````]`]`]``]`]```]`]`]`]`]`]`]`]]`y2d-",
"-b&Q]```]```]`]``]`]`]`]`]`````]``]`]`]`]`````]`]`]```]`Q&vi",
"alq(```]```]`]``]`]```]`]```]`]``]```]`]```]`]```]`]``]`(qzi",
"f,K]]`]`]`]```]``]`]`]```]`]```]``]`]```]`````]``````]`]]K>f",
"A=Q]`]`]`]```]`]``]`]`]```]`]````]`]```]```]`]`]```]]``]`W=S",
"M7/```]```]`]````]`````]`]```]``]```]```]`]`]```]`]```_]]/%D",
"ce`]``]````]```]```]`]`]]```]`GT]]]``]`]```]`]`]`]```]``]_ex",
"2G]``]``]`]`]```]`]`]``````]`(9K]_]_]`]`]`]`]`````]`]`]`]]G2",
":P]`]`]``]`]```]`]`````]]```](9K[]```]```]`````]`]`]`]`]_[P:",
"oY]]```]``]`]`]```]`]````]`]_(9H]`]```]```]`]```]```]```]]Yo",
"XR`]]`]``]```]`]`]`````]```]`(9K[]_]`]`]`]`````]```]`]`]''RX",
"XQ]````]``]`]```]`]`]`]`]`]``(9K[`]`]```]`]`]`]`]`]`````'{QX",
"XQ]]`````]`]```]`]`]`]`]`]_`](9H[]`]```]`]`]`]`]`]`````]''WX",
"XR]]`]`]]```]```]`````]```]__(9K]```]```]`````]```]`]`]`''RX",
"oY]]]```]```]`]`]`]`]`]```]`_(9K]]`]``]```]`]`]````]```]`[Yo",
":U[_`]`]```]`]```````]`]`]``_(9H]]`_`]`]`]`````]]`]`]```]`U:",
"2G]]``]`]```]`]`]`````]`]`]`](9H]``]]`]`]`]``````]`]```]]`G2",
"le_]`]```]`]```]`]`]`]`````]](9K]`]````]```]`]`]``]`]`]`_]rx",
"M%/]]]]```]`]`]`]`````]`]```](9K[]]`]```]```]````]```]`]]/7M",
"A=Q````]`]`````]`]`]`]`````]`(9H]]`````]`]`]`]`]``]`]```]Q=S",
"f>K]``]`]`]```````]`]`]`]```](9K[_]`]`````]`]`]``]`]```]]K>f",
"icq(`]```]`]`]`]`]```]`]`]`]`(9K[]_]`]`]`]```]``]```]``](qca",
"ib&Q``]```]`]`]`]```]`````]`](9H]`]`]`]`]```]```]```]``]W=B-",
"-d2y]]```]`````]`]`]```]`]``](9J]]`````]```]`]`]`]`]```]y2d-",
"-im#~]__]`]```````]`]```]`]`_(9H[]]`]```]```]`]```]`]``~#mi-",
"--f<G`]````]`]`]`]```]`]`]__](9K[``]```]`]`]`]```]```]]G<f--",
"--ic@!]]]```]`````]`]`]```]`_(9H[_]_]`````]```]```]```!@li--",
"---f2r(]`]`]`]`]`]`]```]`]``](9K[]`]`]`]`]`]`]```]`]](r1di--",
"----B*U```]`]`]`]`]`]```]`]`_(9K]`````]`]```]`]`]`]]]P*b----",
"----az#Q]]```]`````]```]```]](9H]]`]`]```]`]```]```]Q@ga----",
"-----dz7^]]`]``]`]```]```]`]`(9K[]]`]`]``]```]``]`]^75d-----",
"------v2w/]]`]````]`]`]`]```](9H[``````]``]`]``]`]/w,v------",
"-------V<r/]```]`]`]`]`]`````(9K[_]``````]`]`]`]]/r,b-------",
"--------V<w^]]]`]```]```]`]``(9K[]_]`]`]]`````]`^w,b--------",
"--------iV27Q]]]`]```]`]```]](9H]```]```_]`]]]]!7>b---------",
"----------f5+U(]``]`````]`]`](9J[]`]`]`]_]]`](U@3fi---------",
"-----------dhor!]]]]```]`]___(9H[]]`]`]`]_`_!eogsi----------",
"------------ab3@G~`]]`]`]`]]_(9J]````]``[]~G@3ka------------",
"--------------fN2#yW(`]]`]``](9J[]]]][[_Qy#4Mf--------------",
"---------------ivD2&qKQ/_][][_9J[[]_/QJq&2Cv----------------",
"-----------------ifbl>;7eGUYRR$tYUGe$=,cBfp-----------------",
"-------------------iafAcl2:oXX .o;4xNSfa--------------------"
};
