/* XPM */
static char *UDBsZWZ0[] = {
/* columns rows colors chars-per-pixel */
"60 60 93 2 ",
"   c #060500",
".  c #0C0C03",
"X  c #141302",
"o  c #1B1B11",
"O  c #1F2018",
"+  c #2C2A07",
"@  c #2C2A0B",
"#  c #302E0A",
"$  c #3C3906",
"%  c #3C3908",
"&  c #272612",
"*  c #282713",
"=  c #212219",
"-  c #2C2B19",
";  c #001C3D",
":  c #272725",
">  c #282927",
",  c #22272B",
"<  c #25282C",
"1  c #292C2D",
"2  c #262C31",
"3  c #292E32",
"4  c #292F39",
"5  c #2E3235",
"6  c #2D333C",
"7  c #303234",
"8  c #433F01",
"9  c #444001",
"0  c #4B4700",
"q  c #4C4800",
"w  c #504C02",
"e  c #575200",
"r  c #5D5801",
"t  c #615B00",
"y  c #6A6500",
"u  c #797200",
"i  c #7F7800",
"p  c #031F40",
"a  c #052141",
"s  c #092443",
"d  c #112A47",
"f  c #142D4A",
"g  c #17314C",
"h  c #1B334D",
"j  c #263443",
"k  c #2A3644",
"l  c #2F3A46",
"z  c #2D3C4D",
"x  c #333B44",
"c  c #383F45",
"v  c #333D49",
"b  c #243B53",
"n  c #2A3C52",
"m  c #2F4255",
"M  c #334354",
"N  c #3A4554",
"B  c #3C4956",
"V  c #314458",
"C  c #3D4B5A",
"Z  c #3D4D60",
"A  c #404D5A",
"S  c #817A00",
"D  c #827A00",
"F  c #898200",
"G  c #8C8600",
"H  c #8F8700",
"J  c #8E8800",
"K  c #8F8800",
"L  c #9E9600",
"P  c #9F9700",
"I  c #B3A900",
"U  c #B3AA00",
"Y  c #B6AD00",
"T  c #C2B700",
"R  c #C2B800",
"E  c #C8BD00",
"W  c #C8BE00",
"Q  c #C9BE00",
"!  c #CFC400",
"~  c #D9CD00",
"^  c #E0D400",
"/  c #E9DC00",
"(  c #E9DD00",
")  c #EADD00",
"_  c #EADE00",
"`  c #F4E700",
"'  c #F7E900",
"]  c #F9EC00",
"[  c #FBED00",
"{  c #FCED00",
"}  c #FDF000",
"|  c #FEF100",
" . c #FFF500",
/* pixels */
"; ; ; ; ; ; ; ; ; ; ; ; ; ; ; ; ; ; ; ; a g Z N x 3 > o X X X X o > 3 x N Z g s a ; ; ; ; ; ; ; ; ; ; ; ; ; ; ; ; ; ; ; ",
"; ; ; ; ; ; ; ; ; ; ; ; ; ; ; ; ; a g z v < - % r S L I R Q Q T I L S r % - < x n f p ; ; ; ; ; ; ; ; ; ; ; ; ; ; ; ; ; ",
"; ; ; ; ; ; ; ; ; ; ; ; ; ; ; p h M 3 & q K Q ) [ [ | | | | { | | | [ [ ) Q G q & 4 M b p ; ; ; ; ; ; ; ; ; ; ; ; ; ; ; ",
"; ; ; ; ; ; ; ; ; ; ; ; ; ; h z 1 @ u Q ` | | { [ [ [ [ [ [ [ { [ [ [ [ { | | ' Q u + 1 m h ; ; ; ; ; ; ; ; ; ; ; ; ; ; ",
"; ; ; ; ; ; ; ; ; ; ; ; s V 3 + S ~ { | { [ [ [ [ [ [ [ [ [ [ [ [ [ [ [ [ [ [ [ { { ~ i + 3 V s ; ; ; ; ; ; ; ; ; ; ; ; ",
"; ; ; ; ; ; ; ; ; ; ; g v = r ! [ | [ [ [ [ [ [ [ [ [ [ [ [ [ [ [ [ [ [ [ [ [ [ { { | { ! r = v g ; ; ; ; ; ; ; ; ; ; ; ",
"; ; ; ; ; ; ; ; ; ; b x + L ` | [ [ [ [ [ [ [ [ [ [ [ [ [ [ [ [ [ [ [ [ [ [ [ [ { [ [ [ | ' L + 6 m ; ; ; ; ; ; ; ; ; ; ",
"; ; ; ; ; ; ; ; p m 1 8 Q | { [ [ [ [ [ [ [ [ [ [ [ [ [ [ [ [ [ [ [ [ [ [ [ [ [ { { [ [ [ { | Q 9 3 M ; ; ; ; ; ; ; ; ; ",
"; ; ; ; ; ; ; ; V 1 e ^ | [ [ [ [ [ [ [ [ [ [ [ [ [ [ [ [ [ [ [ [ [ [ [ [ [ [ [ [ [ [ [ [ [ [ | ^ e 1 m a ; ; ; ; ; ; ; ",
"; ; ; ; ; ; ; V 1 t ) | [ [ [ [ [ [ [ [ [ [ [ [ [ [ [ [ [ [ [ [ [ [ [ [ [ [ [ [ [ [ [ [ [ [ [ [ | ) t 1 V ; ; ; ; ; ; ; ",
"; ; ; ; ; ; h 2 e ) | { [ [ [ [ [ [ [ [ [ [ [ [ [ [ [ [ [ [ [ [ [ [ [ [ [ [ [ [ [ [ [ [ [ [ [ [ [ | ) e 3 h ; ; ; ; ; ; ",
"; ; ; ; ; f 6 8 ^ { [ { [ [ [ [ [ [ [ [ [ [ [ [ [ [ [ [ [ [ [ [ [ [ [ [ [ [ [ [ [ [ [ [ [ [ [ [ [ [ | ^ 9 6 f ; ; ; ; ; ",
"; ; ; ; s k + ! | [ [ [ [ [ [ [ [ [ [ [ [ [ [ [ [ [ [ [ [ [ [ [ [ [ [ [ [ [ [ [ [ [ [ [ [ [ [ [ [ [ [ | Q + l s ; ; ; ; ",
"; ; ; ; n O L | [ [ [ [ [ [ [ [ [ [ [ [ [ [ [ [ [ [ [ [ [ [ [ [ [ [ [ [ [ [ [ [ [ [ [ [ [ [ [ [ [ [ [ [ | L = n ; ; ; ; ",
"; ; ; g 3 r ' [ [ [ [ [ [ [ [ [ [ [ [ [ [ [ [ [ [ [ [ [ [ [ [ [ [ [ [ [ [ [ [ [ [ [ [ [ [ [ [ [ [ [ [ [ [ ` t 3 g ; ; ; ",
"; ; a N @ ! | [ [ [ [ [ [ [ [ [ [ [ [ [ [ [ [ [ [ [ [ [ [ [ [ [ [ [ [ [ [ [ [ [ [ [ [ [ [ [ [ [ [ [ [ [ [ | ! @ B a ; ; ",
"; ; b 5 i | [ [ [ [ [ [ [ [ [ [ [ [ [ [ [ [ [ [ [ [ [ [ [ [ [ [ [ [ [ [ [ [ [ [ [ [ [ [ [ [ [ [ [ [ [ [ [ [ [ i 7 b ; ; ",
"; a C @ ~ { [ [ [ [ [ [ [ [ [ [ [ [ [ [ [ [ [ [ [ [ [ [ [ [ [ [ [ [ [ [ [ [ [ [ [ [ [ [ [ [ [ [ [ [ [ [ [ [ | ~ # A s ; ",
"; f 5 u { [ [ [ [ [ [ [ [ [ [ [ [ [ [ [ [ [ [ [ [ [ [ [ [ [ [ [ [ [ [ [ [ [ [ [ [ [ [ [ [ [ [ [ [ [ [ [ [ [ { | u 7 h ; ",
"; n & Q | [ [ [ [ [ [ [ [ [ [ [ [ [ [ [ [ [ [ [ [ [ [ [ [ [ [ [ [ [ [ [ [ [ [ [ [ [ [ [ [ [ [ [ [ [ [ [ [ [ { { Q * n ; ",
"s x w ` { [ [ [ [ [ [ [ [ [ [ [ [ [ [ [ [ [ [ [ [ [ [ [ [ [ [ [ [ [ [ [ [ [ [ [ [ [ [ [ [ [ [ [ [ [ [ [ [ [ [ { ` w v s ",
"h , G { [ [ [ [ [ [ [ [ [ [ [ [ [ [ [ [ [ [ [ [ [ [ [ [ [ [ [ [ [ [ [ [ [ [ [ [ [ [ [ [ [ [ [ [ [ [ [ [ [ [ [ [ | G < h ",
"C - Q { [ [ [ [ [ [ [ [ [ [ [ [ [ [ [ [ [ [ [ [ [ [ [ [ [ [ [ [ [ [ [ [ [ [ [ [ [ [ [ [ [ [ [ [ [ [ [ [ [ [ { { { Q - Z ",
"N % _ { [ [ [ [ [ [ [ [ [ [ [ [ [ [ [ [ [ [ [ [ [ [ [ [ [ [ [ [ [ [ [ [ [ [ [ [ [ [ [ [ [ [ [ [ [ [ [ [ [ { { { { _ % M ",
"x e [ [ [ [ [ [ [ [ [ [ [ [ [ [ [ [ [ [ [ [ [ [ [ [ [ [ [ [ [ [ [ [ [ [ [ [ [ [ [ [ [ [ [ [ [ [ [ [ [ [ [ [ [ [ { [ r x ",
"3 D | { [ [ [ [ [ [ [ [ [ [ [ [ [ [ [ [ [ [ [ [ [ [ [ [ [ [ [ [ [ [ [ [ [ [ [ [ [ [ [ [ [ [ [ [ [ [ [ [ [ [ [ [ { { S 2 ",
"> P | { [ [ [ [ [ [ [ [ [ [ [ [ [ [ [ [ [ [ [ [ [ [ [ [ [ [ [ [ [ [ [ [ [ [ [ [ [ [ [ [ [ [ [ [ [ [ [ [ [ [ [ [ [ | L : ",
"o U | { [ [ [ [ [ [ [ [ [ [ [ [ [ [ [ [ [ [ [ [ [ [ [ [ [ [ [ [ [ [ [ [ [ [ [ [ [ [ [ [ [ [ [ [ [ [ [ [ [ [ [ [ [ | I o ",
"X R | [ [ [ [ [ { [ [ [ [ [ [ [ [ [ [ [ { [ [ [ [ [ [ [ [ [ [ [ [ [ [ [ [ [ [ [ [ [ [ [ [ [ [ [ [ [ [ [ [ [ [ [ { | T X ",
"X R ' ' ' ` ` ` ` ` ` ` ` ` ` ` ` ` ` ` ` ` ` ` ` ` ` ` ` ` ` ` ` ` ` ' [ [ [ [ [ [ [ [ [ [ [ [ [ [ [ [ [ [ [ [ { { Q X ",
"  $ q 0 0 0 0 0 0 0 0 0 0 0 0 0 0 0 0 0 0 0 0 0 0 0 0 0 0 0 0 0 0 0 q F [ [ [ [ [ [ [ [ [ [ [ [ [ [ [ [ [ [ [ [ [ | Q X ",
". y G G G G G G G G G G G G G G G G G G G G G G G G G G G G G G G G F I ' [ [ [ [ [ [ [ [ [ [ [ [ [ [ [ [ [ [ [ [ | R X ",
"o Y  .| | | | | | | | | | | | | | | | | | | | | | | | | | | | | | | | | [ [ [ [ [ [ [ [ [ [ [ [ [ [ [ [ [ [ [ [ [ | I o ",
"> L | [ [ [ { [ [ { [ [ { [ [ { [ [ { [ [ { [ [ { [ [ { [ [ { [ { [ [ [ [ [ [ [ [ [ [ [ [ [ [ [ [ [ [ [ [ [ [ [ [ | L : ",
"5 S | [ [ [ [ [ [ [ [ [ [ [ [ [ [ [ [ [ [ [ [ [ [ [ [ [ [ [ [ [ [ [ [ [ [ [ [ [ [ [ [ [ [ [ [ [ [ [ [ [ [ [ [ [ { [ S 3 ",
"M r [ [ [ [ [ [ [ [ [ [ [ [ [ [ [ [ [ [ [ [ [ [ [ [ [ [ [ [ [ [ [ [ [ [ [ [ [ [ [ [ [ [ [ [ [ [ [ [ [ [ [ [ [ [ { [ r x ",
"N $ ) { [ [ [ [ [ [ [ [ [ [ [ [ [ [ [ [ [ [ [ [ [ [ [ [ [ [ [ [ [ [ [ [ [ [ [ [ [ [ [ [ [ [ [ [ [ [ [ [ [ [ [ [ { ) % B ",
"A * Q | [ [ [ [ [ [ [ [ [ [ [ [ [ [ [ [ [ [ [ [ [ [ [ [ [ [ [ [ [ [ [ [ [ [ [ [ [ [ [ [ [ [ [ [ [ [ [ [ [ [ [ [ [ ! - Z ",
"h < K | [ [ [ [ [ [ [ [ [ [ [ [ [ [ [ [ [ [ [ [ [ [ [ [ [ [ [ [ [ [ [ [ [ [ [ [ [ [ [ [ [ [ [ [ [ [ [ [ [ [ [ [ | K < h ",
"s v w ' { [ [ [ [ [ [ [ [ [ [ [ [ [ [ [ [ [ [ [ [ [ [ [ [ [ [ [ [ [ [ [ [ [ [ [ [ [ [ [ [ [ [ [ [ [ [ [ [ [ [ { ` q v s ",
"; m & ! | [ [ [ [ [ [ [ [ [ [ [ [ [ [ [ [ [ [ [ [ [ [ [ [ [ [ [ [ [ [ [ [ [ [ [ [ [ [ [ [ [ [ [ [ [ [ [ [ [ [ | Q * n ; ",
"; g 5 u [ [ [ [ [ [ [ [ [ [ [ [ [ [ [ [ [ [ [ [ [ [ [ [ [ [ [ [ [ [ [ [ [ [ [ [ [ [ [ [ [ [ [ [ [ [ [ [ [ [ [ { u 5 h ; ",
"; a C # ~ [ [ [ [ [ [ [ [ [ [ [ [ [ [ [ [ [ [ [ [ [ [ [ [ [ [ [ [ [ [ [ [ [ [ [ [ [ [ [ [ [ [ [ [ [ [ [ [ [ { ~ # A a ; ",
"; ; b 5 i { [ [ [ [ [ [ [ [ [ [ [ [ [ [ [ [ [ [ [ [ [ [ [ [ [ [ [ [ [ [ [ [ [ [ [ [ [ [ [ [ [ [ [ [ [ [ [ [ { S 6 n ; ; ",
"; ; p N @ ! { [ [ [ [ [ [ [ [ [ [ [ [ [ [ [ [ [ [ [ [ [ [ [ [ [ [ [ [ [ [ [ [ [ [ [ [ [ [ [ [ [ [ [ [ [ { | ! @ N s ; ; ",
"; ; ; g 6 t ` [ [ [ [ [ [ [ [ [ [ [ [ [ [ [ [ [ [ [ [ [ [ [ [ [ [ [ [ [ [ [ [ [ [ [ [ [ [ [ [ [ [ [ [ [ { ` r 5 g ; ; ; ",
"; ; ; p z o L | [ [ [ [ [ [ [ [ [ [ [ [ [ [ [ [ [ [ [ [ [ [ [ [ [ [ [ [ [ [ [ [ [ [ [ [ [ [ [ [ [ [ [ [ | L o n ; ; ; ; ",
"; ; ; ; s j + Q | [ [ [ [ [ [ [ [ [ [ [ [ [ [ [ [ [ [ [ [ [ [ [ [ [ [ [ [ [ [ [ [ [ [ [ [ [ [ [ [ [ [ | Q @ j s ; ; ; ; ",
"; ; ; ; ; d 4 8 ^ [ { { { [ [ [ [ [ [ [ [ [ [ [ [ [ [ [ [ [ [ [ [ [ [ [ [ [ [ [ [ [ [ [ [ [ [ [ [ [ { ^ 9 6 d ; ; ; ; ; ",
"; ; ; ; ; ; g < e ) | { [ [ [ [ [ [ [ [ [ [ [ [ [ [ [ [ [ [ [ [ [ [ [ [ [ [ [ [ [ [ [ [ [ [ [ [ { { ) e < g ; ; ; ; ; ; ",
"; ; ; ; ; ; p n , t ) { [ [ [ [ [ [ [ [ [ [ [ [ [ [ [ [ [ [ [ [ [ [ [ [ [ [ [ [ [ [ [ [ [ [ [ [ | ) t < n ; ; ; ; ; ; ; ",
"; ; ; ; ; ; ; p n , e ^ | [ [ [ [ [ [ [ [ [ [ [ [ [ [ [ [ [ [ [ [ [ [ [ [ [ [ [ [ [ [ [ [ [ [ | ^ e < n ; ; ; ; ; ; ; ; ",
"; ; ; ; ; ; ; ; ; n 2 8 Q | { { [ [ [ [ [ [ [ [ [ [ [ [ [ [ [ [ [ [ [ [ [ [ [ [ [ [ [ [ [ [ { Q 8 < n ; ; ; ; ; ; ; ; ; ",
"; ; ; ; ; ; ; ; ; ; b 6 + L ` { [ [ [ [ [ [ [ [ [ [ [ [ [ [ [ [ [ [ [ [ [ [ [ [ [ [ [ [ | ' P @ 6 g p ; ; ; ; ; ; ; ; ; ",
"; ; ; ; ; ; ; ; ; ; ; f k = r ! { { [ [ [ [ [ [ [ [ [ [ [ [ [ [ [ [ [ [ [ [ [ [ [ [ { [ ! t o k f ; ; ; ; ; ; ; ; ; ; ; ",
"; ; ; ; ; ; ; ; ; ; ; ; s n 2 + S ~ { | { [ [ [ [ [ [ [ [ [ [ { [ [ [ [ [ [ [ { | { ~ i @ , n a ; ; ; ; ; ; ; ; ; ; ; ; ",
"; ; ; ; ; ; ; ; ; ; ; ; ; ; f z < @ u ! ' | { { { [ [ [ { { { { [ { [ [ [ | | ' Q u @ , k f ; ; ; ; ; ; ; ; ; ; ; ; ; ; ",
"; ; ; ; ; ; ; ; ; ; ; ; ; ; ; p h N 5 & w G Q ) [ | | | | { | { | | | [ ) Q G w & 3 v h ; ; ; ; ; ; ; ; ; ; ; ; ; ; ; ; ",
"; ; ; ; ; ; ; ; ; ; ; ; ; ; ; ; ; a f m v 1 - % r S L I T Q Q T I L S r % - , l n f p ; ; ; ; ; ; ; ; ; ; ; ; ; ; ; ; ; ",
"; ; ; ; ; ; ; ; ; ; ; ; ; ; ; ; ; ; ; ; s h Z N M 3 > o X X X X o : 3 c B C h s ; ; ; ; ; ; ; ; ; ; ; ; ; ; ; ; ; ; ; ; "
};
