/* XPM */
static char *UDByaWdodA__[] = {
/* columns rows colors chars-per-pixel */
"60 60 90 1 ",
"  c #060500",
". c #0C0C03",
"X c #141302",
"o c #1B1B11",
"O c #1F2018",
"+ c #2C2A07",
"@ c #2C2A0B",
"# c #302E0A",
"$ c #3C3906",
"% c #3C3908",
"& c #272612",
"* c #282712",
"= c #212219",
"- c #2C2B19",
"; c #001C3D",
": c #272725",
"> c #272825",
", c #282927",
"< c #22272B",
"1 c #25282C",
"2 c #292C2D",
"3 c #262C31",
"4 c #292E32",
"5 c #292F39",
"6 c #2E3235",
"7 c #2D333C",
"8 c #303234",
"9 c #433F01",
"0 c #444001",
"q c #4B4700",
"w c #4C4800",
"e c #504C02",
"r c #575200",
"t c #5D5801",
"y c #615B00",
"u c #6A6500",
"i c #797200",
"p c #7F7800",
"a c #031F40",
"s c #052141",
"d c #092443",
"f c #112A47",
"g c #142D4A",
"h c #17314C",
"j c #1B334D",
"k c #263443",
"l c #2A3644",
"z c #2F3A46",
"x c #2D3C4D",
"c c #313742",
"v c #333B44",
"b c #383F45",
"n c #333D49",
"m c #243B53",
"M c #2A3C52",
"N c #2F4255",
"B c #334354",
"V c #3A4554",
"C c #3C4956",
"Z c #314458",
"A c #3D4B5A",
"S c #3D4D60",
"D c #404D5A",
"F c #827A00",
"G c #8A8400",
"H c #8C8600",
"J c #8F8700",
"K c #8E8800",
"L c #9E9500",
"P c #9E9600",
"I c #9F9600",
"U c #B3A900",
"Y c #B3AA00",
"T c #B6AD00",
"R c #C2B700",
"E c #C8BD00",
"W c #CABF00",
"Q c #CFC400",
"! c #D9CD00",
"~ c #E0D400",
"^ c #E9DC00",
"/ c #EADE00",
"( c #F4E700",
") c #F7E900",
"_ c #FAEC00",
"` c #FBED00",
"' c #FCED00",
"] c #FDEF00",
"[ c #FEF100",
"{ c #FFF500",
/* pixels */
";;;;;;;;;;;;;;;;;;;;djSCb4:oXXXXo,4bVSjd;;;;;;;;;;;;;;;;;;;;",
";;;;;;;;;;;;;;;a;agMz<-$tFIURWWRUPFt%-1nBgs;;a;;;;;;;;;;;;;;",
";;;;;;;;;;;;;;;ahx4&eJW/_][[]]]][[``/WJe*5Bja;;;;;;;;;;;;;;;",
";;;;;;;;;;;;;;gk<@iW(]]]'_]_]]__````][[(Wi#2zh;a;;;;;;;;;;;;",
";;;;;;;;;;;;dM<@F!]]]___```````````````]]]!p@3Md;;;;;;;;;;;;",
";;;;;;;;;;;fkotQ]]_'_']_````````````````_]]]Qtolg;;;;;;;;;;;",
";;;;;;;;;;j7@P(]]_'_]]__````````````````]]__](P+7j;;;;;;;;;;",
";;;;;;;;aM19W[]`_'_'___]````````````````___]`]]W93Ma;;;;;;;;",
";;;;;;;;M1r~]]_````````````````````````````````]~r1M;;;;;;;;",
";;;;;;;M1y/]````````````````````````````````````]/y1ma;;;;;;",
";;;;;;j1r/]]````````````````````````````````````_]/r3g;;;;;;",
";;;;;f50~]``````````````````````````````````````]]]~95f;;;;;",
";;;;sk+W]```````````````````````````````````````'_]]W@kd;;;;",
";;;;x=P[````````````````````````````````````````_]__]Pox;;;;",
";;;j4t(`````````````````````````````````````````__]]](y5j;;;",
";;sC@Q[`````````````````````````````````````````]____]Q+Va;;",
";;m8p``````````````````````````````````````````````````p8m;;",
";dA#!`````````````````````````````````````````````````]!#Aa;",
";j6i```````````````````````````````````````````````````]i8h;",
";N*W[``````````````````````````````````````````````````]W*N;",
"dne(```````````````````````````````````````````````````](end",
"j1J[````````````````````````````````````````````````````]J1j",
"A-W]````````````````````````````````````````````````````[W-S",
"V%/]````````````````````````````````````````````````````]/%V",
"vt````````````````````````````````````````````````]___]_``tb",
"4F]````````````````````````_``````````````````````__]_]_][F6",
">P[````````````````````````]_]``[````[`]``[``````]`]_]__`[P>",
"oU[]````````````````````][[[][[[[[[[[[[[[[[[[[[[[[[[][[[[{To",
"XR]`````````````````````UGJGJJGGGGGGGJJGJGJGGJGGGJGJJJGGJJu.",
"XW[`````````````````````G9qqqqqqqqwwqqqqqqqqqqqqqqqqqqqqqw$ ",
"XW[`````````````````````))(((()((((()((((()((((()(((((((()RX",
"XR]`````````````````````````````````````````````````````]]RX",
"oU]]_]___]__]]___]___]__]]____]]___]_]___]__]]____]]__]__[Uo",
":P]__]_]__]____]_]_]__]____]]____]___]_]__]____]]____]__]]P,",
"3F]]__]_]]_____]__]_]]_____]]___]_]___]_]]_____]]_____]]]]F4",
"ct_]]______]]]__]______]]]____]]__]_]______]]]____]]]___]_tc",
"B$/]`__]]______]__]]]_____]__]___]__]__]]______]]______]]^%B",
"A-W]_]_]__]]_]__]_____]]_]____]___]_]__]__]]_]____]_]]__]W-A",
"j1J]_]___]__]_]_]____]____]]]]__]]_______]__]_]__]_]__]_]J1j",
"sne(]_]___]___]___]]__]_]______]___]_]]___]___]__]___]_](wzd",
";B*W]___]__]___]__]]__]_]______]_]]_]___]__]___]``````_]W*N;",
";j7i]_]]]__]_]__]____]____]]]]________]]]__]_]__``````_]i6g;",
";aD#!]______]_]_]_____]]_]____]_]__]_]______]_]_``````]!+As;",
";;m6F]]__]]___]___]]]_____]__]__]__]__]__]]___]_``````]p6m;;",
";;aC+Q]]_]]___]_]______]]]____]]___]_]___]]___]_`````]Q+Vs;;",
";;;j5y(]____]_]___]_]]_____]]____]___]_]____]_]_````](y5j;;;",
";;;aM=P]]__]_]___]_]__]____]]___]_]___]_]__]_]__``_]]P=M;;;;",
";;;;dz@W]__]___]_]___]__]]____]]__]_]___]__]___]```[W+ls;;;;",
";;;;;g79~[``````````````_]___]___]__]]__``````````[~97g;;;;;",
";;;;;;k4r/]`````````````_]_]__]___]____]`````````]/r4j;;;;;;",
";;;;;;aZ2y/]````````````__]_]]__]]_____]````````]^y2Z;;;;;;;",
";;;;;;aaN2r~[```````````]______]___]]]__```````]~r2B;;;;;;;;",
";;;;;;;;aN49W]]`````````__]]]____]]____]``````]Q96Ns;;;;;;;;",
";;;;;;;;;amv@L(]````````]_____]]_____]__````](P@7m;;;;;;;;;;",
";;;;;;;;;;;jv=yQ]]``````]____]__]__]_]]_``]]Qy=xj;;;;;;;;;;;",
";;;;;;;;;;;;dB4@p!]]````__]]__]_]__]___]]]!p@3Bd;;;;;;;;;;;;",
";;;;;;;;;;;;;;gx2#iW(]]]]]_`]__]_]_]_][(Wi@2vj;;;;;;;;;;;;;;",
";;;;;;;;;;;;;;;ajB5*eJW/_][[]]]]]]]_^EJe*5Bj;;;;;;;;;;;;;;;;",
";;;;;;;;;;;;;;;;;dgMc1-$tFPUREWRUPFt%-1zMgs;;;;;;;;;;;;;;;;;",
";;;;;;;;;;;;;;;;;;;;dgSVv5,oXXXXo:4vVSjd;;;;;;;;;;;;;;;;;;;;"
};
