/* XPM */
static char *UDB1cA__[] = {
/* columns rows colors chars-per-pixel */
"60 60 91 1 ",
"  c #060500",
". c #0C0C03",
"X c #141302",
"o c #1B1B11",
"O c #1F2017",
"+ c #1F2018",
"@ c #2C2A07",
"# c #2C2A0B",
"$ c #302E09",
"% c #3C3906",
"& c #3C3908",
"* c #272612",
"= c #282712",
"- c #212219",
"; c #2C2B19",
": c #001C3D",
"> c #272725",
", c #282927",
"< c #22272B",
"1 c #25282C",
"2 c #292C2D",
"3 c #292E32",
"4 c #292F39",
"5 c #2E3235",
"6 c #2D333C",
"7 c #303234",
"8 c #433F01",
"9 c #444001",
"0 c #4B4700",
"q c #4C4800",
"w c #504C02",
"e c #575200",
"r c #5D5801",
"t c #615B00",
"y c #6A6500",
"u c #797200",
"i c #7F7800",
"p c #031F40",
"a c #052141",
"s c #092443",
"d c #112A47",
"f c #142D4A",
"g c #17314C",
"h c #1B334D",
"j c #263443",
"k c #2A3644",
"l c #2F3A46",
"z c #2D3C4D",
"x c #313742",
"c c #333B44",
"v c #383F45",
"b c #333D49",
"n c #243B53",
"m c #2A3C52",
"M c #334354",
"N c #3A4554",
"B c #3C4956",
"V c #314458",
"C c #3D4B5A",
"Z c #3D4D60",
"A c #3E4E61",
"S c #404D5A",
"D c #817A00",
"F c #827A00",
"G c #898200",
"H c #8C8600",
"J c #8F8700",
"K c #8E8800",
"L c #8F8800",
"P c #9E9600",
"I c #9F9600",
"U c #9F9700",
"Y c #B3A900",
"T c #B6AD00",
"R c #C2B700",
"E c #C2B800",
"W c #C8BD00",
"Q c #CABF00",
"! c #CFC400",
"~ c #D9CD00",
"^ c #E0D400",
"/ c #E9DC00",
"( c #EADD00",
") c #F4E700",
"_ c #F7E900",
"` c #FAEC00",
"' c #FBED00",
"] c #FCED00",
"[ c #FCEE00",
"{ c #FDF000",
"} c #FFF500",
/* pixels */
":::::::::::::::::::pshANv5,o. XXo,3cMCfs::::::::::::::::::::",
":::::::::::::::::agmb1;&rDPTy%EEYPDr&;1bmhp:::::::::::::::::",
":::::::::::::::anS5=wJQ([[{}Kq'{[{[`(QJw=4Bna:::::::::::::::",
"::::::::::::::gN5$uQ)[[[['[{H0)'''['[{{)Qu$5Bg::::::::::::::",
"::::::::::::sm3#D~[[[[`[''[{H0_''''''''[''~D#3za::::::::::::",
":::::::::::djot![[`[[[[`'[[{H0)'''''''''[[[[!r-kd:::::::::::",
"::::::::::g6#P){[`[``[`['''{H0)''''''''']]`[[)P#6n::::::::::",
":::::::::m19Q{['`[`[[`[`'''{H0)''''''''']][`[[[Q82Vp::::::::",
":::::::pm1e^{[''''''''''''[{Hq)'''''''''''''''[[^e2Vp:::::::",
":::::::m1t({''''''''''''''[{Hq)'''''''''''''''['[/t2V:::::::",
"::::::h1e([['''''''''''''''{H0)'''''''''''''''''[[(e3n::::::",
":::::fx8^['''''''''''''''''{H0)''''''''''''''''''[[^06h:::::",
"::::sk@Q{[''''''''''''''''[{H0)['''''''''''''''''''[Q#ls::::",
"::::m-P{'''''''''''''''''[[{H0)'''''''''''''''''''''[P-V::::",
":::f1t)[''''''''''''''''''[{H0)'''''''''''''''''''''[)t3f:::",
"::pz#!{'''''''''''''''''''[{H0)'''''''''''''''''''''[[!#M:::",
"::h2D[''''''''''''''''''''[{H0)[''''''''''''''''''''''[i2n::",
":pM$~'''''''''''''''''''''[{H0)['''''''''''''''''''''[[~$zp:",
":g4u[''''''''''''''''''''''{H0)'''''''''''''''''''''''[[u3f:",
":M*Q[''''''''''''''''''''''{H0)'''''''''''''''''''''''[[Q*mp",
"sbw)['['''''''''''''''''''[{H0)['''''''''''''''''''''''[)wba",
"h1H{'''''''''''''''''''''[[{H0)''''''''''''''''''''''''''H<h",
"A;!'''''''''''''''''''''''[{H0)''''''''''''''''''''''''''Q;A",
"B&('''''''''''''''''''''''[{H0)'''''''''''''''''''''''''[(&N",
"vr[[''''''''''''''''''''''[{H0)[''''''''''''''''''''''''['rx",
"3D[[''''''''''''''''''''''[{H0)[''''''''''''''''''''''''[[D3",
">P[['''''''''''''''''''''''{H0)'''''''''''''''''''''''''[{P,",
"oY{['''''''''''''''''''''''{H0)'''''''''''''''''''''''''[{Yo",
"XR[[''''''''''''''''''''''[{H0)[''''''''''''''''''''''''[[EX",
"X![['''''''''''''''''''''[[{H0)'''''''''''''''''''''''''[{QX",
"XQ{[''''''''''''''''''''''[{H0)[''''''''''''''''''''''''[[QX",
"XR['''''''''''''''''''''''[[H0)`''''''''''''''''''''''''''RX",
"oY'''''''''''''''''''''''''{H0)''''''''''''''''''''''''''{Yo",
">P{'''''''''''''''''''''''[{H0)''''''''''''''''''''''''''{P,",
"3D{['''''''''''''''''''''[[{G0)'''''''''''''''''''''''''[{D3",
"vr'['''''''''''''''''''''[[[YG_''''''''''''''''''''''''''[rc",
"B%/''''''''''''''''''''''''''`''''''''''''''''''''''''''[(&N",
"C;!{''''''''''''''''''''''''''''''''''''''''''''''''''''[Q;A",
"g<H[''''''''''''''''''''''''''''''''''''''''''''''''''''{H1g",
"sbw)'''''''''''''''''''''''''''''''''''''''''''''''''''[`0cs",
":m*Q{''''''''''''''''''''''''''''''''''''''''''''''''''{W*z:",
":f3u[''''''''''''''''''''''''''''''''''''''''''''''''''[u5h:",
":pm$~[''''''''''''''''''''''''''''''''''''''''''''''''[~#Mp:",
"::h1i['''''''''''''''''''''''''''''''''''''''''''''''''i2h::",
":::k#!{''''''''''''''''''''''''''''''''''''''''''''''{!#Mp::",
":::f<t)[''''''''''''''''''''''''''''''''''''''''''''{_r1f:::",
"::::zoP{''''''''''''''''''''''''''''''''''''''''''''{P=M::::",
"::::sj#Q''''''''''''''''''''''''''''''''''''''''''''!#Ms::::",
":::::d68^[[[[[[`[`[`[`[`''''''''''''''''[`[`[``[`[[^86h:::::",
"::::::h1e([[[``[`[`[`[`[''''''''''''''''`[`[`[[[[[(e3n::::::",
"::::::pn1t('`[[`[`[`[`[`''''''''''''''''[`[`[`[[[(t2Vp::::::",
":::::::pm1e^[[`[`[`[`[`[''''''''''''''''`[`[`[`[^e2V::::::::",
":::::::::m18Q[[[`[`[[`[`''''''''''''''''[`[`[[[Q82Vp::::::::",
"::::::::::h4#P)[[`[``[`['''''''''''''''''[`[[)P@6n::::::::::",
":::::::::::djOt![[[[[`[`''''''['''''''''[[[[!t+lf:::::::::::",
"::::::::::::az4#D~[[[[`[''''''[[''''''''{[~D#4ms::::::::::::",
"::::::::::::::fB5$uQ){[[[[['[['['[['''[_Qu$7Bgp:::::::::::::",
":::::::::::::::anS7*wJQ([[{[[[[[[{['/WHw*5Smp:::::::::::::::",
":::::::::::::::::pfVb1;&rDIYRQQRYPDr%;1bVgap::::::::::::::::",
"::::::::::::::::::::shANc3,oXXXXo>1cNAhs::::::::::::::::::::"
};
