/* XPM */
static char *UDFkb3du[] = {
/* columns rows colors chars-per-pixel */
"60 60 137 2 ",
"   c #161602",
".  c #1A1A00",
"X  c #121712",
"o  c #1C1B14",
"O  c #1B1B1E",
"+  c #1F2213",
"@  c #1C221B",
"#  c #2E2B00",
"$  c #26260D",
"%  c #2B2A0C",
"&  c #302E0A",
"*  c #353304",
"=  c #393600",
"-  c #3C3A05",
";  c #35350C",
":  c #383608",
">  c #3B3909",
",  c #232413",
"<  c #262810",
"1  c #24261D",
"2  c #25291C",
"3  c #2B2B1B",
"4  c #2F3111",
"5  c #161F24",
"6  c #001C3D",
"7  c #172125",
"8  c #1F2423",
"9  c #1D2629",
"0  c #06203F",
"q  c #162534",
"w  c #1C2934",
"e  c #1B2938",
"r  c #202522",
"t  c #292923",
"y  c #252B2D",
"u  c #2C2D2C",
"i  c #222B33",
"p  c #273039",
"a  c #323433",
"s  c #343639",
"d  c #363A3E",
"f  c #423F03",
"g  c #464303",
"h  c #494502",
"j  c #4E4B03",
"k  c #524D01",
"l  c #565203",
"z  c #5C5700",
"x  c #5F5A00",
"c  c #5C5C0B",
"v  c #615C00",
"b  c #5E6010",
"n  c #676100",
"m  c #6B6500",
"M  c #67680F",
"N  c #726C00",
"B  c #7B7300",
"V  c #7D7A08",
"C  c #072241",
"Z  c #0C2645",
"A  c #0F2847",
"S  c #0F2948",
"D  c #102742",
"F  c #122946",
"G  c #1D2F44",
"H  c #162D49",
"J  c #192F4A",
"K  c #1E3046",
"L  c #1C334D",
"P  c #1D3552",
"I  c #243245",
"U  c #293443",
"Y  c #25364B",
"T  c #283749",
"R  c #27394F",
"E  c #2C3B4D",
"W  c #313A46",
"Q  c #3B3F46",
"!  c #343F4C",
"~  c #233954",
"^  c #2A3C53",
"/  c #273E59",
"(  c #293F5A",
")  c #303F52",
"_  c #36404E",
"`  c #3C424C",
"'  c #2D435D",
"]  c #3A4552",
"[  c #3C495A",
"{  c #2F4560",
"}  c #344A62",
"|  c #3D4F64",
" . c #3E5167",
".. c #41454C",
"X. c #444950",
"o. c #425266",
"O. c #495666",
"+. c #4F5865",
"@. c #495769",
"#. c #4E5C6D",
"$. c #4D5E73",
"%. c #5C6673",
"&. c #546579",
"*. c #5E6A7A",
"=. c #837C00",
"-. c #878100",
";. c #8A8300",
":. c #948C00",
">. c #9B9300",
",. c #A49B00",
"<. c #ADA400",
"1. c #B6AC00",
"2. c #BEB400",
"3. c #C1B700",
"4. c #C5BB00",
"5. c #C9BE00",
"6. c #CDC200",
"7. c #D2C700",
"8. c #D5CA00",
"9. c #D9CE00",
"0. c #DED200",
"q. c #E2D600",
"w. c #E6D900",
"e. c #EADD00",
"r. c #EEE200",
"t. c #F0E300",
"y. c #F1E400",
"u. c #F4E700",
"i. c #F6E800",
"p. c #F8EB00",
"a. c #FAEC00",
"s. c #FBED00",
"d. c #FCED00",
"f. c #FDEE00",
"g. c #FDF000",
"h. c #FEF100",
"j. c #FFF100",
/* pixels */
"6 6 6 6 6 6 6 6 6 6 6 6 6 6 6 6 6 6 6 6 6 6 6 6 6 6 6 6 6 6 6 6 6 6 6 6 6 6 6 6 6 6 6 6 6 6 6 6 6 6 6 6 6 6 6 6 6 6 6 6 ",
"6 6 6 6 6 6 6 6 6 6 6 6 6 6 6 6 6 6 6 6 6 6 6 6 6 6 6 6 6 6 6 6 6 6 6 6 6 6 6 6 6 6 6 6 6 6 6 6 6 6 6 6 6 6 6 6 6 6 6 6 ",
"6 6 6 6 6 6 6 6 6 6 6 6 6 6 6 6 6 6 6 6 6 6 6 6 6 6 6 6 6 6 6 6 6 6 6 6 6 6 6 6 6 6 6 6 6 6 6 6 6 6 6 6 6 6 6 6 6 6 6 6 ",
"6 6 6 6 6 6 6 6 6 6 6 6 6 6 6 6 6 6 6 6 6 6 6 6 6 6 6 6 6 6 6 6 6 6 6 6 6 6 6 6 6 6 6 6 6 6 6 6 6 6 6 6 6 6 6 6 6 6 6 6 ",
"6 6 6 6 6 6 6 6 6 6 6 6 6 6 6 6 6 6 6 6 6 6 6 6 6 6 6 6 6 6 6 6 6 6 6 6 6 6 6 6 6 6 6 6 6 6 6 6 6 6 6 6 6 6 6 6 6 6 6 6 ",
"6 6 6 6 6 6 6 6 6 6 6 6 6 6 6 6 6 6 6 6 6 6 6 6 6 6 6 6 6 6 6 6 6 6 6 6 6 6 6 6 6 6 6 6 6 6 6 6 6 6 6 6 6 6 6 6 6 6 6 6 ",
"6 6 6 6 6 6 6 6 6 6 6 6 6 6 6 6 6 6 6 6 6 6 6 6 6 Z ~ ^ ^ R R Y H C 6 6 6 6 6 6 6 6 6 6 6 6 6 6 6 6 6 6 6 6 6 6 6 6 6 6 ",
"6 6 6 6 6 6 6 6 6 6 6 6 6 6 6 6 6 6 6 6 6 A Y i 2 ; j v N B N N x l ; r q D 6 6 6 6 6 6 6 6 6 6 6 6 6 6 6 6 6 6 6 6 6 6 ",
"6 6 6 6 6 6 6 6 6 6 6 6 6 6 6 6 6 6 6 I 1 h V <.8.e.i.f.f.f.f.f.a.i.e.7.<.B g r H 6 6 6 6 6 6 6 6 6 6 6 6 6 6 6 6 6 6 6 ",
"6 6 6 6 6 6 6 6 6 6 6 6 6 6 6 6 6 i > =.6.y.f.h.f.f.a.a.a.a.a.f.a.a.h.h.h.h.r.5.=.; w F 6 6 6 6 6 6 6 6 6 6 6 6 6 6 6 6 ",
"6 6 6 6 6 6 6 6 6 6 6 6 6 6 6 i h ,.e.h.h.a.a.h.a.a.a.f.a.a.a.f.h.a.a.a.f.f.h.h.h.w.>.g w 6 6 6 6 6 6 6 6 6 6 6 6 6 6 6 ",
"6 6 6 6 6 6 6 6 6 6 6 6 6 U * >.r.h.f.a.f.a.a.f.f.f.f.a.f.f.a.a.a.a.f.a.a.a.a.a.a.f.h.e.:.; I 6 6 6 6 6 6 6 6 6 6 6 6 6 ",
"6 6 6 6 6 6 6 6 6 6 6 C 1 m 0.h.f.a.f.a.a.a.h.a.a.a.a.a.a.a.a.a.a.a.f.h.h.a.a.a.a.a.f.f.h.9.n r 6 6 6 6 6 6 6 6 6 6 6 6 ",
"6 6 6 6 6 6 6 6 6 6 ) % ,.i.h.a.a.a.f.a.f.a.a.a.f.a.h.f.a.h.a.f.a.h.a.a.a.a.f.a.f.a.a.a.a.h.i.>.$ L 6 6 6 6 6 6 6 6 6 6 ",
"6 6 6 6 6 6 6 6 6 ! - 4.f.f.a.a.a.h.a.a.a.a.f.a.a.a.a.a.a.f.a.h.a.a.a.h.a.a.a.h.a.a.a.f.a.a.f.h.3.* ^ 6 6 6 6 6 6 6 6 6 ",
"6 6 6 6 6 6 6 6 ! h 9.f.a.a.a.f.a.a.a.f.h.a.a.a.a.h.a.h.a.a.a.a.f.a.a.a.a.f.a.f.a.h.a.a.f.a.a.a.f.7.f Y 6 6 6 6 6 6 6 6 ",
"6 6 6 6 6 6 6 _ g 0.h.h.a.a.a.a.a.a.h.a.a.a.h.a.f.a.f.a.a.a.a.f.a.a.a.a.h.a.h.a.a.a.a.h.f.a.a.a.a.h.9.f R 6 6 6 6 6 6 6 ",
"6 6 6 6 6 6 [ - 8.h.a.a.f.a.h.f.f.a.a.a.f.a.a.a.h.a.a.a.h.a.a.a.h.a.f.a.a.a.a.a.a.f.a.a.a.a.h.a.f.a.h.7.* J 6 6 6 6 6 6 ",
"6 6 6 6 6 o.% 4.h.f.f.a.a.a.a.a.a.a.f.a.a.a.f.a.a.f.a.a.a.a.h.a.f.a.h.a.f.h.a.f.a.a.a.f.h.a.a.a.a.a.a.h.2., C 6 6 6 6 6 ",
"6 6 6 6 L , ,.f.a.a.a.a.a.h.a.h.f.a.h.a.h.a.a.a.a.a.a.h.h.f.a.a.a.a.a.a.a.a.a.a.a.h.a.a.a.a.f.a.a.f.f.a.f.>.r 6 6 6 6 6 ",
"6 6 6 0 ` m a.f.f.f.a.a.a.a.a.a.a.a.a.a.h.a.h.a.a.f.a.h.a.f.a.a.a.h.a.f.a.a.a.f.f.a.f.a.a.h.a.h.a.a.f.a.f.u.v G 6 6 6 6 ",
"6 6 6 @.* 0.f.f.a.a.a.f.h.a.f.a.a.h.f.a.a.a.a.a.a.a.a.a.a.a.a.h.a.f.a.a.a.h.a.a.h.a.a.a.a.a.a.f.f.a.f.a.a.f.8.% 6 6 6 6 ",
"6 6 P u >.h.a.a.a.f.a.h.f.a.h.a.a.a.a.a.f.h.a.f.h.a.f.a.a.a.f.a.a.a.a.a.f.a.a.a.a.f.a.a.a.a.h.a.a.h.a.a.a.f.a.:.w 6 6 6 ",
"6 6 O.f e.h.a.h.a.a.a.a.a.a.a.a.a.f.h.a.a.a.a.a.a.a.a.a.f.h.y.w.h.a.f.a.h.a.h.a.a.a.a.h.f.a.a.a.a.a.a.f.a.f.a.e.: 6 6 6 ",
"6 ~ u >.h.f.a.a.f.a.a.a.a.f.a.f.a.a.a.a.a.h.f.a.f.a.f.a.f.a.=.= 4.f.a.f.a.a.f.a.a.a.a.f.h.a.a.a.a.f.a.f.a.a.a.h.>.e 6 6 ",
"6 #.- e.a.a.a.h.a.a.h.a.a.a.a.a.f.a.h.f.a.a.a.a.h.a.a.h.a.;.t X.& 2.f.a.a.f.a.a.a.h.a.a.a.a.f.a.a.a.a.a.a.h.a.h.q.4 6 6 ",
"C ..=.f.a.h.a.a.h.a.a.a.h.a.f.h.a.a.a.a.a.f.h.a.a.a.h.a.:., *.Z +.% 1.h.a.a.f.f.f.a.a.a.a.a.a.h.h.a.f.h.a.a.a.f.f.B 6 6 ",
"$.3 5.f.a.a.a.f.a.a.f.a.a.a.a.a.a.h.a.h.a.a.a.a.a.f.a.:., o.6 6 6 [ $ <.h.a.a.a.h.a.h.a.a.f.a.f.a.a.a.a.f.f.a.a.f.3.9 6 ",
"%.g y.f.a.a.h.a.a.a.f.h.h.a.a.a.a.a.a.h.a.a.f.f.a.f.,., ' 6 6 6 6 6 P , ,.f.h.a.a.f.a.a.a.a.h.a.a.a.a.a.a.a.a.a.f.r.> 6 ",
"` B h.a.f.a.a.a.a.h.a.a.a.a.f.a.a.f.a.a.f.a.a.a.h.,.O A 6 6 6 6 6 6 6 6 @ :.a.a.a.a.a.h.f.a.a.a.f.a.h.f.a.h.a.f.a.f.N C ",
"o <.h.f.a.a.f.a.a.a.a.h.a.a.a.h.a.a.a.f.f.a.a.a.<., A 6 6 6 6 6 6 6 6 6 6 @ V d.f.a.a.a.a.a.f.a.a.a.a.a.a.f.a.h.a.h.,.5 ",
". 7.h.a.f.a.h.a.f.a.a.a.a.f.a.f.a.h.a.a.a.a.h.1.+ C 6 6 6 6 6 6 6 6 6 6 6 6 7 M u.h.a.f.h.a.a.a.a.h.a.h.a.a.a.a.a.h.6.  ",
"= w.a.a.a.a.a.a.h.a.h.a.a.a.a.h.a.f.a.a.a.h.1.< F 6 6 6 6 6 6 6 6 6 6 6 6 6 6 5 b y.f.f.a.a.f.a.a.a.h.a.f.a.f.a.a.h.q.# ",
"k y.h.a.h.a.f.a.a.a.a.a.a.f.a.a.a.f.a.h.h.2., F 6 6 6 6 6 6 6 6 6 6 6 6 6 6 6 6 q c y.f.f.a.f.a.f.a.a.a.h.a.a.a.h.a.r.h ",
"m a.a.a.f.a.h.a.f.h.a.f.a.a.a.f.a.a.f.h.3.% H 6 6 6 6 6 6 6 6 6 6 6 6 6 6 6 6 6 6 w c t.f.a.a.a.a.a.f.a.a.f.a.a.f.a.i.v ",
"B a.f.a.a.a.a.a.a.a.a.a.a.h.a.a.f.a.f.5.; L 6 6 6 6 6 6 6 6 6 6 6 6 6 6 6 6 6 6 6 6 i l e.h.a.f.h.a.a.a.a.a.a.h.a.a.a.N ",
";.h.a.a.a.f.a.f.a.a.a.a.f.h.a.a.f.h.6.* Y 6 6 6 6 6 6 6 6 6 6 6 6 6 6 6 6 6 6 6 6 6 6 p l w.h.a.a.f.a.a.f.a.h.a.a.f.a.B ",
"-.f.h.a.a.a.a.a.h.f.a.h.a.a.f.a.f.7.: E 6 6 6 6 6 6 6 6 6 6 6 6 6 6 6 6 6 6 6 6 6 6 6 6 U k q.h.a.f.a.h.a.a.a.a.a.a.a.B ",
"B a.a.a.h.a.f.h.a.a.a.a.f.a.a.h.8.- ! 6 6 6 6 6 6 6 6 6 6 6 6 6 6 6 6 6 6 6 6 6 6 6 6 6 6 W h 9.h.a.a.f.a.h.a.f.h.a.a.N ",
"m u.a.f.a.a.a.a.f.a.f.a.a.a.h.9.g ! 6 6 6 6 6 6 6 6 6 6 6 6 6 6 6 6 6 6 6 6 6 6 6 6 6 6 6 6 ! g 8.h.a.a.a.a.a.a.a.a.u.z ",
"j y.f.a.f.a.h.a.a.a.f.a.a.h.0.h ` 6 6 6 6 6 6 6 6 6 6 6 6 6 6 6 6 6 6 6 6 6 6 6 6 6 6 6 6 6 6 ` = 6.h.a.f.a.a.h.f.f.e.f ",
"= w.f.a.a.a.a.a.a.h.a.a.h.q.j ..6 6 6 6 6 6 6 6 6 6 6 6 6 6 6 6 6 6 6 6 6 6 6 6 6 6 6 6 6 6 6 6 ] = 5.h.f.a.a.f.a.f.q.# ",
". 6.h.f.a.h.a.f.a.a.a.h.w.k Q 6 6 6 6 6 6 6 6 6 6 6 6 6 6 6 6 6 6 6 6 6 6 6 6 6 6 6 6 6 6 6 6 6 6 [ % 3.h.a.a.a.a.h.4.  ",
"o <.h.a.a.a.a.a.a.f.h.e.l d 0 6 6 6 6 6 6 6 6 6 6 6 6 6 6 6 6 6 6 6 6 6 6 6 6 6 6 6 6 6 6 6 6 6 6 6 [ % 1.h.f.a.f.h.,.8 ",
"` N h.a.a.a.f.h.f.f.e.x s ~ 6 6 6 6 6 6 6 6 6 6 6 6 6 6 6 6 6 6 6 6 6 6 6 6 6 6 6 6 6 6 6 6 6 6 6 6 6 ^ , <.f.a.a.a.m ! ",
"%.g r.a.f.a.a.a.f.t.v a / 6 6 6 6 6 6 6 6 6 6 6 6 6 6 6 6 6 6 6 6 6 6 6 6 6 6 6 6 6 6 6 6 6 6 6 6 6 6 6 J , ,.f.f.e.; H ",
"&.t 4.h.f.a.f.f.t.m a ' 6 6 6 6 6 6 6 6 6 6 6 6 6 6 6 6 6 6 6 6 6 6 6 6 6 6 6 6 6 6 6 6 6 6 6 6 6 6 6 6 6 6 @ >.a.2.y 6 ",
"P X.B f.a.a.f.y.N u } 6 6 6 6 6 6 6 6 6 6 6 6 6 6 6 6 6 6 6 6 6 6 6 6 6 6 6 6 6 6 6 6 6 6 6 6 6 6 6 6 6 6 6 6 @ :.m E 6 ",
"6 *.> q.f.h.y.B u | 6 6 6 6 6 6 6 6 6 6 6 6 6 6 6 6 6 6 6 6 6 6 6 6 6 6 6 6 6 6 6 6 6 6 6 6 6 6 6 6 6 6 6 6 6 6 5 X 6 6 ",
"6 } a >.h.i.B t  .6 6 6 6 6 6 6 6 6 6 6 6 6 6 6 6 6 6 6 6 6 6 6 6 6 6 6 6 6 6 6 6 6 6 6 6 6 6 6 6 6 6 6 6 6 6 6 6 G 6 6 ",
"6 0 %.- w.=.2  .6 6 6 6 6 6 6 6 6 6 6 6 6 6 6 6 6 6 6 6 6 6 6 6 6 6 6 6 6 6 6 6 6 6 6 6 6 6 6 6 6 6 6 6 6 6 6 6 6 6 6 6 ",
"6 6 { a f 1  .0 6 6 6 6 6 6 6 6 6 6 6 6 6 6 6 6 6 6 6 6 6 6 6 6 6 6 6 6 6 6 6 6 6 6 6 6 6 6 6 6 6 6 6 6 6 6 6 6 6 6 6 6 ",
"6 6 6 o.O | 6 6 6 6 6 6 6 6 6 6 6 6 6 6 6 6 6 6 6 6 6 6 6 6 6 6 6 6 6 6 6 6 6 6 6 6 6 6 6 6 6 6 6 6 6 6 6 6 6 6 6 6 6 6 ",
"6 6 6 S ( 6 6 6 6 6 6 6 6 6 6 6 6 6 6 6 6 6 6 6 6 6 6 6 6 6 6 6 6 6 6 6 6 6 6 6 6 6 6 6 6 6 6 6 6 6 6 6 6 6 6 6 6 6 6 6 ",
"6 6 6 6 6 6 6 6 6 6 6 6 6 6 6 6 6 6 6 6 6 6 6 6 6 6 6 6 6 6 6 6 6 6 6 6 6 6 6 6 6 6 6 6 6 6 6 6 6 6 6 6 6 6 6 6 6 6 6 6 ",
"6 6 6 6 6 6 6 6 6 6 6 6 6 6 6 6 6 6 6 6 6 6 6 6 6 6 6 6 6 6 6 6 6 6 6 6 6 6 6 6 6 6 6 6 6 6 6 6 6 6 6 6 6 6 6 6 6 6 6 6 ",
"6 6 6 6 6 6 6 6 6 6 6 6 6 6 6 6 6 6 6 6 6 6 6 6 6 6 6 6 6 6 6 6 6 6 6 6 6 6 6 6 6 6 6 6 6 6 6 6 6 6 6 6 6 6 6 6 6 6 6 6 ",
"6 6 6 6 6 6 6 6 6 6 6 6 6 6 6 6 6 6 6 6 6 6 6 6 6 6 6 6 6 6 6 6 6 6 6 6 6 6 6 6 6 6 6 6 6 6 6 6 6 6 6 6 6 6 6 6 6 6 6 6 ",
"6 6 6 6 6 6 6 6 6 6 6 6 6 6 6 6 6 6 6 6 6 6 6 6 6 6 6 6 6 6 6 6 6 6 6 6 6 6 6 6 6 6 6 6 6 6 6 6 6 6 6 6 6 6 6 6 6 6 6 6 ",
"6 6 6 6 6 6 6 6 6 6 6 6 6 6 6 6 6 6 6 6 6 6 6 6 6 6 6 6 6 6 6 6 6 6 6 6 6 6 6 6 6 6 6 6 6 6 6 6 6 6 6 6 6 6 6 6 6 6 6 6 "
};
