/* XPM */
static char *UDFsZWZ0[] = {
/* columns rows colors chars-per-pixel */
"60 60 140 2 ",
"   c #161602",
".  c #1A1A00",
"X  c #121712",
"o  c #1C1B14",
"O  c #1B1B1E",
"+  c #1F2213",
"@  c #1C221B",
"#  c #2E2B00",
"$  c #26260D",
"%  c #2B2A0C",
"&  c #302E0A",
"*  c #353304",
"=  c #393600",
"-  c #3C3A05",
";  c #35350C",
":  c #383608",
">  c #3B3909",
",  c #232413",
"<  c #262810",
"1  c #24261D",
"2  c #25291C",
"3  c #2B2B1B",
"4  c #2F3111",
"5  c #161F24",
"6  c #001C3D",
"7  c #172125",
"8  c #1F2423",
"9  c #16202A",
"0  c #1D2629",
"q  c #06203F",
"w  c #162534",
"e  c #1C2934",
"r  c #1B2938",
"t  c #202522",
"y  c #292923",
"u  c #252B2D",
"i  c #2C2D2C",
"p  c #222B33",
"a  c #273039",
"s  c #323433",
"d  c #343639",
"f  c #363A3E",
"g  c #423F03",
"h  c #464303",
"j  c #494502",
"k  c #4E4B03",
"l  c #524D01",
"z  c #565203",
"x  c #5C5700",
"c  c #5F5A00",
"v  c #5C5C0B",
"b  c #615C00",
"n  c #5E6010",
"m  c #676100",
"M  c #6B6500",
"N  c #67680F",
"B  c #726C00",
"V  c #7B7300",
"C  c #7D7A08",
"Z  c #072241",
"A  c #0F2847",
"S  c #0F2948",
"D  c #102742",
"F  c #122946",
"G  c #1D2F44",
"H  c #162D49",
"J  c #192F4A",
"K  c #1E3046",
"L  c #1D334D",
"P  c #1D3552",
"I  c #243245",
"U  c #293443",
"Y  c #25364B",
"T  c #283749",
"R  c #27394F",
"E  c #2C3B4D",
"W  c #313A46",
"Q  c #343F4C",
"!  c #233954",
"~  c #2A3C53",
"^  c #273E59",
"/  c #293F5A",
"(  c #303F52",
")  c #36404E",
"_  c #3C424C",
"`  c #2D435D",
"'  c #3A4552",
"]  c #34455A",
"[  c #3C495A",
"{  c #2F4560",
"}  c #344A62",
"|  c #3D4F64",
" . c #3E5167",
".. c #41454C",
"X. c #444950",
"o. c #425266",
"O. c #495666",
"+. c #4F5865",
"@. c #495769",
"#. c #4E5C6D",
"$. c #4D5E73",
"%. c #5C6673",
"&. c #546579",
"*. c #5E6A7A",
"=. c #837C00",
"-. c #878100",
";. c #8A8300",
":. c #948C00",
">. c #9B9300",
",. c #A49B00",
"<. c #ADA400",
"1. c #B6AC00",
"2. c #BEB400",
"3. c #C1B700",
"4. c #C5BB00",
"5. c #C9BE00",
"6. c #CDC200",
"7. c #D2C700",
"8. c #D5CA00",
"9. c #D9CE00",
"0. c #DED200",
"q. c #E2D600",
"w. c #E6D900",
"e. c #EADD00",
"r. c #EEE100",
"t. c #EFE200",
"y. c #F0E300",
"u. c #F2E600",
"i. c #F4E600",
"p. c #F4E700",
"a. c #F6E800",
"s. c #F6E900",
"d. c #F7E900",
"f. c #F8EB00",
"g. c #FBED00",
"h. c #FDEE00",
"j. c #FEEF00",
"k. c #FDF000",
"l. c #FEF000",
"z. c #FFF100",
/* pixels */
"6 6 6 6 6 6 6 6 6 6 6 6 P &.%._ o . * l M V -.-.V M l = . o _ %.$.Z 6 6 6 6 6 6 6 6 6 6 6 6 6 6 6 6 6 6 6 6 6 6 6 6 6 6 ",
"6 6 6 6 6 6 6 6 6 q } *.X.3 h B <.6.w.u.s.g.h.h.g.g.u.w.7.<.V h 3 ..#.P 6 6 6 6 6 6 6 6 6 6 6 6 6 6 6 6 6 6 6 6 6 6 6 6 ",
"6 6 6 6 6 6 6 6 { %.s : V 4.r.h.z.h.g.g.g.g.g.g.g.g.g.g.z.z.h.r.4.=.> i O.P 6 6 6 6 6 6 6 6 6 6 6 6 6 6 6 6 6 6 6 6 6 6 ",
"6 6 6 6 6 6 F o.s - >.q.z.z.g.g.g.g.g.g.g.g.g.g.g.g.g.g.g.g.h.h.z.z.e.>.h i @.6 6 6 6 6 6 6 6 6 6 6 6 6 6 6 6 6 6 6 6 6 ",
"6 6 6 6 6 6 / O g q.z.h.g.g.g.g.g.g.g.g.g.g.g.g.g.g.g.g.g.g.g.g.g.g.h.z.e.>.* _ Y 6 6 6 6 6 6 6 6 6 6 6 6 6 6 6 6 6 6 6 ",
"6 6 6 6 6 6 6 | 2 =.s.h.g.g.g.g.g.g.g.g.g.g.g.g.g.g.g.g.g.g.g.g.g.g.g.g.h.z.0.M 2  .6 6 6 6 6 6 6 6 6 6 6 6 6 6 6 6 6 6 ",
"6 6 6 6 6 6 6 6  .y =.s.h.g.g.g.g.g.g.g.g.g.g.g.g.g.g.g.g.g.g.g.g.g.g.g.g.g.h.s.,.% [ 6 6 6 6 6 6 6 6 6 6 6 6 6 6 6 6 6 ",
"6 6 6 6 6 6 6 6 6  .y B u.h.g.g.g.g.g.g.g.g.g.g.g.g.g.g.g.g.g.g.g.g.g.g.g.g.g.h.h.4.- Q 6 6 6 6 6 6 6 6 6 6 6 6 6 6 6 6 ",
"6 6 6 6 6 6 6 6 6 6  .i B r.h.h.g.g.g.g.g.g.g.g.g.g.g.g.g.g.g.g.g.g.g.g.g.g.g.g.h.h.8.h Q 6 6 6 6 6 6 6 6 6 6 6 6 6 6 6 ",
"6 6 6 6 6 6 6 6 6 6 6 | i M r.h.g.g.g.g.g.g.g.g.g.g.g.g.g.g.g.g.g.g.g.g.g.g.g.g.g.h.h.q.j ( 6 6 6 6 6 6 6 6 6 6 6 6 6 6 ",
"6 6 6 6 6 6 6 6 6 6 6 6 } s b e.g.g.g.g.g.g.g.g.g.g.g.g.g.g.g.g.g.g.g.g.g.g.g.g.g.g.f.h.9.- ( 6 6 6 6 6 6 6 6 6 6 6 6 6 ",
"6 6 6 6 6 6 6 6 6 6 6 6 6 ` s b e.h.g.g.g.g.g.g.g.g.g.g.g.g.g.g.g.g.g.g.g.g.g.g.g.g.h.h.h.4.% Z 6 6 6 6 6 6 6 6 6 6 6 6 ",
"6 6 6 6 6 6 6 6 6 6 6 6 6 6 ^ d z w.h.g.g.g.g.g.g.g.g.g.g.g.g.g.g.g.g.g.g.g.g.g.g.g.g.g.g.z.,.t 6 6 6 6 6 6 6 6 6 6 6 6 ",
"6 6 6 6 6 6 6 6 6 6 6 6 6 6 6 ! f z q.h.g.g.g.g.g.g.g.g.g.g.g.g.g.g.g.g.g.g.g.g.g.g.g.g.g.g.s.M U 6 6 6 6 6 6 6 6 6 6 6 ",
"6 6 6 6 6 6 6 6 6 6 6 6 6 6 6 6 q _ k 0.z.g.g.g.g.g.g.g.g.g.g.g.g.g.g.g.g.g.g.g.g.g.g.g.g.g.h.0.* 6 6 6 6 6 6 6 6 6 6 6 ",
"6 6 6 6 6 6 6 6 6 6 6 6 6 6 6 6 6 6 _ h 9.z.g.g.g.g.g.g.g.g.g.g.g.g.g.g.g.g.g.g.g.g.g.g.g.g.h.h.>.u 6 6 6 6 6 6 6 6 6 6 ",
"6 6 6 6 6 6 6 6 6 6 6 6 6 6 6 6 6 6 6 _ h 8.z.g.g.g.g.g.g.g.g.g.g.g.g.g.g.g.g.g.g.g.g.g.g.g.g.g.r.h q 6 6 6 6 6 6 6 6 6 ",
"6 6 6 6 6 6 6 6 6 6 6 6 6 6 6 6 6 6 6 6 ) - 7.h.g.g.g.g.g.g.g.g.g.g.g.g.g.g.g.g.g.g.g.g.g.g.g.g.z.,.p 6 6 6 6 6 6 6 6 6 ",
"6 6 6 6 6 6 6 6 6 6 6 6 6 6 6 6 6 6 6 6 6 Q : 6.z.g.g.g.g.g.g.g.g.g.g.g.g.g.g.g.g.g.g.g.g.g.g.g.g.e.> 6 6 6 6 6 6 6 6 6 ",
"6 6 6 6 6 6 6 6 6 6 6 6 6 6 6 6 6 6 6 6 6 6 E * 5.z.g.g.g.g.g.g.g.g.g.g.g.g.g.g.g.g.g.g.g.g.g.g.g.z.=.I 6 6 6 6 6 6 6 6 ",
"6 6 6 6 6 6 6 6 6 6 6 6 6 6 6 6 6 6 6 6 6 6 6 R % 4.z.g.g.g.g.g.g.g.g.g.g.g.g.g.g.g.g.g.g.g.g.g.g.z.6.1 6 6 6 6 6 6 6 6 ",
"6 6 6 6 6 6 6 6 6 6 6 6 6 6 6 6 6 6 6 6 6 6 6 6 L % 2.h.g.g.g.g.g.g.g.g.g.g.g.g.g.g.g.g.g.g.g.g.g.g.r.h A 6 6 6 6 6 6 6 ",
"6 6 6 6 6 6 6 6 6 6 6 6 6 6 6 6 6 6 6 6 6 6 6 6 6 H $ 1.z.g.g.g.g.g.g.g.g.g.g.g.g.g.g.g.g.g.g.g.g.z.z.V T 6 6 6 6 6 6 6 ",
"6 6 6 6 6 6 6 6 6 6 6 6 6 6 6 6 6 6 6 6 6 6 6 6 6 6 A < 1.g.g.g.g.g.g.g.g.g.g.g.g.g.g.g.g.g.g.g.g.z.z.<.p 6 6 6 6 6 6 6 ",
"6 6 6 6 6 6 6 6 6 6 6 6 6 6 6 6 6 6 6 6 6 6 6 6 6 6 6 F + <.z.g.g.g.g.g.g.g.g.g.g.g.g.g.g.g.g.g.g.g.z.7.2 6 6 6 6 6 6 6 ",
"6 6 6 6 6 6 6 6 6 6 6 6 6 6 6 6 6 6 6 6 6 6 6 6 6 6 6 6 q + ,.z.g.g.g.g.g.g.g.g.g.g.g.g.g.g.g.g.g.g.g.e.; A 6 6 6 6 6 6 ",
"6 6 6 6 6 6 6 6 6 6 6 6 6 6 6 6 6 6 6 6 6 6 6 6 6 6 6 6 6 A + ,.g.h.g.h.g.g.g.g.g.g.g.g.g.g.g.g.g.g.g.s.k ! 6 6 6 6 6 6 ",
"6 6 6 6 6 6 6 6 6 6 6 6 6 6 6 6 6 6 6 6 6 6 6 6 6 6 6 6 6 6 A @ :.h.h.h.g.g.g.g.g.g.g.g.g.g.g.g.g.g.g.g.b ~ 6 6 6 6 6 6 ",
"6 6 6 6 6 6 6 6 6 6 6 6 6 6 6 6 6 6 6 6 6 6 6 6 6 6 6 6 6 6 6 ] , :.s.h.g.g.g.g.g.g.g.g.g.g.g.g.g.g.g.h.B ~ 6 6 6 6 6 6 ",
"6 6 6 6 6 6 6 6 6 6 6 6 6 6 6 6 6 6 6 6 6 6 6 6 6 6 6 6 6 6 6 6  ., ;.f.h.g.g.g.g.g.g.g.g.g.g.g.g.g.g.h.V ~ 6 6 6 6 6 6 ",
"6 6 6 6 6 6 6 6 6 6 6 6 6 6 6 6 6 6 6 6 6 6 6 6 6 6 6 6 6 6 6 6 6 *.y =.p.h.g.g.g.g.g.g.g.g.g.g.g.g.g.h.B R 6 6 6 6 6 6 ",
"6 6 6 6 6 6 6 6 6 6 6 6 6 6 6 6 6 6 6 6 6 6 6 6 6 6 6 6 6 6 6 6 6 S ..= w.g.g.g.g.g.g.g.g.g.g.g.g.g.g.h.B Y 6 6 6 6 6 6 ",
"6 6 6 6 6 6 6 6 6 6 6 6 6 6 6 6 6 6 6 6 6 6 6 6 6 6 6 6 6 6 6 6 6 +.& 4.h.g.g.g.g.g.g.g.g.g.g.g.g.g.g.g.c H 6 6 6 6 6 6 ",
"6 6 6 6 6 6 6 6 6 6 6 6 6 6 6 6 6 6 6 6 6 6 6 6 6 6 6 6 6 6 6 6 [ % 2.z.g.g.g.g.g.g.g.g.g.g.g.g.g.g.g.s.k 6 6 6 6 6 6 6 ",
"6 6 6 6 6 6 6 6 6 6 6 6 6 6 6 6 6 6 6 6 6 6 6 6 6 6 6 6 6 6 6 P $ 1.h.g.g.g.g.g.g.g.g.g.g.g.g.g.g.g.z.e.; 6 6 6 6 6 6 6 ",
"6 6 6 6 6 6 6 6 6 6 6 6 6 6 6 6 6 6 6 6 6 6 6 6 6 6 6 6 6 6 6 , <.h.g.g.g.g.g.g.g.g.g.g.g.g.g.g.g.g.h.7.t Z 6 6 6 6 6 6 ",
"6 6 6 6 6 6 6 6 6 6 6 6 6 6 6 6 6 6 6 6 6 6 6 6 6 6 6 6 6 6 @ ,.h.g.g.g.g.g.g.g.g.g.g.g.g.g.g.g.g.g.z.<.w 6 6 6 6 6 6 6 ",
"6 6 6 6 6 6 6 6 6 6 6 6 6 6 6 6 6 6 6 6 6 6 6 6 6 6 6 6 6 @ :.g.g.g.g.g.g.g.g.g.g.g.g.g.g.g.g.g.g.g.z.V D 6 6 6 6 6 6 6 ",
"6 6 6 6 6 6 6 6 6 6 6 6 6 6 6 6 6 6 6 6 6 6 6 6 6 6 6 6 7 C g.g.g.g.g.g.g.g.g.g.g.g.g.g.g.g.g.g.g.g.y.j 6 6 6 6 6 6 6 6 ",
"6 6 6 6 6 6 6 6 6 6 6 6 6 6 6 6 6 6 6 6 6 6 6 6 6 6 6 9 N f.h.g.g.g.g.g.g.g.g.g.g.g.g.g.g.g.g.g.g.z.5.t 6 6 6 6 6 6 6 6 ",
"6 6 6 6 6 6 6 6 6 6 6 6 6 6 6 6 6 6 6 6 6 6 6 6 6 6 w n s.g.g.g.g.g.g.g.g.g.g.g.g.g.g.g.g.g.g.g.h.z.=.F 6 6 6 6 6 6 6 6 ",
"6 6 6 6 6 6 6 6 6 6 6 6 6 6 6 6 6 6 6 6 6 6 6 6 6 e v u.z.g.g.g.g.g.g.g.g.g.g.g.g.g.g.g.g.g.g.g.z.w.; 6 6 6 6 6 6 6 6 6 ",
"6 6 6 6 6 6 6 6 6 6 6 6 6 6 6 6 6 6 6 6 6 6 6 6 p v u.g.g.g.g.g.g.g.g.g.g.g.g.g.g.g.g.g.g.g.g.g.z.>.r 6 6 6 6 6 6 6 6 6 ",
"6 6 6 6 6 6 6 6 6 6 6 6 6 6 6 6 6 6 6 6 6 6 6 a z r.h.g.g.g.g.g.g.g.g.g.g.g.g.g.g.g.g.g.g.g.g.g.e.g F 6 6 6 6 6 6 6 6 6 ",
"6 6 6 6 6 6 6 6 6 6 6 6 6 6 6 6 6 6 6 6 6 6 U z e.h.g.g.g.g.g.g.g.g.g.g.g.g.g.g.g.g.g.g.g.g.g.z.:.e 6 6 6 6 6 6 6 6 6 6 ",
"6 6 6 6 6 6 6 6 6 6 6 6 6 6 6 6 6 6 6 6 6 W l w.z.g.g.g.g.g.g.g.g.g.g.g.g.g.g.g.g.g.g.g.g.g.h.9.& 6 6 6 6 6 6 6 6 6 6 6 ",
"6 6 6 6 6 6 6 6 6 6 6 6 6 6 6 6 6 6 6 6 Q j 0.z.g.g.g.g.g.g.g.g.g.g.g.g.g.g.g.g.g.g.g.g.g.g.s.m I 6 6 6 6 6 6 6 6 6 6 6 ",
"6 6 6 6 6 6 6 6 6 6 6 6 6 6 6 6 6 6 6 _ g 9.z.g.g.g.g.g.g.g.g.g.g.g.g.g.g.g.g.g.g.g.g.g.g.z.>.8 6 6 6 6 6 6 6 6 6 6 6 6 ",
"6 6 6 6 6 6 6 6 6 6 6 6 6 6 6 6 6 6 ' - 8.z.g.g.g.g.g.g.g.g.g.g.g.g.g.g.g.g.g.g.g.g.g.g.h.3.$ 6 6 6 6 6 6 6 6 6 6 6 6 6 ",
"6 6 6 6 6 6 6 6 6 6 6 6 6 6 6 6 6 [ * 6.h.g.g.g.g.g.g.g.g.g.g.g.g.g.g.g.g.g.g.g.g.g.g.z.7.* L 6 6 6 6 6 6 6 6 6 6 6 6 6 ",
"6 6 6 6 6 6 6 6 6 6 6 6 6 6 6 6 ' * 4.z.g.g.g.g.g.g.g.g.g.g.g.g.g.g.g.g.g.g.g.g.g.g.h.9.h Y 6 6 6 6 6 6 6 6 6 6 6 6 6 6 ",
"6 6 6 6 6 6 6 6 6 6 6 6 6 6 6 ~ < 2.z.g.g.g.g.g.g.g.g.g.g.g.g.g.g.g.g.g.g.g.g.g.g.z.7.g Y 6 6 6 6 6 6 6 6 6 6 6 6 6 6 6 ",
"6 6 6 6 6 6 6 6 6 6 6 6 6 6 H < 1.z.g.g.g.g.g.g.g.g.g.g.g.g.g.g.g.g.g.g.g.g.g.h.z.3.* R 6 6 6 6 6 6 6 6 6 6 6 6 6 6 6 6 ",
"6 6 6 6 6 6 6 6 6 6 6 6 6 6 + <.h.g.g.g.g.g.g.g.g.g.g.g.g.g.g.g.g.g.g.g.g.g.z.p.:.< J 6 6 6 6 6 6 6 6 6 6 6 6 6 6 6 6 6 ",
"6 6 6 6 6 6 6 6 6 6 6 6 6 @ ,.z.g.g.g.g.g.g.g.g.g.g.g.g.g.g.g.g.g.g.g.g.g.g.8.b 8 6 6 6 6 6 6 6 6 6 6 6 6 6 6 6 6 6 6 6 ",
"6 6 6 6 6 6 6 6 6 6 6 6 8 >.h.g.g.g.g.g.g.g.g.g.g.g.g.g.g.g.g.g.g.g.g.z.e.:.% K 6 6 6 6 6 6 6 6 6 6 6 6 6 6 6 6 6 6 6 6 ",
"6 6 6 6 6 6 6 6 6 6 6 5 :.h.g.g.g.g.g.g.g.g.g.g.g.g.g.g.g.g.g.g.z.g.q.>.: r 6 6 6 6 6 6 6 6 6 6 6 6 6 6 6 6 6 6 6 6 6 6 ",
"6 6 6 6 6 6 6 6 6 6 G X M 2.w.h.z.z.h.g.g.g.g.g.g.g.h.h.h.z.g.r.3.V 4 r 6 6 6 6 6 6 6 6 6 6 6 6 6 6 6 6 6 6 6 6 6 6 6 6 ",
"6 6 6 6 6 6 6 6 6 6 6 6 E u ; M >.4.0.r.s.s.g.h.g.s.r.q.6.,.B > 0 6 6 6 6 6 6 6 6 6 6 6 6 6 6 6 6 6 6 6 6 6 6 6 6 6 6 6 ",
"6 6 6 6 6 6 6 6 6 6 6 6 6 6 H W t   # h x B V V B c j #   7 q 6 6 6 6 6 6 6 6 6 6 6 6 6 6 6 6 6 6 6 6 6 6 6 6 6 6 6 6 6 "
};
