/* XPM */
static char *UDFyaWdodA__[] = {
/* columns rows colors chars-per-pixel */
"60 60 131 2 ",
"   c #161602",
".  c #1A1A00",
"X  c #121712",
"o  c #1C1B14",
"O  c #1F2213",
"+  c #1C221B",
"@  c #2E2B00",
"#  c #26260D",
"$  c #2B2A0C",
"%  c #302E0A",
"&  c #353304",
"*  c #393600",
"=  c #3C3A05",
"-  c #35350C",
";  c #383608",
":  c #3B3909",
">  c #232413",
",  c #262810",
"<  c #24261D",
"1  c #25291C",
"2  c #2B2B1B",
"3  c #2F3111",
"4  c #161F24",
"5  c #001C3D",
"6  c #172125",
"7  c #1F2423",
"8  c #1D2629",
"9  c #06203F",
"0  c #162534",
"q  c #1C2934",
"w  c #1B2938",
"e  c #202522",
"r  c #292923",
"t  c #252B2D",
"y  c #2B2D2C",
"u  c #222B33",
"i  c #273039",
"p  c #2C343E",
"a  c #323433",
"s  c #343639",
"d  c #363A3E",
"f  c #423F03",
"g  c #464303",
"h  c #494502",
"j  c #4E4B03",
"k  c #524D01",
"l  c #565203",
"z  c #5C5700",
"x  c #5F5A00",
"c  c #5C5C0B",
"v  c #615C00",
"b  c #5E6010",
"n  c #676100",
"m  c #6B6500",
"M  c #67680F",
"N  c #726C00",
"B  c #7B7300",
"V  c #7D7A08",
"C  c #072141",
"Z  c #0C2645",
"A  c #0F2847",
"S  c #0F2948",
"D  c #122946",
"F  c #1D2F44",
"G  c #162D49",
"H  c #192F4A",
"J  c #1C334D",
"K  c #243245",
"L  c #293443",
"P  c #283749",
"I  c #27394F",
"U  c #2C3B4D",
"Y  c #313A46",
"T  c #3B3F46",
"R  c #343F4C",
"E  c #233954",
"W  c #2A3C53",
"Q  c #273E59",
"!  c #293F5A",
"~  c #303F52",
"^  c #3C424C",
"/  c #3A4552",
"(  c #34455A",
")  c #3C495A",
"_  c #2F4560",
"`  c #344A62",
"'  c #3D4F64",
"]  c #41454C",
"[  c #444950",
"{  c #425266",
"}  c #4F5865",
"|  c #495769",
" . c #4E5C6D",
".. c #4D5E73",
"X. c #5C6673",
"o. c #546579",
"O. c #5E6A7A",
"+. c #837C00",
"@. c #878100",
"#. c #8A8300",
"$. c #948C00",
"%. c #9B9300",
"&. c #A49B00",
"*. c #ADA400",
"=. c #B6AC00",
"-. c #BEB400",
";. c #C1B700",
":. c #C5BB00",
">. c #C9BE00",
",. c #CDC200",
"<. c #D2C700",
"1. c #D5CA00",
"2. c #D9CE00",
"3. c #DED200",
"4. c #E2D600",
"5. c #E6D900",
"6. c #E9DC00",
"7. c #ECDF00",
"8. c #EDE000",
"9. c #EFE300",
"0. c #F0E300",
"q. c #F1E400",
"w. c #F3E600",
"e. c #F4E700",
"r. c #F6E800",
"t. c #F7E900",
"y. c #F8EB00",
"u. c #FAEC00",
"i. c #FCED00",
"p. c #FEEF00",
"a. c #FDF000",
/* pixels */
"5 5 5 5 5 5 5 5 5 5 5 5 5 5 5 5 5 5 5 5 5 5 5 5 5 5 5 5 5 9 4   @ h v N B B N z g @   7 U G 5 5 5 5 5 5 5 5 5 5 5 5 5 5 ",
"5 5 5 5 5 5 5 5 5 5 5 5 5 5 5 5 5 5 5 5 5 5 5 5 5 5 5 8 : N &.>.4.8.t.u.u.u.t.t.8.3.>.%.m - t U 5 5 5 5 5 5 5 5 5 5 5 5 ",
"5 5 5 5 5 5 5 5 5 5 5 5 5 5 5 5 5 5 5 5 5 5 5 5 w 3 B ;.8.u.a.a.a.a.p.u.u.u.u.u.p.a.a.a.a.6.-.m X F 5 5 5 5 5 5 5 5 5 5 ",
"5 5 5 5 5 5 5 5 5 5 5 5 5 5 5 5 5 5 5 5 5 5 w : $.5.p.p.p.p.u.p.u.u.u.u.p.u.p.u.u.u.u.p.u.u.p.$.7 5 5 5 5 5 5 5 5 5 5 5 ",
"5 5 5 5 5 5 5 5 5 5 5 5 5 5 5 5 5 5 5 5 F 3 $.5.a.a.p.u.u.u.p.u.u.p.u.a.a.u.p.u.u.p.p.u.u.a.%.+ 5 5 5 5 5 5 5 5 5 5 5 5 ",
"5 5 5 5 5 5 5 5 5 5 5 5 5 5 5 5 5 5 5 e v 1.p.u.p.u.u.u.u.u.u.u.u.a.u.u.u.u.u.u.u.u.u.p.a.&.+ 5 5 5 5 5 5 5 5 5 5 5 5 5 ",
"5 5 5 5 5 5 5 5 5 5 5 5 5 5 5 5 5 H , $.e.p.u.u.u.u.u.a.u.u.p.u.u.u.u.a.u.p.u.a.u.u.u.a.*.O 5 5 5 5 5 5 5 5 5 5 5 5 5 5 ",
"5 5 5 5 5 5 5 5 5 5 5 5 5 5 5 5 P & -.p.p.u.u.p.p.u.u.u.p.a.u.u.u.p.u.u.u.u.u.u.p.u.a.=., H 5 5 5 5 5 5 5 5 5 5 5 5 5 5 ",
"5 5 5 5 5 5 5 5 5 5 5 5 5 5 5 P f 1.a.a.p.u.u.u.u.u.u.u.u.u.p.u.u.a.u.u.u.u.u.p.p.p.;.$ W 5 5 5 5 5 5 5 5 5 5 5 5 5 5 5 ",
"5 5 5 5 5 5 5 5 5 5 5 5 5 5 P f 2.a.u.u.u.u.a.u.a.u.p.u.a.u.u.u.u.u.u.p.u.a.u.p.p.:.% ( 5 5 5 5 5 5 5 5 5 5 5 5 5 5 5 5 ",
"5 5 5 5 5 5 5 5 5 5 5 5 5 J & 1.a.u.u.u.u.u.u.p.u.u.u.u.u.u.a.u.u.p.u.u.u.u.u.a.,.& ) 5 5 5 5 5 5 5 5 5 5 5 5 5 5 5 5 5 ",
"5 5 5 5 5 5 5 5 5 5 5 5 5 , ;.a.u.u.p.u.u.a.u.a.u.p.u.a.a.u.p.u.u.p.u.p.p.u.a.1.= / 5 5 5 5 5 5 5 5 5 5 5 5 5 5 5 5 5 5 ",
"5 5 5 5 5 5 5 5 5 5 5 5 e %.a.u.p.u.a.u.u.u.p.u.u.u.u.u.u.u.u.u.u.u.p.u.p.p.2.f / 5 5 5 5 5 5 5 5 5 5 5 5 5 5 5 5 5 5 5 ",
"5 5 5 5 5 5 5 5 5 5 5 K n e.u.p.u.u.p.u.a.u.u.u.a.u.p.a.u.p.u.a.u.p.u.u.p.4.h R 5 5 5 5 5 5 5 5 5 5 5 5 5 5 5 5 5 5 5 5 ",
"5 5 5 5 5 5 5 5 5 5 5 - 2.p.u.u.p.u.u.u.u.u.a.u.u.u.u.u.u.a.u.p.u.u.p.p.5.k Y 5 5 5 5 5 5 5 5 5 5 5 5 5 5 5 5 5 5 5 5 5 ",
"5 5 5 5 5 5 5 5 5 5 q $.p.p.u.u.u.u.a.u.p.u.u.u.u.p.u.p.u.u.u.u.u.u.p.6.k L 5 5 5 5 5 5 5 5 5 5 5 5 5 5 5 5 5 5 5 5 5 5 ",
"5 5 5 5 5 5 5 5 5 G = 8.p.a.u.p.u.u.u.p.a.u.u.u.u.a.u.a.u.u.u.u.p.p.6.l i 5 5 5 5 5 5 5 5 5 5 5 5 5 5 5 5 5 5 5 5 5 5 5 ",
"5 5 5 5 5 5 5 5 5 q %.a.u.u.u.u.u.a.u.u.u.u.p.u.u.u.u.u.u.p.u.a.p.w.c u 5 5 5 5 5 5 5 5 5 5 5 5 5 5 5 5 5 5 5 5 5 5 5 5 ",
"5 5 5 5 5 5 5 5 5 : 6.u.u.u.a.u.u.u.u.a.p.u.u.u.p.u.a.p.u.u.u.a.0.c q 5 5 5 5 5 5 5 5 5 5 5 5 5 5 5 5 5 5 5 5 5 5 5 5 5 ",
"5 5 5 5 5 5 5 5 F V a.u.a.u.u.u.u.p.u.u.u.u.a.u.u.u.u.u.p.u.p.t.b 0 5 5 5 5 5 5 5 5 5 5 5 5 5 5 5 5 5 5 5 5 5 5 5 5 5 5 ",
"5 5 5 5 5 5 5 5 + >.a.u.u.a.u.u.a.u.a.u.u.p.u.p.u.a.u.p.u.a.u.M 6 5 5 5 5 5 5 5 5 5 5 5 5 5 5 5 5 5 5 5 5 5 5 5 5 5 5 5 ",
"5 5 5 5 5 5 5 5 g 8.a.u.u.u.u.p.p.u.u.u.u.u.u.a.u.u.u.u.u.u.V 6 5 5 5 5 5 5 5 5 5 5 5 5 5 5 5 5 5 5 5 5 5 5 5 5 5 5 5 5 ",
"5 5 5 5 5 5 5 D B a.u.a.u.p.u.u.u.a.u.u.u.u.p.u.p.u.u.u.p.$.7 5 5 5 5 5 5 5 5 5 5 5 5 5 5 5 5 5 5 5 5 5 5 5 5 5 5 5 5 5 ",
"5 5 5 5 5 5 5 0 =.a.u.u.u.a.u.p.u.u.u.p.a.u.u.u.u.u.u.a.&.+ 5 5 5 5 5 5 5 5 5 5 5 5 5 5 5 5 5 5 5 5 5 5 5 5 5 5 5 5 5 5 ",
"5 5 5 5 5 5 5 < 1.u.u.a.u.u.u.u.u.u.u.a.p.u.p.u.a.u.p.*.> 5 5 5 5 5 5 5 5 5 5 5 5 5 5 5 5 5 5 5 5 5 5 5 5 5 5 5 5 5 5 5 ",
"5 5 5 5 5 5 5 : 6.p.u.u.u.p.a.u.u.p.u.u.u.u.u.u.u.a.=.# J 5 5 5 5 5 5 5 5 5 5 5 5 5 5 5 5 5 5 5 5 5 5 5 5 5 5 5 5 5 5 5 ",
"5 5 5 5 5 5 5 j t.u.u.u.u.u.u.u.a.u.u.u.u.u.u.u.a.-.$ ) 5 5 5 5 5 5 5 5 5 5 5 5 5 5 5 5 5 5 5 5 5 5 5 5 5 5 5 5 5 5 5 5 ",
"5 5 5 5 5 5 G v u.a.u.p.u.a.p.u.p.u.p.u.u.a.u.p.:.% } 5 5 5 5 5 5 5 5 5 5 5 5 5 5 5 5 5 5 5 5 5 5 5 5 5 5 5 5 5 5 5 5 5 ",
"5 5 5 5 5 5 E N p.u.u.u.u.u.u.u.u.a.u.u.u.p.u.5.* ] A 5 5 5 5 5 5 5 5 5 5 5 5 5 5 5 5 5 5 5 5 5 5 5 5 5 5 5 5 5 5 5 5 5 ",
"5 5 5 5 5 5 W N p.p.u.u.p.a.u.p.u.u.u.p.u.u.p.w.+.r O.5 5 5 5 5 5 5 5 5 5 5 5 5 5 5 5 5 5 5 5 5 5 5 5 5 5 5 5 5 5 5 5 5 ",
"5 5 5 5 5 5 W B a.u.p.u.u.u.u.u.u.p.u.u.u.p.u.u.u.#.< ' 5 5 5 5 5 5 5 5 5 5 5 5 5 5 5 5 5 5 5 5 5 5 5 5 5 5 5 5 5 5 5 5 ",
"5 5 5 5 5 5 W m a.u.u.u.a.u.a.u.u.u.u.a.u.u.p.u.p.u.$.> ( 5 5 5 5 5 5 5 5 5 5 5 5 5 5 5 5 5 5 5 5 5 5 5 5 5 5 5 5 5 5 5 ",
"5 5 5 5 5 5 W v u.u.u.u.p.u.p.u.a.u.u.u.u.a.u.a.u.u.u.%.+ D 5 5 5 5 5 5 5 5 5 5 5 5 5 5 5 5 5 5 5 5 5 5 5 5 5 5 5 5 5 5 ",
"5 5 5 5 5 5 E j t.u.u.p.u.u.u.u.u.u.p.u.u.u.u.u.u.p.u.u.&.O A 5 5 5 5 5 5 5 5 5 5 5 5 5 5 5 5 5 5 5 5 5 5 5 5 5 5 5 5 5 ",
"5 5 5 5 5 5 Z : 6.p.u.u.u.u.p.u.p.u.u.u.p.u.a.p.u.a.u.p.p.&.O C 5 5 5 5 5 5 5 5 5 5 5 5 5 5 5 5 5 5 5 5 5 5 5 5 5 5 5 5 ",
"5 5 5 5 5 5 5 1 1.p.u.u.u.p.u.u.u.u.a.u.u.u.u.u.u.u.u.u.u.a.*.O D 5 5 5 5 5 5 5 5 5 5 5 5 5 5 5 5 5 5 5 5 5 5 5 5 5 5 5 ",
"5 5 5 5 5 5 5 u *.a.u.u.a.p.u.u.u.u.a.p.p.u.u.u.p.u.p.u.u.u.a.=., A 5 5 5 5 5 5 5 5 5 5 5 5 5 5 5 5 5 5 5 5 5 5 5 5 5 5 ",
"5 5 5 5 5 5 5 P B a.p.u.u.u.a.u.u.p.u.u.u.u.a.u.u.u.u.u.u.a.p.a.=.# G 5 5 5 5 5 5 5 5 5 5 5 5 5 5 5 5 5 5 5 5 5 5 5 5 5 ",
"5 5 5 5 5 5 5 D h w.a.p.a.u.u.u.u.u.u.p.u.u.u.p.a.p.u.a.u.u.u.u.p.-.$ J 5 5 5 5 5 5 5 5 5 5 5 5 5 5 5 5 5 5 5 5 5 5 5 5 ",
"5 5 5 5 5 5 5 5 r ,.a.u.u.u.u.p.a.u.u.u.u.a.u.a.u.u.u.u.p.u.a.u.u.a.;.- I 5 5 5 5 5 5 5 5 5 5 5 5 5 5 5 5 5 5 5 5 5 5 5 ",
"5 5 5 5 5 5 5 5 K +.a.u.u.u.u.a.u.a.u.u.u.u.u.u.u.u.u.u.a.u.p.u.u.u.a.>.& U 5 5 5 5 5 5 5 5 5 5 5 5 5 5 5 5 5 5 5 5 5 5 ",
"5 5 5 5 5 5 5 5 5 : 6.u.p.u.u.u.u.u.u.p.u.a.u.p.u.a.u.p.u.u.u.u.u.p.u.p.,.; R 5 5 5 5 5 5 5 5 5 5 5 5 5 5 5 5 5 5 5 5 5 ",
"5 5 5 5 5 5 5 5 5 u &.a.u.u.p.u.u.p.u.u.u.u.u.u.a.u.u.u.u.p.u.a.p.u.u.p.a.<.= R 5 5 5 5 5 5 5 5 5 5 5 5 5 5 5 5 5 5 5 5 ",
"5 5 5 5 5 5 5 5 5 C g 8.a.a.u.u.u.a.u.p.p.u.a.u.p.u.a.u.u.u.u.u.u.u.u.u.p.a.2.f ^ 5 5 5 5 5 5 5 5 5 5 5 5 5 5 5 5 5 5 5 ",
"5 5 5 5 5 5 5 5 5 5 t %.a.u.p.u.u.u.u.u.u.u.u.u.u.a.u.u.u.u.a.p.p.u.p.u.u.p.p.2.g ] 5 5 5 5 5 5 5 5 5 5 5 5 5 5 5 5 5 5 ",
"5 5 5 5 5 5 5 5 5 5 5 - 3.a.u.u.p.u.a.u.p.a.u.p.u.u.u.p.u.p.u.u.u.u.u.u.u.u.u.a.4.j T C 5 5 5 5 5 5 5 5 5 5 5 5 5 5 5 5 ",
"5 5 5 5 5 5 5 5 5 5 5 L m u.p.u.a.u.p.u.u.u.u.u.u.p.u.u.u.u.u.p.u.u.a.u.u.p.u.u.p.4.k d E 5 5 5 5 5 5 5 5 5 5 5 5 5 5 5 ",
"5 5 5 5 5 5 5 5 5 5 5 5 7 &.a.u.u.u.u.u.a.u.a.u.u.u.u.a.a.u.u.u.a.u.p.u.u.u.p.u.u.p.5.l s Q 5 5 5 5 5 5 5 5 5 5 5 5 5 5 ",
"5 5 5 5 5 5 5 5 5 5 5 5 C $ :.p.p.u.u.u.p.u.p.u.u.u.p.u.a.u.a.u.u.u.u.u.p.u.a.u.a.u.a.6.v a _ 5 5 5 5 5 5 5 5 5 5 5 5 5 ",
"5 5 5 5 5 5 5 5 5 5 5 5 5 ~ = 2.p.u.u.p.u.u.u.u.a.u.u.u.p.u.u.u.u.p.a.u.u.u.p.u.u.u.u.a.7.v a ` 5 5 5 5 5 5 5 5 5 5 5 5 ",
"5 5 5 5 5 5 5 5 5 5 5 5 5 5 R g 3.p.p.u.u.u.p.u.u.u.a.u.u.a.u.u.u.u.u.u.p.u.u.u.p.u.u.u.p.8.m y ' 5 5 5 5 5 5 5 5 5 5 5 ",
"5 5 5 5 5 5 5 5 5 5 5 5 5 5 5 R g 1.p.u.u.p.u.u.p.u.u.u.u.u.u.p.u.a.p.u.u.u.a.u.u.u.a.u.u.a.0.N y ' 5 5 5 5 5 5 5 5 5 5 ",
"5 5 5 5 5 5 5 5 5 5 5 5 5 5 5 5 T = :.p.p.u.u.p.p.u.u.u.u.p.u.p.p.u.u.u.u.u.u.p.u.u.a.p.p.u.p.e.N r ' 5 5 5 5 5 5 5 5 5 ",
"5 5 5 5 5 5 5 5 5 5 5 5 5 5 5 5 5 ) $ &.t.a.u.u.u.u.u.p.u.u.u.u.u.u.a.u.u.a.u.u.u.p.u.u.u.u.u.a.e.+.< { 5 5 5 5 5 5 5 5 ",
"5 5 5 5 5 5 5 5 5 5 5 5 5 5 5 5 5 5 ' 1 m 2.a.a.p.u.u.p.u.p.u.u.u.u.u.p.u.u.u.a.u.u.u.p.u.u.u.u.p.t.+.2 ' 5 5 5 5 5 5 5 ",
"5 5 5 5 5 5 5 5 5 5 5 5 5 5 5 5 5 5 5 J ] ; %.6.a.p.u.u.u.u.p.p.u.a.u.a.u.p.u.u.a.u.u.u.u.a.u.p.p.p.4.f 4 ! 5 5 5 5 5 5 ",
"5 5 5 5 5 5 5 5 5 5 5 5 5 5 5 5 5 5 5 5 5 | y f %.6.a.a.a.u.u.a.u.p.u.u.p.u.u.u.u.u.p.u.u.p.a.a.5.$.f a | D 5 5 5 5 5 5 ",
"5 5 5 5 5 5 5 5 5 5 5 5 5 5 5 5 5 5 5 5 5 5 E | y : +.>.8.p.a.a.a.u.p.u.u.u.u.p.u.a.a.a.a.8.;.B - a X._ 5 5 5 5 5 5 5 5 ",
"5 5 5 5 5 5 5 5 5 5 5 5 5 5 5 5 5 5 5 5 5 5 5 5 E  .] 2 g B *.<.5.w.t.u.u.a.u.t.w.4.<.*.N g 2 [ O.` 5 5 5 5 5 5 5 5 5 5 ",
"5 5 5 5 5 5 5 5 5 5 5 5 5 5 5 5 5 5 5 5 5 5 5 5 5 5 C ..X.^ o . * l m B @.@.B m j & . o ] X.o.J 5 5 5 5 5 5 5 5 5 5 5 5 "
};
