/* XPM */
static char *UDF1cA__[] = {
/* columns rows colors chars-per-pixel */
"60 60 133 2 ",
"   c #161602",
".  c #1A1A00",
"X  c #121712",
"o  c #1C1B14",
"O  c #1B1B1E",
"+  c #1F2213",
"@  c #1C221B",
"#  c #2E2B00",
"$  c #26260D",
"%  c #2B2A0C",
"&  c #302E0A",
"*  c #353304",
"=  c #393600",
"-  c #3C3A05",
";  c #35350C",
":  c #383608",
">  c #3B3909",
",  c #232413",
"<  c #262810",
"1  c #24261D",
"2  c #25291C",
"3  c #2B2B1B",
"4  c #2F3111",
"5  c #161F24",
"6  c #001C3D",
"7  c #172125",
"8  c #1F2423",
"9  c #1D2629",
"0  c #06203F",
"q  c #162534",
"w  c #1C2934",
"e  c #1B2938",
"r  c #202522",
"t  c #292923",
"y  c #252B2D",
"u  c #2C2D2C",
"i  c #222B33",
"p  c #273039",
"a  c #323433",
"s  c #343639",
"d  c #363A3E",
"f  c #423F03",
"g  c #464303",
"h  c #494502",
"j  c #4E4B03",
"k  c #524D01",
"l  c #565203",
"z  c #5C5700",
"x  c #5F5A00",
"c  c #5C5C0B",
"v  c #615C00",
"b  c #5E6010",
"n  c #676100",
"m  c #6B6500",
"M  c #67680F",
"N  c #726C00",
"B  c #7B7300",
"V  c #7D7A08",
"C  c #072141",
"Z  c #0F2847",
"A  c #0F2948",
"S  c #102742",
"D  c #122946",
"F  c #1D2F44",
"G  c #162D49",
"H  c #192F4A",
"J  c #1E3046",
"K  c #1D334D",
"L  c #1D3552",
"P  c #243245",
"I  c #293443",
"U  c #25364B",
"Y  c #283749",
"T  c #27394F",
"R  c #2C3B4D",
"E  c #313A46",
"W  c #3B3F46",
"Q  c #343F4C",
"!  c #233954",
"~  c #2A3C52",
"^  c #293F5A",
"/  c #303F52",
"(  c #3C424C",
")  c #2D435D",
"_  c #3A4552",
"`  c #34455A",
"'  c #3C495A",
"]  c #2F4560",
"[  c #344A62",
"{  c #3D4F64",
"}  c #3E5167",
"|  c #41454C",
" . c #444950",
".. c #425266",
"X. c #495666",
"o. c #495769",
"O. c #4E5C6D",
"+. c #4D5E73",
"@. c #5C6673",
"#. c #546579",
"$. c #5E6A7A",
"%. c #837C00",
"&. c #878100",
"*. c #8A8300",
"=. c #948C00",
"-. c #9B9300",
";. c #A49B00",
":. c #ADA400",
">. c #B6AC00",
",. c #BEB400",
"<. c #C1B700",
"1. c #C5BB00",
"2. c #C9BE00",
"3. c #CDC200",
"4. c #D2C700",
"5. c #D5CA00",
"6. c #D9CE00",
"7. c #DED200",
"8. c #E2D600",
"9. c #E6D900",
"0. c #EADD00",
"q. c #EEE200",
"w. c #F2E500",
"e. c #F4E700",
"r. c #F5E800",
"t. c #F7E900",
"y. c #F8EA00",
"u. c #FBED00",
"i. c #FCED00",
"p. c #FCEE00",
"a. c #FEEF00",
"s. c #FDF000",
"d. c #FFF100",
/* pixels */
"6 6 6 6 6 6 6 6 6 6 6 6 6 6 6 6 6 6 6 6 6 6 6 6 6 6 6 6 6 6 6 6 6 6 6 6 6 6 6 6 6 6 6 6 6 6 6 6 6 6 6 6 6 6 6 6 6 6 6 6 ",
"6 6 6 6 6 6 6 6 6 6 6 6 6 6 6 6 6 6 6 6 6 6 6 6 6 6 6 6 6 6 6 6 6 6 6 6 6 6 6 6 6 6 6 6 6 6 6 6 6 6 6 6 6 6 6 6 6 6 6 6 ",
"6 6 6 6 6 6 6 6 6 6 6 6 6 6 6 6 6 6 6 6 6 6 6 6 6 6 6 6 6 6 6 6 6 6 6 6 6 6 6 6 6 6 6 6 6 6 6 6 6 6 6 6 6 6 6 6 6 6 6 6 ",
"6 6 6 6 6 6 6 6 6 6 6 6 6 6 6 6 6 6 6 6 6 6 6 6 6 6 6 6 6 6 6 6 6 6 6 6 6 6 6 6 6 6 6 6 6 6 6 6 6 6 6 6 6 6 6 6 6 6 6 6 ",
"6 6 6 6 6 6 6 6 6 6 6 6 6 6 6 6 6 6 6 6 6 6 6 6 6 6 6 6 6 6 6 6 6 6 6 6 6 6 6 6 6 6 6 6 6 6 6 6 6 6 6 6 6 6 6 6 6 6 6 6 ",
"6 6 6 6 6 6 6 6 6 6 6 6 6 6 6 6 6 6 6 6 6 6 6 6 6 6 6 6 6 6 6 6 6 6 6 6 6 6 6 6 6 6 6 6 6 6 6 6 6 6 6 6 6 6 6 6 6 6 6 6 ",
"6 6 6 6 6 6 6 6 6 6 6 6 6 6 6 6 6 6 6 6 6 6 6 6 6 6 6 6 6 6 6 6 6 6 6 6 6 6 6 6 6 6 6 6 6 6 6 6 6 6 6 6 6 6 6 ^ A 6 6 6 ",
"6 6 6 6 6 6 6 6 6 6 6 6 6 6 6 6 6 6 6 6 6 6 6 6 6 6 6 6 6 6 6 6 6 6 6 6 6 6 6 6 6 6 6 6 6 6 6 6 6 6 6 6 6 6 { O X.6 6 6 ",
"6 6 6 6 6 6 6 6 6 6 6 6 6 6 6 6 6 6 6 6 6 6 6 6 6 6 6 6 6 6 6 6 6 6 6 6 6 6 6 6 6 6 6 6 6 6 6 6 6 6 6 6 6 { 1 f a ] 6 6 ",
"6 6 6 6 6 6 6 6 6 6 6 6 6 6 6 6 6 6 6 6 6 6 6 6 6 6 6 6 6 6 6 6 6 6 6 6 6 6 6 6 6 6 6 6 6 6 6 6 6 6 6 6 } t %.9.f @.0 6 ",
"6 6 J 6 6 6 6 6 6 6 6 6 6 6 6 6 6 6 6 6 6 6 6 6 6 6 6 6 6 6 6 6 6 6 6 6 6 6 6 6 6 6 6 6 6 6 6 6 6 6 6 { t %.t.d.=.a [ 6 ",
"6 6 X 5 6 6 6 6 6 6 6 6 6 6 6 6 6 6 6 6 6 6 6 6 6 6 6 6 6 6 6 6 6 6 6 6 6 6 6 6 6 6 6 6 6 6 6 6 6 6 { u N e.p.p.9.: $.6 ",
"6 R n =.7 6 6 6 6 6 6 6 6 6 6 6 6 6 6 6 6 6 6 6 6 6 6 6 6 6 6 6 6 6 6 6 6 6 6 6 6 6 6 6 6 6 6 6 6 ` u N w.p.u.u.p.B  .L ",
"6 y ,.d.-.@ 6 6 6 6 6 6 6 6 6 6 6 6 6 6 6 6 6 6 6 6 6 6 6 6 6 6 6 6 6 6 6 6 6 6 6 6 6 6 6 6 6 6 ) a m w.p.p.u.u.d.<.t #.",
"G : 0.p.p.;., H 6 6 6 6 6 6 6 6 6 6 6 6 6 6 6 6 6 6 6 6 6 6 6 6 6 6 6 6 6 6 6 6 6 6 6 6 6 6 6 ^ a v w.p.p.u.u.u.p.w.f @.",
"R m p.u.p.p.:.< ~ 6 6 6 6 6 6 6 6 6 6 6 6 6 6 6 6 6 6 6 6 6 6 6 6 6 6 6 6 6 6 6 6 6 6 6 6 6 ~ s v 0.i.y.u.u.u.u.p.p.N | ",
"r -.p.p.p.p.p.>.% ` 6 6 6 6 6 6 6 6 6 6 6 6 6 6 6 6 6 6 6 6 6 6 6 6 6 6 6 6 6 6 6 6 6 6 6 C W l 0.p.u.u.u.u.u.u.p.d.:.o ",
"  2.p.p.y.p.p.d.<.& ' 6 6 6 6 6 6 6 6 6 6 6 6 6 6 6 6 6 6 6 6 6 6 6 6 6 6 6 6 6 6 6 6 6 6 W k 8.p.u.u.u.u.u.u.u.p.p.3.. ",
"# 8.p.p.p.p.p.y.p.2.* _ 6 6 6 6 6 6 6 6 6 6 6 6 6 6 6 6 6 6 6 6 6 6 6 6 6 6 6 6 6 6 6 6 | h 8.p.p.p.u.u.u.u.u.u.u.p.8.* ",
"g w.p.p.y.p.p.p.p.p.4.= _ 6 6 6 6 6 6 6 6 6 6 6 6 6 6 6 6 6 6 6 6 6 6 6 6 6 6 6 6 6 6 W g 8.p.p.u.u.u.u.u.u.u.u.u.u.w.k ",
"z e.p.y.p.y.p.y.p.p.p.5.g Q 6 6 6 6 6 6 6 6 6 6 6 6 6 6 6 6 6 6 6 6 6 6 6 6 6 6 6 6 Q f 6.d.p.y.u.u.u.u.u.u.u.u.u.u.t.n ",
"N e.p.p.p.p.p.p.y.p.p.p.6.h E 6 6 6 6 6 6 6 6 6 6 6 6 6 6 6 6 6 6 6 6 6 6 6 6 6 6 Q - 6.p.p.p.p.u.u.u.u.u.u.u.u.u.u.p.B ",
"B u.u.u.p.y.p.p.p.p.p.p.p.8.k I 6 6 6 6 6 6 6 6 6 6 6 6 6 6 6 6 6 6 6 6 6 6 6 6 ~ - 4.p.p.y.p.y.u.u.u.u.u.u.u.u.u.u.p.&.",
"B y.u.u.p.p.y.p.y.p.y.p.p.p.9.l p 6 6 6 6 6 6 6 6 6 6 6 6 6 6 6 6 6 6 6 6 6 6 ~ * 2.p.p.p.p.p.p.u.u.u.u.u.u.u.u.u.u.d.&.",
"N y.p.p.y.p.y.p.p.y.p.y.p.p.p.0.l i 6 6 6 6 6 6 6 6 6 6 6 6 6 6 6 6 6 6 6 6 K ; 2.d.u.u.u.u.u.u.u.u.u.u.u.u.u.u.y.p.p.B ",
"v t.p.y.p.p.p.p.p.p.p.p.y.p.p.p.0.c w 6 6 6 6 6 6 6 6 6 6 6 6 6 6 6 6 6 6 D % <.d.u.u.u.u.u.u.u.u.u.u.u.u.u.u.u.p.p.y.m ",
"h q.p.p.p.p.y.p.p.y.p.p.p.y.p.y.p.w.b q 6 6 6 6 6 6 6 6 6 6 6 6 6 6 6 6 D $ ,.d.u.u.u.u.u.u.u.u.u.u.u.u.u.u.u.u.y.p.w.k ",
"# 8.p.p.p.y.p.p.p.p.y.p.p.p.p.p.p.p.w.b 5 6 6 6 6 6 6 6 6 6 6 6 6 6 6 D < >.p.p.u.u.u.u.u.u.u.u.u.u.u.u.u.u.u.u.p.p.9.= ",
"  3.p.y.y.p.y.p.p.y.p.y.p.p.p.p.p.u.p.e.M 7 6 6 6 6 6 6 6 6 6 6 6 6 C + >.p.u.u.u.u.u.u.u.u.u.u.u.u.u.u.u.u.u.u.p.p.4.. ",
"5 ;.d.p.p.p.p.p.p.p.p.p.y.p.y.p.p.p.p.p.y.V @ 6 6 6 6 6 6 6 6 6 6 Z , :.p.u.u.u.u.u.u.u.u.u.u.u.u.u.u.u.u.u.u.u.p.p.:.o ",
"C N p.p.p.p.y.p.p.y.p.p.p.p.p.y.p.p.p.p.p.u.=.@ 6 6 6 6 6 6 6 6 D + ;.p.u.u.u.u.u.u.u.u.u.u.u.u.u.u.u.u.u.u.u.u.p.p.B ( ",
"6 > 0.p.p.y.p.p.p.p.y.p.y.p.p.p.y.p.y.p.p.p.p.;., K 6 6 6 6 6 ` @ ;.p.u.u.u.u.u.u.u.u.u.u.u.u.u.u.u.u.u.u.u.u.u.p.e.g @.",
"6 9 <.p.u.u.u.u.u.u.u.u.u.u.u.u.y.p.p.p.p.p.y.d.:.$ ' 0 6 6 .., =.p.p.i.p.y.p.y.p.p.p.y.p.y.p.p.p.p.y.p.y.p.p.p.p.2.3 +.",
"6 6 B p.p.p.u.u.u.u.u.u.u.u.u.u.p.p.p.y.p.y.p.p.p.>.% X.Z $., =.p.p.p.y.p.p.p.p.y.p.p.p.p.p.y.p.p.y.p.p.p.p.p.p.p.%.| C ",
"6 6 4 8.p.p.u.u.u.u.u.u.u.u.u.u.y.p.y.p.p.p.p.p.p.p.,.& | t *.y.p.p.p.p.p.y.p.p.p.y.p.y.p.p.p.p.p.p.p.p.y.p.y.p.0.> O.6 ",
"6 6 e -.p.u.u.u.u.u.u.u.u.u.u.u.p.p.p.p.p.y.p.y.p.p.p.<.= %.p.p.y.p.p.y.p.p.y.p.p.p.p.p.y.p.y.p.p.y.p.y.p.p.p.p.-.u L 6 ",
"6 6 6 : 9.p.u.u.u.u.u.u.u.u.u.u.y.p.p.p.y.p.y.p.p.p.y.p.9.e.p.y.p.p.p.y.p.p.p.y.p.p.p.p.p.y.p.p.p.p.y.p.p.p.p.0.g X.6 6 ",
"6 6 6 w =.p.u.u.u.u.u.u.u.u.u.u.p.p.p.y.p.p.p.p.p.y.p.p.p.p.p.p.y.p.p.p.y.p.p.p.y.p.y.p.p.p.y.p.p.y.p.p.i.p.p.-.u L 6 6 ",
"6 6 6 6 % 5.p.p.u.u.u.u.u.u.u.u.y.p.y.p.p.p.y.p.p.p.p.p.p.p.p.p.p.y.p.y.p.y.p.y.p.p.p.y.p.p.p.p.p.p.p.p.i.p.6.* o.6 6 6 ",
"6 6 6 6 F v y.p.u.u.u.u.u.u.u.u.p.p.p.p.p.y.p.p.p.y.p.y.p.y.p.y.p.p.p.p.p.p.p.p.y.p.p.p.y.p.y.p.p.y.p.y.p.y.m | C 6 6 6 ",
"6 6 6 6 6 9 -.p.u.u.u.u.u.u.u.u.y.p.p.p.p.p.y.p.y.p.y.p.y.p.y.p.p.p.p.p.p.p.p.p.p.p.p.y.p.y.p.p.y.p.p.p.p.;.1 L 6 6 6 6 ",
"6 6 6 6 6 6 < ,.p.u.u.u.u.u.u.u.p.p.p.y.p.y.p.p.p.p.p.p.p.p.p.p.p.y.p.y.p.y.p.y.y.p.p.p.p.p.y.p.p.p.p.p.<.% { 6 6 6 6 6 ",
"6 6 6 6 6 6 H * 4.p.u.u.u.u.u.u.y.p.y.p.p.p.p.p.p.p.y.p.p.p.y.p.y.p.p.p.y.p.p.p.p.y.p.y.p.p.p.p.y.p.p.5.f  .6 6 6 6 6 6 ",
"6 6 6 6 6 6 6 T g 6.d.u.u.u.u.u.p.p.p.p.p.y.p.y.p.y.p.p.p.y.p.p.p.p.p.y.p.p.p.y.p.p.p.p.y.p.y.p.p.p.8.h Q 6 6 6 6 6 6 6 ",
"6 6 6 6 6 6 6 6 Y f 4.p.u.u.u.u.y.p.p.p.y.p.y.p.p.p.p.p.y.p.p.p.y.p.y.p.p.p.y.p.p.p.p.p.p.y.p.p.d.6.h Q 6 6 6 6 6 6 6 6 ",
"6 6 6 6 6 6 6 6 6 Y * <.p.u.u.u.p.p.p.y.p.p.p.p.p.y.p.y.p.p.p.y.p.p.p.p.p.y.p.p.p.y.p.y.p.p.p.p.<.- Q 6 6 6 6 6 6 6 6 6 ",
"6 6 6 6 6 6 6 6 6 6 K $ -.t.d.u.y.p.y.p.p.p.y.p.y.p.p.p.y.p.y.p.p.p.y.p.p.p.p.p.y.p.p.i.p.p.y.;.% / 6 6 6 6 6 6 6 6 6 6 ",
"6 6 6 6 6 6 6 6 6 6 6 6 9 n 6.d.p.p.p.p.p.y.p.p.p.p.p.y.p.p.p.p.p.y.p.p.p.y.p.y.p.p.p.p.p.7.m r 0 6 6 6 6 6 6 6 6 6 6 6 ",
"6 6 6 6 6 6 6 6 6 6 6 6 6 P & =.0.d.p.u.u.p.u.u.u.u.u.u.u.u.y.p.y.p.p.p.p.p.p.y.p.p.d.q.-.& I 6 6 6 6 6 6 6 6 6 6 6 6 6 ",
"6 6 6 6 6 6 6 6 6 6 6 6 6 6 6 w f -.9.u.p.p.u.u.u.u.u.u.u.u.p.p.p.p.p.p.y.p.p.p.d.0.;.g i 6 6 6 6 6 6 6 6 6 6 6 6 6 6 6 ",
"6 6 6 6 6 6 6 6 6 6 6 6 6 6 6 6 D e ; %.1.w.d.d.p.p.u.u.u.p.p.p.y.p.p.p.d.d.e.3.%.> i 6 6 6 6 6 6 6 6 6 6 6 6 6 6 6 6 6 ",
"6 6 6 6 6 6 6 6 6 6 6 6 6 6 6 6 6 6 6 F 8 h B :.4.0.e.u.p.p.p.p.y.y.0.4.:.B h 1 P 6 6 6 6 6 6 6 6 6 6 6 6 6 6 6 6 6 6 6 ",
"6 6 6 6 6 6 6 6 6 6 6 6 6 6 6 6 6 6 6 6 6 6 S q r ; k v N N B N v j ; 2 i T D 6 6 6 6 6 6 6 6 6 6 6 6 6 6 6 6 6 6 6 6 6 ",
"6 6 6 6 6 6 6 6 6 6 6 6 6 6 6 6 6 6 6 6 6 6 6 6 6 6 6 H U T ~ ~ ~ ! Z 6 6 6 6 6 6 6 6 6 6 6 6 6 6 6 6 6 6 6 6 6 6 6 6 6 ",
"6 6 6 6 6 6 6 6 6 6 6 6 6 6 6 6 6 6 6 6 6 6 6 6 6 6 6 6 6 6 6 6 6 6 6 6 6 6 6 6 6 6 6 6 6 6 6 6 6 6 6 6 6 6 6 6 6 6 6 6 ",
"6 6 6 6 6 6 6 6 6 6 6 6 6 6 6 6 6 6 6 6 6 6 6 6 6 6 6 6 6 6 6 6 6 6 6 6 6 6 6 6 6 6 6 6 6 6 6 6 6 6 6 6 6 6 6 6 6 6 6 6 ",
"6 6 6 6 6 6 6 6 6 6 6 6 6 6 6 6 6 6 6 6 6 6 6 6 6 6 6 6 6 6 6 6 6 6 6 6 6 6 6 6 6 6 6 6 6 6 6 6 6 6 6 6 6 6 6 6 6 6 6 6 ",
"6 6 6 6 6 6 6 6 6 6 6 6 6 6 6 6 6 6 6 6 6 6 6 6 6 6 6 6 6 6 6 6 6 6 6 6 6 6 6 6 6 6 6 6 6 6 6 6 6 6 6 6 6 6 6 6 6 6 6 6 ",
"6 6 6 6 6 6 6 6 6 6 6 6 6 6 6 6 6 6 6 6 6 6 6 6 6 6 6 6 6 6 6 6 6 6 6 6 6 6 6 6 6 6 6 6 6 6 6 6 6 6 6 6 6 6 6 6 6 6 6 6 ",
"6 6 6 6 6 6 6 6 6 6 6 6 6 6 6 6 6 6 6 6 6 6 6 6 6 6 6 6 6 6 6 6 6 6 6 6 6 6 6 6 6 6 6 6 6 6 6 6 6 6 6 6 6 6 6 6 6 6 6 6 "
};
