/* XPM */
static char *UGRvd24_[] = {
/* columns rows colors chars-per-pixel */
"60 60 208 2 ",
"   c #1A1600",
".  c #221D07",
"X  c #2C2500",
"o  c #2E2A00",
"O  c #262205",
"+  c #332D01",
"@  c #352F0A",
"#  c #353201",
"$  c #3B3502",
"%  c #3E3A02",
"&  c #35310A",
"*  c #3A350C",
"=  c #3B390A",
"-  c #3C3713",
";  c #413C00",
":  c #443C09",
">  c #443E1A",
",  c #4B4404",
"<  c #46420B",
"1  c #4B460C",
"2  c #4C4806",
"3  c #524E09",
"4  c #565306",
"5  c #5A5506",
"6  c #45421E",
"7  c #484317",
"8  c #504F16",
"9  c #5C5513",
"0  c #565419",
"q  c #595716",
"w  c #625F0E",
"e  c #625C16",
"r  c #6B651C",
"t  c #686516",
"y  c #7B791C",
"u  c #474223",
"i  c #4B4625",
"p  c #4C4A25",
"a  c #4C4929",
"s  c #524D2D",
"d  c #504821",
"f  c #54512D",
"g  c #5E5A3C",
"h  c #595535",
"j  c #4E4832",
"k  c #605B3B",
"l  c #6C6724",
"z  c #716A23",
"x  c #7D7A23",
"c  c #7A7629",
"v  c #7A7431",
"b  c #625D43",
"n  c #6B664A",
"m  c #6A6647",
"M  c #6E6953",
"N  c #726C52",
"B  c #747057",
"V  c #7A7456",
"C  c #7A755B",
"Z  c #7A7959",
"A  c #7E7C67",
"S  c #817D22",
"D  c #837E2A",
"F  c #877D35",
"G  c #837E63",
"H  c #7E8162",
"J  c #87832C",
"K  c #91852F",
"L  c #8C8738",
"P  c #918E30",
"I  c #989337",
"U  c #A39F3E",
"Y  c #A49D28",
"T  c #AAA538",
"R  c #938C41",
"E  c #9F9942",
"W  c #9D9747",
"Q  c #8B8950",
"!  c #A29B44",
"~  c #A6A243",
"^  c #ACA849",
"/  c #B1AB4B",
"(  c #B9AD4B",
")  c #B3AB57",
"_  c #BBB559",
"`  c #B4B151",
"'  c #8D8C6D",
"]  c #868367",
"[  c #8D8875",
"{  c #918C76",
"}  c #97957B",
"|  c #BBBA6A",
" . c #C1BF4E",
".. c #C3BB5B",
"X. c #C0BB55",
"o. c #C3BC61",
"O. c #C5C255",
"+. c #CDC95C",
"@. c #C8C259",
"#. c #D3CC5C",
"$. c #D6D25F",
"%. c #E4DF5F",
"&. c #F6EF47",
"*. c #F6EE4E",
"=. c #F9EE4E",
"-. c #F9EE47",
";. c #F6F047",
":. c #F5F04D",
">. c #FAF04D",
",. c #EDE75A",
"<. c #F6EE52",
"1. c #F9EE52",
"2. c #F5ED5B",
"3. c #F8ED59",
"4. c #F6F053",
"5. c #FAF152",
"6. c #F6F05B",
"7. c #FAF25D",
"8. c #CEC765",
"9. c #C9C367",
"0. c #D2CD62",
"q. c #D4CD6A",
"w. c #DBD563",
"e. c #DFDA65",
"r. c #DCD66B",
"t. c #DDD96C",
"y. c #D5D265",
"u. c #D5D37C",
"i. c #E2DB64",
"p. c #E3DE6C",
"a. c #E1D766",
"s. c #E3DC71",
"d. c #E5E16C",
"f. c #EAE56A",
"g. c #EEEA6C",
"h. c #ECE563",
"j. c #F5ED63",
"k. c #F4ED6B",
"l. c #F8EE69",
"z. c #F7EB66",
"x. c #F6F163",
"c. c #F9F263",
"v. c #F5F06C",
"b. c #F9F16B",
"n. c #EBE572",
"m. c #EEE972",
"M. c #E5E470",
"N. c #F3EC73",
"B. c #F6F174",
"V. c #001c3d",
"C. c #001c3d",
"Z. c #001c3d",
"A. c #001c3d",
"S. c #001c3d",
"D. c #001c3d",
"F. c #001c3d",
"G. c #001c3d",
"H. c #001c3d",
"J. c #001c3d",
"K. c #001c3d",
"L. c #001c3d",
"P. c #001c3d",
"I. c #001c3d",
"U. c #001c3d",
"Y. c #001c3d",
"T. c #001c3d",
"R. c #001c3d",
"E. c #001c3d",
"W. c #001c3d",
"Q. c #001c3d",
"!. c #001c3d",
"~. c #001c3d",
"^. c #001c3d",
"/. c #001c3d",
"(. c #001c3d",
"). c #001c3d",
"_. c #001c3d",
"`. c #001c3d",
"'. c #001c3d",
"]. c #001c3d",
"[. c #001c3d",
"{. c #001c3d",
"}. c #001c3d",
"|. c #001c3d",
" X c #001c3d",
".X c #001c3d",
"XX c #001c3d",
"oX c #001c3d",
"OX c #001c3d",
"+X c #001c3d",
"@X c #001c3d",
"#X c #001c3d",
"$X c #001c3d",
"%X c #001c3d",
"&X c #001c3d",
"*X c #001c3d",
"=X c #001c3d",
"-X c #001c3d",
";X c #001c3d",
":X c #001c3d",
">X c #001c3d",
",X c #001c3d",
"<X c #001c3d",
"1X c #001c3d",
"2X c #001c3d",
"3X c #001c3d",
"4X c #001c3d",
"5X c #001c3d",
/* pixels */
"=X:X-X:X:X-X:X:X4X4X4X:X=X4X-X:X-X-X-X=X4X4X4X>X>X>X=X:X:X:X:X-X-X=X=X-X:X:X:X:X4X:X:X-X:X-X-X-X=X:X:X:X:X:X:X:X:X:X:X:X",
":X=X:X:X:X:X:X:X4X4X4X4X=X:X:X:X-X-X:X:X4X4X=X>X=X+X[.(./.!./.!.(.|.$X=X:X:X:X:X:X>X4X4X:X:X-X-X:X:X:X:X4X:X:X:X:X:X-X:X",
":X:X:X:X:X:X:X:X4X:X:X:X:X:X:X:X:X:X:X:X-X.XP.{ k 8 * $ % % % $ + : s M C.Q..X=X:X:X:X-X4X:X:X=X:X:X:X:X:X:X:X:X:X:X:X:X",
":X:X:X:X:X:X:X:X:X:X-X=X=X:X-X:X:X=X XL.M - @ 0 v R ) o.8.q.0.8.o.) R z 7 + 6 Z ~.+X=X>X:X:X:X:X:X-X:X:X:X:X:X=X:X:X:X:X",
"-X:X4X:X:X:X4X4X4X4X4X4X:X:X:X=X].} > # t ~ $.d.v.k.k.l.z.j.2.x.z.z.N.N.p.+.I 5 + f F.%X:X>X:X:X:X:X:X:X:X:X:X:X:X4X4X4X",
":X:X:X:X:X4X4X:X4X4X4X4X:X=XXX} = : L 8.f.x.7.:.<.<.1.<.<.*.*.*.<.1.1.4.2.3.k.m.9.v # i J.#X:X:X:X:X-X:X:X:X:X:X4X:X:X4X",
":X:X:X:X:X4X:X:X:X-X:X:X:XI.f % I %.N.z.7.<.*.*.1.=.1.1.1.=.*.1.1.1.=.-.=.1.3.3.j.N.0.x o m (.:X:X:X:X:X4X4X:X:X:X:X:X:X",
"-X:X:X:X:X:X:X:X:X:X:X&X[ X r 0.z.3.1.1.1.*.:.*.=.1.<.*.1.5.=.*.=.=.=.=.=.=.1.1.1.<.j.m.o.3 & F.=X:X:X:X4X:X:X:X:X:X:X:X",
"4X:X=X:X:X:X:X:X-X:X'.b # ~ m.j.3.1.1.1.=.=.=.=.1.=.1.=.=.*.>.*.*.-.=.=.1.=.=.=.*.:.4.,.k.M.K o G @X=X:X:X:X-X=X:X:X:X:X",
":X:X=X-X:X:X:X-X=X/.a 1 @.j.2.3.1.=.=.1.1.=.=.1.1.1.1.1.=.=.=.:.>.=.=.=.=.=.=.=.5.*.:.5.2.z.g.^ $ n XX:X:X:X:X-X:X:X:X:X",
"4X4X:X:X4X:X:X:X/.u 4 y.x.2.1.=.=.*.>.*.=.=.=.=.=.=.=.=.:.<.:.<.1.=.1.*.=.=.1.<.*.*.5.*.<.3.3.z...; g XX=X:X-X-X:X:X:X:X",
"4X:X:X:X:X-X:X_.u q y.c.<.>.=.=.*.*.<.=.=.=.=.=.=.=.=.=.1.1.<.<.<.=.*.>.1.1.=.>.=.*.1.1.1.1.=.3.v.o.; n $X=X:X:X:X-X:X:X",
"4X:X4X4X4X>XXXk 2 t.j.<.<.*.1.1.1.:.>.<.*.4.*.<.>.<.1.1.1.=.=.=.:.=.*.1.<.1.1.=.-.5.=.=.=.-.=.1.2.b...# G =X:X:X-X:X:X:X",
"4X4X4X:X>X=XC $ 0.b.*.=.1.1.1.1.1.<.1.:.>.<.*.>.<.<.*.<.=.=.=.=.*.*.<.<.1.1.=.-.1.=.1.1.=.1.=.-.<.<.B./ o D.=X:X:X:X:X:X",
":X4X:X4X=XG.X ) N.<.5.-.=.=.5.*.*.=.=.*.=.=.*.=.=.=.=.=.=.=.=.=.=.1.1.1.=.*.=.*.=.=.1.=.<.1.=.=.=.1.2.k.L & /.:X:X:X:X:X",
":X:X:X:X].> D N.2.<.=.>.-.=.1.*.:.=.1.1.=.=.=.1.1.1.=.=.4.>.1.=.<.1.*.*.=.=.=.=.=.=.1.1.<.*.1.5.=.=.=.2.M.5 g &X:X:X:X:X",
">X:X:X=XG , a.j.1.:.=.=.-.=.<.4.:.*.1.1.=.-.5.<.1.1.=.=.1.1.>.-.=.=.=.=.*.1.=.=.<.1.=.*.<.=.>.=.-.=.1.1.2...+ F.=X-X:X:X",
"-X-X:X^.# ^ z.1.<.*.=.=.=.:.<.<.:.:.1.1.=.=.=.<.3.1.=.=.1.=.*.*.:.1.1.*.*.=.*.1.>.*.=.=.=.=.*.*.:.=.1.3.5.z.F u  X-X4X:X",
"=X:X4XM 5 f.z.1.4.=.1.1.=.:.=.:.=.=.1.=.=.=.:.*.<.1.1.=.1.*.4.=.=.*.=.*.=.1.=.=.*.1.<.=.1.*.1.:.*.<.1.1.-.c.q.% V.-X:X=X",
":X:X).@ / k.1.=.=.:.1.1.=.=.=.=.*.=.=.=.1.1.=.:.1.1.=.=.1.1.<.=.1.*.=.1.1.:.=.*.=.=.*.=.=.*.=.=.*.<.1.=.*.3.N.J u %X>X>X",
":X>X[ 1 d.3.<.5.>.=.1.<.=.=.=.>.<.<.=.=.1.=.*.*.=.1.=.=.1.<.1.=.=.*.1.=.*.1.=.*.=.:.=.1.=.=.*.1.5.<.1.1.=.=.x.+.+ P.=X:X",
"-X+Xu L B.<.*.-.-.<.1.1.=.=.=.1.1.<.=.=.=.=.=.-.=.=.=.1.1.1.=.=.*.1.=.*.=.*.=.1.=.1.:.1.=.*.=.=.<.<.1.=.-.>.=.N.q M =X:X",
":XT.# 9.j.*.:.-.*.=.<.1.=.=.1.<.<.1.1.=.1.=.=.=.=.=.1.=.1.1.=.=.=.=.=.1.1.*.*.=.1.=.*.*.1.*.1.1.=.1.1.=.=.=.*.k.~ $ [.:X",
":X' 2 n.j.1.-.-.=.=.*.=.=.=.<.1.<.1.1.=.=.=.-.=.=.=.1.<.3.1.=.=.*.1.*.*.=.=.=.=.*.=.1.=.*.=.=.:.1.=.1.=.=.-.5.x.y.$ I.>X",
"*Xh x v.2.1.1.=.=.<.=.=.=.=.1.1.1.1.=.=.1.<.>.*.=.=.*.2.,.,.1.-.*.5.*.*.*.*.1.=.=.1.1.=.4.=.1.=.=.=.1.1.=.=.<.3.d.5 ] >X",
"}.7 T x.<.1.=.=.1.<.=.=.=.=.=.1.1.=.=.=.=.1.*.4.1.=.*.x.T Y j.<.*.1.*.1.1.*.1.*.*.=.:.*.=.=.*.*.*.=.1.<.=.=.<.2.b.y m >X",
"Q.# +.2.1.=.1.1.1.1.1.1.1.=.=.=.=.>.=.-.=.<.<.1.=.1.1.,.5 ; %.2.5.<.=.1.=.*.=.=.=.=.=.=.=.=.=.=.=.=.<.1.=.*.*.2.x.! u %X",
"H.= w.4.=.-.5.1.1.1.1.1.1.1.=.-.=.1.=.=.=.:.<.<.1.3.z.O.X   T j.<.=.=.*.=.*.*.1.=.<.<.=.=.*.<.=.=.*.<.1.1.*.:.<.j.X.- ).",
"} 1 s.1.=.=.=.1.:.1.1.1.1.=.-.:.=.=.=.=.=.*.1.1.1.3.g.S 8 m 5 n.2.<.*.1.=.=.=.5.=.1.=.=.=.*.1.=.=.=.1.<.=.=.:.<.x.#.& `.",
"] 8 m.3.=.-.=.=.=.:.<.1.<.1.>.:.=.=.1.=.:.=.1.<.<.z.r.; S./.+ _ b.*.*.1.*.*.1.1.=.:.1.*.1.*.=.*.=.1.:.:.*.=.*.>.6.w.$ U.",
"A 0 n.3.1.-.-.*.*.*.1.1.*.=.=.=.*.=.1.<.<.4.=.=.=.b.! = '.=Xb l h.1.=.*.*.*.>.*.*.=.*.=.=.=.=.=.1.=.=.=.1.=.1.*.<.i.: K.",
"] q m.1.1.=.-.:.>.:.<.1.*.:.*.=.=.*.1.1.1.<.*.<.1.f.9 V =X=XL.o #.3.1.*.5.1.<.>.1.=.*.1.=.=.1.=.=.=.=.1.=.=.=.<.5.e.: K.",
"H q g.4.=.-.=.=.=.=.=.=.*.:.1.=.&.>.1.3.1.*.=.1.z.@.o W.:X:X@Xi y B.6.<.1.=.*.1.=.<.=.*.=.=.=.-.;.&.1.1.1.1.1.<.<.a.% K.",
"' 2 f.3.=.=.=.1.=.-.=.*.*.*.=.=.:.=.<.1.=.=.1.3.B.x f OX:X:X:XD.% y.z.2.=.1.1.1.=.=.=.*.=.=.=.:.;.;.1.1.=.=.<.1.c.#.# R.",
"D.= p.3.1.=.=.=.=.=.=.1.:.=.1.*.*.=.1.1.*.=.*.3.r.% V.=X-X:X:X|.= I k.5.=.*.*.<.=.=.=.=.*.=.1.=.:.*.1.1.1.*.=.1.c.O.# /.",
"P.* 0.6.1.=.=.=.-.=.1.1.1.4.*.=.*.1.1.1.<.=.*.z.U = ].:X:X:X:X=X[ , p.3.1.=.*.1.=.=.-.*.:.1.1.1.1.=.1.=.=.*.=.1.z.^ -  X",
"_.- ` c.4.*.1.1.=.=.<.1.<.:.=.=.=.1.=.1.<.<.4.f.9 V =X:X:X-X:X:X_.& ^ j.1.=.*.=.=.=.=.:.1.<.=.1.1.<.1.=.=.=.1.<.b.P a *X",
"&Xa P v.2.5.1.1.=.=.=.1.:.=.=.=.=.=.1.1.<.4.c.O.+ R.=X:X4X4X:X4X4XB 4 m.1.=.=.=.*.=.1.<.<.<.1.1.1.1.<.1.=.=.=.3.g.t B 4X",
":XC w m.2.4.1.1.1.=.=.=.*.>.*.*.=.=.*.<.<.3.g.x s *X*X:X-X-X:X:X:XW.# _ z.=.1.=.<.<.1.<.<.1.=.=.=.1.1.=.=.=.*.j.t., D.:X",
"=XG.% t.2.<.1.1.1.=.1.*.>.*.:.1.=.=.5.<.*.j.t.% S.4X:X:X-X-X:X:X:X*Xh z z.1.=.=.<.1.1.<.:.>.-.=.=.*.=.=.=.=.4.j._ # (.:X",
"=X].& ^ k.1.=.=.1.1.=.=.=.=.*.=.-.1.=.1.<.k.W = ].4X:X-X:X:X:X:X-X:XL.+ #.2.1.=.<.5.4.*.:.:.=.1.-.=.1.*.5.*.:.v.v f $X:X",
"-X$Xm l g.<.=.1.1.1.=.=.=.*.<.1.=.=.=.*.<.f.0 C >X:X4X:X:X:X4X:X=X:X.Xa S k.<.=.<.<.=.=.:.=.1.=.=.5.*.*.1.*.6.e.< C.=X4X",
":X=XK.o +.c.1.=.1.1.1.=.*.=.1.*.1.=.*.<.c. .+ R.4X4X-X:X-X=X:X:X-X:X:XC.% r.x.*.:.=.-.*.=.1.1.1.*.-.*.=.*.3.k.~ @ '.:X4X",
"-X:X@Xp y g.2.1.1.1.1.=.1.1.<.1.=.1.4.3.v.y f &X-X:X:X:X:X:X:X:X=X:X:X X= R B.1.*.:.=.1.1.1.1.1.=.=.*.1.1.2.d.4 B :X4X4X",
":X-X4XH.+ q.z.1.:.*.<.<.1.=.1.1.1.<.*.j.s.; S.:X:X-X:X:X4X4X:X=X:X-X:X=X] 1 p.2.=.-.=.1.1.3.1.1.<.1.<.<.3.N.) o ^.:X4X:X",
":X:X:X+Xd z m.3.=.*.*.1.<.=.=.=.<.1.*.b.! $ '.:X:X-X:X:X4X4X4X=X:X:X-X:X_.@ / k.1.-.=.1.1.1.*.*.-.=.=.2.b.p.< Z =X:X4X:X",
":X:X-X=XI.X ( z.4.:.<.<.1.=.=.=.*.4.=.h.9 V =X:X:X-X-X:X4X4X-X:X:X:X:X-X=XM w n.3.=.=.=.1.=.*.*.*.1.=.3.k.K * _.:X:X:X=X",
":X-X-X:X>XC , w.2.:.<.1.=.=.=.=.=.1.3.@.+ U.4X:X:X-X-X:X4X4X4X:X:X=X-X:X=XE.X ..j.<.1.=.=.-.*.*.=.*.1.z...+ F.:X=X:X=X:X",
"=X-X-X:X:X].i r n.x.3.5.*.=.1.1.&.7.g.D s &X4X4X:X:X:X:X:X:X:X:X=X=X-X4X=X*Xg l f.:.4.<.=.-.-.;.;.>.2.y.< M *X:X:X=X:X:X",
"=X-X-X:X:X:XT.+ L m.,.<.=.=.1.<.4.2.t.% S.4X4X:X:X:X4X4X:X:X-X:X=X-X:X:X4X=XJ.$ $.x.2.*.1.-.:.*.*.x.p.t i {.:X:X:X:X:X:X",
"-X-X:X:X:X=X=XG.X W k.2.5.*.>.-.*.x.~ $ [.4X4X:X:X:X:X4X:X:X:X:X:X-X:X:X:X:X@X6 J j.3.1.=.=.1.2.2.m.z & Q.:X:X:X:X:X:X4X",
":X:X-X:X:X:X=X=XC.X I g.2.4.5.*.4.d.q B =X4X:X:X:X:X4X4X:X:X:X:X:X:X:X4X:X:X=X} % y.x.<.1.<.3.z.M.r & T.=X:X=X:X:X4X4X4X",
">X4X4X4X:X:X:X=X=XV.o L m.2.<.2.2...# U.>X>X>X-X-X:X:X:X:X:X:X:X:X:X4X4X:X:X4X[.$ E k.<.=.6.z.a.r - U.=X:X:X:X-X4X:X:X:X",
">X>X4X4X:X:X:X:X=X=XF.@ t r.k.z.B.S s *X>X4X-X-X:X:X:X:X:X:X:X:X:X:X4X:X:X:X:X=X] 2 d.x.2.k.@.4 > W.=X:X:X-X-X:X4X:X:X:X",
"4X>X4X4X-X:X-X:X:X:X=XR.6 2 _ Y.Y.o D.>X:X-X=X:X:X:X:X:X:X:X:X:X:X:X:X:X:X:X=X=X(.@ / B.n.E $ k _.:X:X-X:X-X:X-X:X:X:X:X",
">X>X>X:X-X:X:X:X-X:X=X=X[.N X v Q & '.:X:X:X-X-X-X:X:X:X:X:X:X:X:X-X:X-X:X:X:X:X:XM q | q o { %X4X:X:X=X-X:X-X:X:X:X:X4X",
">X>X>X>X4X:X:X:X-X-X:X-X=X=XJ.j   A -X:X:X-X:X:X:X-X:X:X:X:X:X:X:X:X4X4X4X:X:X:X:X`.  O b ^.>X>X:X:X:X:X:X:X:X:X:X:X:X4X",
">X>X>X4X4X4X:X:X4X-X-X:X4X:X4XoXH.`.:X4X-X:X-X-X:X:X:X:X:X:X:X:X:X:X4X:X:X:X=X:X:X&XZ.L.&X-X4X:X:X:X=X:X:X:X:X:X:X:X:X4X",
"-X:X>X4X4X4X4X:X-X:X:X-X-X4X:X4X4X:X4X4X-X-X:X:X:X:X:X:X4X4X:X=X:X:X4X:X:X:X=X-X-X=X-X-X:X:X-X-X:X:X:X:X4X4X4X:X4X:X:X:X",
"-X:X:X:X4X4X4X:X:X:X:X4X:X:X4X:X:X4X4X4X:X:X=X:X4X:X:X:X:X:X:X:X:X:X4X4X:X:X:X:X=X-X:X:X:X-X:X-X:X:X:X=X:X4X4X:X4X:X:X:X"
};
