/* XPM */
static char *UGxlZnQ_[] = {
/* columns rows colors chars-per-pixel */
"60 60 227 2 ",
"   c #1B1B01",
".  c #221701",
"X  c #2E2B00",
"o  c #2B2608",
"O  c #332D01",
"+  c #332805",
"@  c #343202",
"#  c #3B3503",
"$  c #3D3B03",
"%  c #3B350C",
"&  c #3D3A0C",
"*  c #383611",
"=  c #3E3A16",
"-  c #433E03",
";  c #413E0A",
":  c #4C3C00",
">  c #423D15",
",  c #433E1A",
"<  c #464103",
"1  c #4A4303",
"2  c #44420B",
"3  c #4B450A",
"4  c #4C4C0A",
"5  c #514A0B",
"6  c #5B4B00",
"7  c #56530F",
"8  c #46411E",
"9  c #4A461C",
"0  c #5B5412",
"q  c #5B5614",
"w  c #544F15",
"e  c #635C13",
"r  c #645D1D",
"t  c #655C0D",
"y  c #696317",
"u  c #69641B",
"i  c #69671B",
"p  c #746C1E",
"a  c #494523",
"s  c #4D4A29",
"d  c #4E4928",
"f  c #524D2B",
"g  c #50472A",
"h  c #524E33",
"j  c #555331",
"k  c #5E5737",
"l  c #5E583B",
"z  c #4D4D2E",
"x  c #615D3E",
"c  c #6B6624",
"v  c #716A22",
"b  c #787527",
"n  c #61613D",
"m  c #7A7833",
"M  c #5F5C42",
"N  c #625D41",
"B  c #6A664C",
"V  c #6C6949",
"C  c #706B4E",
"Z  c #6F6952",
"A  c #716C53",
"S  c #7B745C",
"D  c #777458",
"F  c #7A7761",
"G  c #857F2A",
"H  c #827D23",
"J  c #847C33",
"K  c #877E5D",
"L  c #86822C",
"P  c #868228",
"I  c #8B8434",
"U  c #8E8833",
"Y  c #8A8534",
"T  c #948E3A",
"R  c #9A943B",
"E  c #979336",
"W  c #A19B38",
"Q  c #A89B28",
"!  c #ADA43F",
"~  c #B4A832",
"^  c #9D9544",
"/  c #9D9A42",
"(  c #85844C",
")  c #A49D4A",
"_  c #AFAA4A",
"`  c #ABA548",
"'  c #B1AC4D",
"]  c #B3AA45",
"[  c #AEAA51",
"{  c #B4AD53",
"}  c #BAB459",
"|  c #BDB95C",
" . c #B9B555",
".. c #BBB74C",
"X. c #89846C",
"o. c #8A8367",
"O. c #91886B",
"+. c #8D8873",
"@. c #97957A",
"#. c #9A967B",
"$. c #918B73",
"%. c #B8B46A",
"&. c #C3BE5B",
"*. c #C4BE60",
"=. c #BEC158",
"-. c #C5C35C",
";. c #CAC45B",
":. c #CAC457",
">. c #D4CD5C",
",. c #D1C75C",
"<. c #D7D25D",
"1. c #E4DA5F",
"2. c #EEE74D",
"3. c #F6ED47",
"4. c #F4E64B",
"5. c #F6ED4D",
"6. c #F9EE4E",
"7. c #F5F04C",
"8. c #F9F14E",
"9. c #EEE659",
"0. c #EEE95C",
"q. c #EDE556",
"w. c #F6ED52",
"e. c #F9ED52",
"r. c #F4EC5B",
"t. c #F9ED5B",
"y. c #F6F152",
"u. c #FAF152",
"i. c #F5F15A",
"p. c #FBF15A",
"a. c #CAC665",
"s. c #D3CC66",
"d. c #D7CD6A",
"f. c #D5D161",
"g. c #DAD366",
"h. c #D5D36B",
"j. c #DBD46C",
"k. c #DFDA64",
"l. c #D4D079",
"z. c #E4DD6B",
"x. c #E6DC64",
"c. c #E8DF71",
"v. c #ECE563",
"b. c #E6E36C",
"n. c #EBE46C",
"m. c #EBE96A",
"M. c #E9E764",
"N. c #F4ED64",
"B. c #F9EE61",
"V. c #F4EC6B",
"C. c #F7EC68",
"Z. c #F6F162",
"A. c #FAF163",
"S. c #F6F06A",
"D. c #F9F16C",
"F. c #EBE471",
"G. c #EEEA72",
"H. c #E6E178",
"J. c #F2EB71",
"K. c #F1EB77",
"L. c #F8F373",
"P. c #001c3d",
"I. c #001c3d",
"U. c #001c3d",
"Y. c #001c3d",
"T. c #001c3d",
"R. c #001c3d",
"E. c #001c3d",
"W. c #001c3d",
"Q. c #001c3d",
"!. c #001c3d",
"~. c #001c3d",
"^. c #001c3d",
"/. c #001c3d",
"(. c #001c3d",
"). c #001c3d",
"_. c #001c3d",
"`. c #001c3d",
"'. c #001c3d",
"]. c #001c3d",
"[. c #001c3d",
"{. c #001c3d",
"}. c #001c3d",
"|. c #001c3d",
" X c #001c3d",
".X c #001c3d",
"XX c #001c3d",
"oX c #001c3d",
"OX c #001c3d",
"+X c #001c3d",
"@X c #001c3d",
"#X c #001c3d",
"$X c #001c3d",
"%X c #001c3d",
"&X c #001c3d",
"*X c #001c3d",
"=X c #001c3d",
"-X c #001c3d",
";X c #001c3d",
":X c #001c3d",
">X c #001c3d",
",X c #001c3d",
"<X c #001c3d",
"1X c #001c3d",
"2X c #001c3d",
"3X c #001c3d",
"4X c #001c3d",
"5X c #001c3d",
"6X c #001c3d",
"7X c #001c3d",
"8X c #001c3d",
"9X c #001c3d",
"0X c #001c3d",
"qX c #001c3d",
"wX c #001c3d",
"eX c #001c3d",
"rX c #001c3d",
"tX c #001c3d",
"yX c #001c3d",
"uX c #001c3d",
"iX c #001c3d",
"pX c #001c3d",
"aX c #001c3d",
"sX c #001c3d",
"dX c #001c3d",
"fX c #001c3d",
"gX c #001c3d",
/* pixels */
"0X0XsXsXsXsXyXyX9XyXsXwXwXsX9XyX9X0XeXsXsXsX4XOX~.E.$.o.K o.o.$.E.|.-X8XsXwXwXwXwXsXsXeXsXyXsXyX0XyXrXyXsXrXrXrXyXyXsXsX",
"eXeXsXsXsXsXyX0XeXgXsXwXwXsXsX0X0X0X0X*XW.D s = # - 3 w 0 5 6 1 $ @ > l +.{.3XyXsXsXeXsXyXsXsXsXyXyX0XsXsXrXrXrXyXyXsXsX",
"sXsXsXsXsXsXyXeX0XyXrXwXwXyXyXyX4X!.V = 3 i R ..>.x.b.m.G.m.m.b.<.:.] G 0 # a +. XsXsXsX8XyXyX8XyXrXrX0XyXsXrX0XyXyXsXsX",
"sXsXsXsXsXsXyXeXyX0XrXsXrXrX3XE.g # r ) s.n.N.9.i.i.r.w.y.y.y.y.r.r.N.J.c.*.I 5 % Z }.0X0XyXyXsXsXsXsXrXyXsXsXyXyXyXsXsX",
"yXsXyXrXyXrXrXeXyXyXyXrXrX~.s $ H ,.G.V.N.w.5.5.e.e.e.e.i.i.e.w.4.e.e.t.r.N.C.b.' u # S ;XrXrXsXeXeXsXeXsXsXsXyXyXyXyXyX",
"yX0XyXyXrXeXsXeXyXyX0X$XS O v ;.m.i.w.i.4.5.6.6.6.e.e.e.e.e.e.6.e.e.e.e.6.7.y.r.V.c.) 2 > Q.wXwXsX0XeXyXsXsXrXsXyXyXyXyX",
"sXsXyXyXyXeXeXeXrXrX_.g 5 ' G.C.w.e.w.w.u.u.6.5.e.e.6.6.6.6.6.e.e.e.e.w.6.7.7.6.w.i.V.k.G @ K 1X8XyXsXsXsXsXeXyX0XyXyXsX",
"sXsXsXyXyXyXyX0X8XW.% r d.N.r.w.u.5.e.5.w.w.w.u.e.e.6.6.6.6.6.6.e.e.e.u.6.5.7.8.6.5.y.r.n.{ @ x &X6XyXsXsXsXsXyXyXyX0XyX",
"rXsXrXsXsXsXyX0X#.O E b.N.r.e.6.6.8.8.6.6.6.e.e.e.6.6.6.5.5.6.3.6.6.w.w.6.5.6.7.5.u.w.u.N.J.:.e > XXyXsXwXsX0X0XyX0XyXyX",
"sXrXeXrXsX0X0X#.O R M.r.w.e.e.e.6.6.6.6.w.6.6.6.w.6.6.5.5.5.8.6.6.6.w.6.w.7.8.6.6.e.6.e.w.w.S.g.0 = XXyX0XsXyXyXyXyXyX0X",
"sXeXrXsXyX0XU.O W M.i.2.e.e.6.4.6.e.6.6.6.6.6.6.6.6.6.5.6.7.6.7.6.y.w.e.7.8.6.6.6.6.e.e.e.w.0.Z.h.y d #X0XsXsX8XsXyXyX0X",
"yXyXeXyX0X'.O G m.i.2.y.e.e.6.6.e.6.e.w.6.6.6.6.6.6.6.5.6.w.6.6.6.6.w.e.w.6.6.6.e.e.w.5.w.7.5.e.V.h.3 x 7XyXyXyXsXyXyXyX",
"yXyXsXrX#X, v F.i.y.u.6.w.u.6.6.6.6.6.6.6.6.6.e.e.e.6.w.6.7.w.7.6.3.6.e.e.e.6.6.e.w.e.e.e.6.6.e.w.N.| < $.8XyXyXsXsXsXsX",
"0X0XsX0XA 3 z.r.y.2.u.w.7.6.6.6.6.6.6.6.6.6.e.e.e.e.w.6.w.6.w.6.3.6.6.e.e.e.e.6.e.5.w.w.4.6.6.4.y.w.G.) X `.yXsXsXsXsXsX",
"yXyXsX/.% { V.t.6.e.e.w.u.6.y.6.e.e.6.6.6.6.6.6.e.e.w.6.e.6.6.6.6.5.e.t.e.e.6.6.u.8.u.y.6.6.e.e.e.w.N.G.i d 3XsXsXsXsX0X",
"yXyX4Xz m H.V.e.w.e.p.e.w.8.7.6.e.6.6.6.5.6.7.7.y.w.e.u.e.6.6.6.8.6.e.e.e.e.6.6.7.6.6.5.6.e.4.e.6.e.w.S.a.< #.0XsXsXyXyX",
"9XqXW.  ( l.J.q.e.e.e.w.w.w.6.6.4.6.6.6.6.e.5.e.6.w.8.6.5.6.6.6.3.3.u.w.w.e.6.6.6.6.6.6.6.6.6.6.5.6.w.r.r.R % ;XeXsXeXeX",
"qX9X@XS = - L :.J.S.B.p.t.w.6.8.6.6.3.6.6.y.e.w.w.6.6.6.5.6.6.6.3.5.w.e.w.w.y.7.w.u.6.6.6.6.6.6.6.5.t.t.w.1.: @.yXeXqXeX",
"sXsXsXyX=XR.g @ 0 R g.v.N.w.w.6.6.6.6.e.y.y.5.i.6.6.6.6.6.e.6.e.6.6.4.e.u.w.e.w.e.w.6.6.6.6.e.e.6.6.4.e.w.S.U 9 ,XeXeXeX",
"sXrXsXsXrXsX8X(.D ; < H ;.n.V.B.t.t.e.e.2.y.7.7.6.6.6.6.6.6.e.6.w.e.e.e.w.6.6.6.w.w.5.6.6.6.6.e.6.6.w.w.w.B.a.# /.sXsXeX",
"rXrXrXrXsXsXsXyX0X*XU.j + 0 ^ g.J.C.r.r.6.8.6.6.6.3.6.3.6.6.6.6.6.4.e.6.6.6.6.6.6.e.6.6.6.6.e.e.6.4.6.6.w.A.b.p B eXsXsX",
"yXyX8XwXsXeXeXqXsXsXwX8X`.D > 1 G &.G.D.N.e.u.4.6.6.6.6.3.6.6.6.e.e.e.6.6.6.6.6.e.e.e.6.6.6.e.e.6.6.6.6.e.w.C.` * ,XsXsX",
"wXsXsXwXeXeXsXsXeXeXsX0X0X0X#XP.f # 7 W g.0.N.w.e.8.4.6.6.6.6.e.e.t.6.6.6.6.e.e.e.t.w.6.6.6.6.6.e.6.6.6.6.w.A.f.# ^.yXyX",
"sXyXsXsXsXsXsXsXsXsX0XyXyXyXsXsX4X_.S # 1 P -.n.D.B.t.t.e.e.6.e.e.e.e.6.6.6.6.e.e.e.e.5.6.6.6.6.6.6.6.6.6.w.e.m.4 $.0XyX",
"sXsXyX0XyXyXyXsXyXsXyXyXyXyXsXsXrXsX0X*XR.s @ w ^ d.n.A.w.i.5.7.5.w.y.y.6.6.6.6.6.6.7.5.5.6.w.5.e.e.6.6.6.4.e.J.b n 9XyX",
"yXyXyXyXyXyXyXsXyXyXyXyXyXeXsXsXsXsXsXyXeXgX].S 8 2 G -.n.S.Z.0.p.w.7.6.6.7.7.6.7.6.5.5.6.w.e.e.e.e.6.6.6.e.e.C.T a 7X0X",
"0X0XyXsXyXyXyXsX0XyXyXsXsXsXsXsXrXrXsXsXsXyXyX8X#XU.f X 7 / h.M.r.w.3.4.7.5.y.6.w.w.w.5.w.w.e.w.e.e.6.6.6.e.e.B.[ $ ;X0X",
"yXyXyXsXsXsXyXyXyXyXyXsXsXsXsXsXyXeX0XyXsXyXsXsXyXyX5X'.D & 2 L :.v.r.5.6.5.u.i.w.w.5.6.w.6.e.6.4.6.6.e.e.e.u.C.| < .XyX",
"0XyXsXsXsXsXsXyXyXyXyXsXsXsXsXyX0X0XyXyXsXsXyX0X0X0X0X0XeX*XT.z + 6 ~ q.e.7.e.e.w.w.8.6.3.6.6.6.6.6.w.7.6.e.e.N.a.2 .XeX",
"yXsXsXsXsXsXyXyX0XyXsXsXsXsXyX0X9X0XyXyXsXsXyX0X0XyX0XyX0X8X XZ . : Q 1.w.5.e.e.w.w.8.3.6.6.6.6.6.e.7.6.6.6.u.N.a.2 .XeX",
"yXsXsXsXsXyXyX0X0XsXsXsXsXsX0XyX0XrXsXwXeXsXeXeXsXsX8X4X^.x @ q ] x.S.w.w.w.u.6.6.6.6.6.e.e.e.6.6.6.y.7.6.6.u.N.a.& |.eX",
"yXsXsXsXsXyXyXyXyXsXsXsXwXsXyXyXsXsXsXsXsXeXyXyX0X-XR.s O u } c.N.r.w.w.w.w.6.6.6.6.6.6.e.e.6.6.6.6.w.w.8.6.u.N.a.2 .XyX",
"9X0XsXsXyXyXrXwX8XyXyXrXrXsX8XsX9XyX0XsXeXsXrXoXo.3 : P ,.V.D.t.w.w.e.w.w.6.8.6.6.6.e.6.w.e.6.6.4.u.w.e.6.8.6.C.} & %XsX",
"0XyXyXyXrXrXrXrXsX8X0XsXrXsXsXrXeXeX0XyX6X{.C % 1 T s.V.A.w.6.6.e.w.6.6.6.8.w.6.6.y.7.6.8.6.6.5.7.6.6.u.6.6.6.C.[ & ,XsX",
"sXsXsXsX0XeXyXrXwXsXsXsXeX8XsXrX8X0X2X!.l O y ` z.C.B.r.r.w.7.u.6.6.6.6.6.w.6.6.6.6.w.6.6.6.w.6.e.6.8.6.6.e.e.D.U 9 7XsX",
"sXsXsXsXrXeXyXyXsXeXsXeXyXyXyXyX-XP.a O c } z.C.B.t.w.w.w.7.y.8.y.6.6.w.6.e.7.w.6.6.7.e.w.6.8.y.6.6.8.6.6.e.e.J.p V 0X0X",
"wXsXsXsXsXqXeXyXrXsXsXwX8X0XXXX.> : I d.G.D.r.w.e.w.w.u.u.7.4.e.6.6.6.8.w.6.8.6.8.w.7.6.6.e.u.6.e.6.6.e.t.e.t.b.3 #.6X0X",
"sXsXeXsXsXeXeXyXyX0XyX5X}.V @ 1 R d.F.v.r.u.7.8.w.e.u.4.6.u.6.6.6.6.6.w.6.6.6.w.6.6.w.6.6.7.6.6.6.6.e.e.e.w.t.s.X |.0X0X",
"sXsX0XeXrXeXsXwX0X2X!.k $ e ' z.C.B.t.w.w.5.5.7.6.6.7.6.6.e.e.e.6.6.6.6.7.w.8.6.6.w.w.6.6.w.6.6.6.e.e.e.w.9.m.R 8 4XyXyX",
"sXeXeXsXrXrX8X-XY.8 O v  .z.D.w.6.5.6.6.6.8.6.6.5.7.6.u.e.6.6.e.e.6.w.7.e.6.6.6.6.8.6.6.6.6.6.6.e.e.e.e.w.B.b.e S sXsXsX",
"9XsXeXsX0XXXo.& 1 U >.m.C.r.r.r.w.e.e.e.6.6.6.6.6.6.6.6.6.6.6.6.w.6.8.w.w.6.8.w.6.6.6.7.6.6.w.6.5.e.6.e.e.N.=.@ '.wXwXsX",
"sXeXgX_.C + 1 ^ g.v.p.i.w.5.w.i.w.w.8.e.6.6.6.6.6.6.6.6.6.6.6.6.7.6.6.6.8.6.6.6.6.6.w.7.6.6.6.y.5.6.e.e.e.v.m j 5XrXsX0X",
"rXsXI.. c _ b.C.B.r.w.6.7.7.7.w.w.y.6.6.6.6.6.6.6.e.e.6.e.7.7.u.e.6.e.6.6.6.7.e.6.6.6.w.6.6.6.6.w.y.6.e.r.>.@ W.rXrXyX0X",
"wXrX/.o %.K.Z.5.e.e.w.6.6.5.6.i.7.w.7.6.e.6.e.e.e.e.6.w.6.w.e.7.7.6.7.6.6.w.6.6.6.w.6.6.6.6.w.7.u.w.e.r.V.P s <XwX0X0X0X",
"yX0X0XN q H.0.7.6.6.e.e.u.6.5.5.6.6.6.6.6.6.6.e.4.w.6.6.7.e.w.e.e.w.8.6.w.6.8.6.w.6.6.6.6.5.w.w.w.w.q.D.} O Q.sXyXyX0XyX",
"0XyXrX[.# R L.i.5.3.e.e.6.6.6.5.5.5.6.6.w.y.w.w.e.e.6.6.6.6.e.e.6.6.w.6.6.7.6.w.8.e.7.6.6.5.8.w.u.w.A.b.4 B 8XsX8X0XeXsX",
"0XyXwX0X$.# ;.M.y.5.e.e.6.6.6.5.6.6.e.e.e.e.w.u.6.6.6.6.6.6.6.6.7.w.6.8.6.w.6.u.6.6.6.6.6.8.6.6.6.r.M.L % +XwXsXsXsXeXqX",
"0XeXsXsX4Xl e j.N.6.e.e.6.6.6.6.5.6.e.w.e.w.w.y.6.6.6.6.6.6.7.6.6.6.6.6.6.6.6.6.w.7.w.y.6.w.6.w.p.S.` # W.wXsXsXrXeXeXqX",
"7X9XsXsXsX%X, r b.r.9.i.u.6.e.6.3.6.e.6.6.e.5.e.e.e.6.6.6.6.5.5.5.6.6.6.6.6.6.7.w.u.w.y.5.6.5.t.M.=.X X.0XwXyXyXyXsXsXsX",
"9X0XeXsXwXyX[.% b b.S.w.u.6.e.e.6.6.e.e.e.u.w.e.e.6.6.6.w.6.6.6.6.8.6.6.6.6.8.5.e.u.y.5.y.w.p.D.-.4 B <XsXsXyX0XyXsXyXyX",
"sXeXsXwXrXyXyX).+ v b.r.5.7.4.5.6.6.6.e.6.3.5.6.6.6.6.6.6.6.7.6.e.w.i.u.6.6.6.6.6.6.6.e.w.r.n.&.$ M ,XsXwXsX0XyXsXsXyXyX",
"sXsXsXsXsXyX0X0X_.% p s.S.r.5.w.u.6.6.6.6.6.6.6.3.8.6.6.6.6.7.y.e.w.e.6.4.6.6.6.u.u.e.w.N.G.' < B -XeXsXsX8XyXyXsXsXyXyX",
"sXsXyXyX0X0X0X0XyX}.g - | b.Z.5.w.y.u.u.6.3.8.8.6.6.w.w.e.w.e.6.5.6.6.5.6.t.e.e.6.4.9.C.c.I O F 4XsXsXyXyXyXyXsXsXsXsXyX",
"sXyXyXyXyX0X0XyXsXwX=XB # T k.V.r.i.w.w.6.6.6.6.6.w.w.w.5.w.e.e.3.5.5.6.e.e.e.t.t.N.J.;.e # R.0XyXyXyX0X0XyXsXsXyXyXyXyX",
"yXyX0XsXgXsXsXsXrXsXwX0XR.* 4 ` z.B.r.w.t.e.8.6.e.w.e.w.5.5.e.e.6.6.e.w.y.7.w.r.V.a.J X x .XyXsXyXyX0XyXyXsXsXsXyX0X0X0X",
"0X0X0XyXsXsXeXsXsXwXsXsXsX#XD + t ` z.J.C.N.r.w.t.w.e.w.6.e.e.e.e.t.t.r.Z.D.m.f.L < , W.4XwXsXrXsX0X0XyXsXsXsXyXyX0XyXyX",
"yXyXyXyXyXyX0X0X0XsXsXsXwXsX9X.XC % - m { h.G.m.0.i.i.w.5.6.e.e.r.B.J.c.a.) e + a U.-XyXyXeXsXsXsXsXsXsXsXsXsXyX0XyXyXyX",
"sXsXsXyXyX0X0XyXsXsXyXsXrXrXsXrXyXOX#.f $ 4 v T  .:.s.x.M.x.<.>.&.! G t - ; Z !.4XsXsXeXyXsXsXsXsXsXsXeXsXsXyX0X0XyXsXsX",
"sXsXsXsXsXyXsXsXwXsXsXsXeXrXeXsXsXyX0X7X.XW.D h = * % % ; ; @ @ + , N +.).2X0XyX0XeXeX9XyXyXwXsXsXsXsXsXsXyXyXyXyXyXsXsX",
"sXsXsXsXsXyXsXsXsXsXwXrXeXsXrXeXsXeX0X0XsXwXwXgX>X X].~.~.~.`. XOX<XwXwXrXrXyXsXyXyXeXeXyXyXsXyXsXeXyXyXyXyX0X0XyXsXsXsX"
};
