/* XPM */
static char *SU1HXzcwODItMS00X2RyYWdnZWRfMi1yZW1vdmViZy1wcmV2aWV3[] = {
/* columns rows colors chars-per-pixel */
"60 60 141 2 ",
"   c #1F1D07",
".  c #13120A",
"X  c #121611",
"o  c #1E221D",
"O  c #2C2B0C",
"+  c #312E06",
"@  c #312F09",
"#  c #363307",
"$  c #393606",
"%  c #3C3905",
"&  c #34340C",
"*  c #37380F",
"=  c #3C3B0E",
"-  c #222414",
";  c #262815",
":  c #2B2B13",
">  c #27261B",
",  c #232A1A",
"<  c #2C2C1C",
"1  c #333213",
"2  c #32311C",
"3  c #131F22",
"4  c #001C3D",
"5  c #1A2524",
"6  c #14242D",
"7  c #1D2629",
"8  c #06203E",
"9  c #0C223B",
"0  c #142535",
"q  c #1E2830",
"w  c #12263D",
"e  c #192A3D",
"r  c #222624",
"t  c #262C22",
"y  c #2B2B23",
"u  c #242A2B",
"i  c #2B2D2B",
"p  c #2F302C",
"a  c #323322",
"s  c #33332D",
"d  c #292F32",
"f  c #2A333D",
"g  c #323432",
"h  c #303338",
"j  c #34393C",
"k  c #464203",
"l  c #494503",
"z  c #4F4B02",
"x  c #42420B",
"c  c #47480B",
"v  c #4E4E0B",
"b  c #514D02",
"n  c #565101",
"m  c #595501",
"M  c #645F00",
"N  c #676200",
"B  c #6C6600",
"V  c #6F6900",
"C  c #736C00",
"Z  c #7B7500",
"A  c #7F7900",
"S  c #041F40",
"D  c #062141",
"F  c #0B2645",
"G  c #0E2847",
"H  c #0F2948",
"J  c #122A45",
"K  c #1A2C41",
"L  c #152E4C",
"P  c #1A314C",
"I  c #1C3451",
"U  c #263242",
"Y  c #2D3741",
"T  c #2E3946",
"R  c #25374D",
"E  c #2F3C4D",
"W  c #303A46",
"Q  c #3B3E42",
"!  c #323C4A",
"~  c #233A55",
"^  c #2A3B51",
"/  c #273E59",
"(  c #37414E",
")  c #3E434B",
"_  c #2F4055",
"`  c #2D425B",
"'  c #334254",
"]  c #34465D",
"[  c #3A475A",
"{  c #36485D",
"}  c #3B485A",
"|  c #314660",
" . c #354A62",
".. c #3B4E64",
"X. c #404449",
"o. c #4A4F55",
"O. c #45505F",
"+. c #4D545D",
"@. c #425367",
"#. c #4F5660",
"$. c #4A586B",
"%. c #525964",
"&. c #475A71",
"*. c #4D5E72",
"=. c #57616E",
"-. c #546375",
";. c #5A6675",
":. c #827B00",
">. c #8B8400",
",. c #938B00",
"<. c #9D9500",
"1. c #A29A00",
"2. c #ABA200",
"3. c #B1A700",
"4. c #B4AA00",
"5. c #B8AE00",
"6. c #BBB200",
"7. c #C1B700",
"8. c #C5BB00",
"9. c #C8BE00",
"0. c #CDC200",
"q. c #D1C600",
"w. c #D5CA00",
"e. c #D9CE00",
"r. c #DDD100",
"t. c #E3D600",
"y. c #E6DA00",
"u. c #EADE00",
"i. c #EDE100",
"p. c #EEE200",
"a. c #F0E400",
"s. c #F2E500",
"d. c #F4E700",
"f. c #F5E800",
"g. c #F9EB00",
"h. c #FAED00",
"j. c #FBED00",
"k. c #FEEF00",
"l. c #FEF000",
"z. c #FFF000",
"x. c #FFF100",
/* pixels */
"4 4 4 4 4 4 4 4 4 4 4 4 4 4 4 4 4 4 4 4 4 4 4 4 4 4 4 4 4 4 4 4 4 4 4 4 4 4 4 4 4 4 4 4 4 4 4 4 4 4 4 4 4 4 4 4 4 4 4 4 ",
"4 4 4 4 4 4 4 4 4 4 4 4 4 4 4 4 4 4 4 4 4 4 4 4 4 w t 1 = c v v v x * 1 u J 4 4 4 4 4 4 4 4 4 4 4 4 4 4 4 4 4 4 4 4 4 4 ",
"4 4 4 4 4 4 4 4 4 4 4 4 4 4 4 4 4 4 4 4 4 e ; z :.4.q.y.p.f.j.j.f.p.p.r.7.,.N & q 4 4 4 4 4 4 4 4 4 4 4 4 4 4 4 4 4 4 4 ",
"4 4 4 4 4 4 4 4 4 4 4 4 4 4 4 4 4 4 J r l ,.w.a.k.z.j.j.z.j.j.j.j.j.j.z.z.z.j.y.4.N : K 4 4 4 4 4 4 4 4 4 4 4 4 4 4 4 4 ",
"4 4 4 4 4 4 4 4 4 4 4 4 4 4 4 4 R r m 4.a.z.z.j.j.j.j.j.j.j.j.j.j.j.j.j.j.j.j.j.z.j.w.A O U 4 4 4 4 4 4 4 4 4 4 4 4 4 4 ",
"4 4 4 4 4 4 4 4 4 4 4 4 4 4 P d k 4.f.z.k.j.j.j.j.j.j.j.j.j.j.j.j.j.j.j.j.j.j.j.j.j.z.j.e.V - ^ 4 4 4 4 4 4 4 4 4 4 4 4 ",
"4 4 4 4 4 4 4 4 4 4 4 4 4 _ - :.u.z.j.j.j.j.j.j.j.j.j.j.j.j.j.j.j.j.j.j.j.j.j.j.j.j.j.j.z.j.6.% f 4 4 4 4 4 4 4 4 4 4 4 ",
"4 4 4 4 4 4 4 4 4 4 4 4 E $ 6.j.k.j.j.j.j.j.j.j.j.j.j.j.j.j.j.j.j.j.j.j.j.j.j.j.j.j.j.j.j.j.z.t.B r ~ 4 4 4 4 4 4 4 4 4 ",
"4 4 4 4 4 4 4 4 4 4 4 f z e.k.j.j.j.j.j.j.j.j.j.j.j.j.j.j.j.j.j.j.j.j.j.j.j.j.j.j.j.j.j.j.j.j.k.f.>.- ` 4 4 4 4 4 4 4 4 ",
"4 4 4 4 4 4 4 4 4 4 f n y.z.j.j.j.j.j.j.j.j.j.j.j.j.j.j.j.j.j.j.j.j.j.j.j.j.j.j.j.j.j.j.j.j.j.j.z.j.<.- { 4 4 4 4 4 4 4 ",
"4 4 4 4 4 4 4 4 4 U n y.k.j.j.j.j.j.j.j.j.j.j.j.j.j.j.j.j.j.j.j.j.j.j.j.j.j.j.j.j.j.j.j.j.j.j.j.j.k.z.<.o ] 4 4 4 4 4 4 ",
"4 4 4 4 4 4 4 4 R k t.k.j.j.j.j.j.j.j.j.j.j.j.j.j.j.j.j.j.j.j.j.j.j.j.j.j.j.j.j.j.j.j.j.j.j.j.j.j.j.j.k.,.r ` S 4 4 4 4 ",
"4 4 4 4 4 4 4 J + q.k.j.j.j.j.j.j.j.j.j.j.j.j.j.j.j.j.j.j.j.j.j.j.j.j.j.j.j.j.j.j.j.j.j.j.j.j.j.j.j.j.j.f.V f L 4 4 4 4 ",
"4 4 4 4 4 4 4 o 2.z.j.j.j.j.j.j.j.j.j.j.j.j.j.j.j.j.j.j.j.j.j.j.j.j.j.j.j.j.j.j.j.j.j.j.j.j.j.j.j.j.j.j.z.y.l ' S 4 4 4 ",
"4 4 4 4 4 4 K V g.j.j.j.j.j.j.j.j.j.j.j.j.j.j.j.j.j.j.j.j.j.j.j.j.j.j.j.j.j.j.j.j.j.j.j.j.j.j.j.j.j.j.j.j.z.6.- ] 4 4 4 ",
"4 4 4 4 4 4 & r.k.j.j.j.j.j.j.j.j.j.j.j.j.j.j.j.j.j.j.j.j.j.j.j.j.j.j.j.j.j.j.j.j.j.j.j.j.j.j.j.j.j.j.j.j.j.z.Z Y F 4 4 ",
"4 4 4 4 4 8 ,.z.j.j.j.j.j.j.j.j.j.j.j.j.j.j.j.j.j.j.j.j.j.j.j.j.j.j.j.j.j.j.j.j.j.j.j.j.j.j.j.j.j.j.j.j.z.j.u.,.X / 4 4 ",
"4 4 4 4 4 % u.j.j.j.j.j.j.j.j.j.j.j.j.j.j.j.j.j.j.j.j.j.j.j.j.j.j.j.j.j.j.j.j.j.j.j.j.j.j.j.j.j.j.z.z.f.0.A & u ^ L 4 4 ",
"4 4 4 4 4 ,.z.j.j.j.j.j.j.j.j.j.j.j.j.j.j.j.j.j.j.j.j.j.j.j.j.j.j.j.j.j.j.j.j.j.j.j.j.j.j.j.j.k.z.y.2.n ; ! { H 4 4 4 4 ",
"4 4 4 4 , r.z.j.j.j.j.j.j.j.j.j.j.j.j.j.j.j.j.j.j.j.j.j.j.j.j.j.j.j.j.j.j.j.j.j.j.j.j.j.k.z.f.0.A $ i [ / D 4 4 4 4 4 4 ",
"4 4 4 4 N j.j.j.j.j.j.j.j.j.j.j.j.j.j.j.j.j.j.j.j.j.j.j.j.j.j.j.j.j.j.j.j.j.j.j.j.j.z.z.y.2.m , T ` 4 4 4 4 4 4 4 4 4 4 ",
"4 4 4 8 2.z.j.j.j.j.j.j.j.j.j.j.j.j.j.j.j.j.j.j.j.j.j.j.j.j.j.j.j.j.j.j.j.j.j.j.z.f.0.A 1 u R 4 4 4 4 4 4 4 4 4 4 4 4 4 ",
"4 4 4 , r.k.j.j.j.j.j.j.j.j.j.j.j.j.j.j.j.j.j.j.j.j.j.j.j.j.j.j.j.j.j.j.j.z.k.y.2.m ; T 4 4 4 4 4 4 4 4 4 4 4 4 4 4 4 4 ",
"4 4 4 b f.j.j.j.j.j.j.j.j.j.j.j.j.j.j.j.j.j.j.j.j.j.j.j.j.j.j.j.j.j.k.z.f.0.:.$ i } 4 4 4 4 4 4 4 4 4 4 4 4 4 4 4 4 4 4 ",
"4 4 4 Z z.j.j.j.j.j.j.j.j.j.j.j.j.j.j.j.j.j.j.j.j.j.j.j.j.j.j.j.k.k.y.2.m : X...4 4 4 4 4 4 4 4 4 4 4 4 4 4 4 4 4 4 4 4 ",
"4 4 9 <.z.j.j.j.j.j.j.j.j.j.j.j.j.j.j.j.j.j.j.j.j.j.j.j.j.z.z.f.0.:.$ p %.&.4 4 4 4 4 4 4 4 4 4 4 4 4 4 4 4 4 4 4 4 4 4 ",
"4 4 0 5.z.j.j.j.j.j.j.j.j.j.j.j.j.j.j.j.j.j.j.j.j.j.j.z.z.y.2.m : ) ;. .S 4 4 4 4 4 4 4 4 4 4 4 4 4 4 4 4 4 4 4 4 4 4 4 ",
"4 4 r 0.z.j.j.j.j.j.j.j.j.j.j.j.j.j.j.j.j.j.j.j.j.z.f.0.A $ p %.-.I 4 4 4 4 4 4 4 4 4 4 4 4 4 4 4 4 4 4 4 4 4 4 4 4 4 4 ",
"4 4 t e.z.j.j.j.j.j.j.j.j.j.j.j.j.j.j.j.j.j.j.j.f.2.m   ) -...F 4 4 4 4 4 4 4 4 4 4 4 4 4 4 4 4 4 4 4 4 4 4 4 4 4 4 4 4 ",
"4 4 t r.z.j.j.j.j.j.j.j.j.j.j.j.j.j.j.j.j.j.j.j.d.1.% . %.*.L 4 4 4 4 4 4 4 4 4 4 4 4 4 4 4 4 4 4 4 4 4 4 4 4 4 4 4 4 4 ",
"4 4 t r.z.j.j.j.j.j.j.j.j.j.j.j.j.j.j.j.j.j.j.j.k.z.p.2.n ; o.-.~ 4 4 4 4 4 4 4 4 4 4 4 4 4 4 4 4 4 4 4 4 4 4 4 4 4 4 4 ",
"4 4 t w.j.j.j.j.j.j.j.j.j.j.j.j.j.j.j.j.j.j.j.j.j.j.j.z.f.8.B O ) -. .8 4 4 4 4 4 4 4 4 4 4 4 4 4 4 4 4 4 4 4 4 4 4 4 4 ",
"4 4 0 9.z.j.j.j.j.j.j.j.j.j.j.j.j.j.j.j.j.j.j.j.j.j.j.j.j.k.j.w.:.# g -.&.F 4 4 4 4 4 4 4 4 4 4 4 4 4 4 4 4 4 4 4 4 4 4 ",
"4 4 w 4.z.j.j.j.j.j.j.j.j.j.j.j.j.j.j.j.j.j.j.j.j.j.j.j.j.j.j.k.j.t.<.k y %.-.D 4 4 4 4 4 4 4 4 4 4 4 4 4 4 4 4 4 4 4 4 ",
"4 4 4 ,.z.j.j.j.j.j.j.j.j.j.j.j.j.j.j.j.j.j.j.j.j.j.j.j.j.j.j.j.j.k.z.p.3.m - o.-.P 4 4 4 4 4 4 4 4 4 4 4 4 4 4 4 4 4 4 ",
"4 4 4 C z.j.j.j.j.j.j.j.j.j.j.j.j.j.j.j.j.j.j.j.j.j.j.j.j.j.j.j.j.j.j.k.k.g.8.V O ) ;./ 4 4 4 4 4 4 4 4 4 4 4 4 4 4 4 4 ",
"4 4 4 l a.k.j.j.j.j.j.j.j.j.j.j.j.j.j.j.j.j.j.j.j.j.j.j.j.j.j.j.j.j.j.j.j.j.k.j.e.:.$ g =.` 4 4 4 4 4 4 4 4 4 4 4 4 4 4 ",
"4 4 4 6 q.k.j.j.j.j.j.j.j.j.j.j.j.j.j.j.j.j.j.j.j.j.j.j.j.j.j.j.j.j.j.j.j.j.j.j.k.k.t.<.l y #.| D 4 4 4 4 4 4 4 4 4 4 4 ",
"4 4 4 4 <.z.j.j.j.j.j.j.j.j.j.j.j.j.j.j.j.j.j.j.j.j.j.j.j.j.j.j.j.j.j.j.j.j.j.j.j.j.k.k.p.4.m : )  .H 4 4 4 4 4 4 4 4 4 ",
"4 4 4 4 m f.j.j.j.j.j.j.j.j.j.j.j.j.j.j.j.j.j.j.j.j.j.j.j.j.j.j.j.j.j.j.j.j.j.j.j.j.j.k.k.z.f.9.C O W ] H 4 4 4 4 4 4 4 ",
"4 4 4 4 5 0.z.j.j.j.j.j.j.j.j.j.j.j.j.j.j.j.j.j.j.j.j.j.j.j.j.j.j.j.j.j.j.j.j.j.j.j.j.j.j.j.j.k.j.e.>.% d ^ 4 4 4 4 4 4 ",
"4 4 4 4 8 Z z.j.j.j.j.j.j.j.j.j.j.j.j.j.j.j.j.j.j.j.j.j.j.j.j.j.j.j.j.j.j.j.j.j.j.j.j.j.j.j.j.j.j.k.j.t.<.l 7 4 4 4 4 4 ",
"4 4 4 4 4 : e.z.j.j.j.j.j.j.j.j.j.j.j.j.j.j.j.j.j.j.j.j.j.j.j.j.j.j.j.j.j.j.j.j.j.j.j.j.j.j.j.j.j.j.j.k.k.p.4.m 4 4 4 4 ",
"4 4 4 4 8 w Z j.j.j.j.j.j.j.j.j.j.j.j.j.j.j.j.j.j.j.j.j.j.j.j.j.j.j.j.j.j.j.j.j.j.j.j.j.j.j.j.j.j.j.j.j.z.j.z.0.5 4 4 4 ",
"4 4 4 4 4 4 - 0.z.j.j.j.j.j.j.j.j.j.j.j.j.j.j.j.j.j.j.j.j.j.j.j.j.j.j.j.j.j.j.j.j.j.j.j.j.j.j.j.j.j.j.j.g.k.a.M G 4 4 4 ",
"4 4 4 4 4 4 K m p.j.j.j.j.j.j.j.j.j.j.j.j.j.j.j.j.j.j.j.j.j.j.j.j.j.j.j.j.j.j.j.j.j.j.j.j.j.j.j.j.j.j.j.k.k.1.r 4 4 4 4 ",
"4 4 4 4 4 4 4 q >.z.j.j.j.j.j.j.j.j.j.j.j.j.j.j.j.j.j.j.j.j.j.j.j.j.j.j.j.j.j.j.j.j.j.j.j.j.j.j.j.j.j.k.k.q.@ ~ 4 4 4 4 ",
"4 4 4 4 4 4 4 L o 4.z.j.j.j.j.j.j.j.j.j.j.j.j.j.j.j.j.j.j.j.j.j.j.j.j.j.j.j.j.j.j.j.j.j.j.j.j.j.j.j.j.k.u.b ( 4 4 4 4 4 ",
"4 4 4 4 4 4 4 4 ^ @ 0.k.j.j.j.j.j.j.j.j.j.j.j.j.j.j.j.j.j.j.j.j.j.j.j.j.j.j.j.j.j.j.j.j.j.j.j.j.j.j.z.a.B h D 4 4 4 4 4 ",
"4 4 4 4 4 4 4 4 4 ^ $ q.z.j.j.j.j.j.j.j.j.j.j.j.j.j.j.j.j.j.j.j.j.j.j.j.j.j.j.j.j.j.j.j.j.j.j.j.j.j.a.C i ~ 4 4 4 4 4 4 ",
"4 4 4 4 4 4 4 4 4 4 E % 0.z.j.j.j.j.j.j.j.j.j.j.j.j.j.j.j.j.j.j.j.j.j.j.j.j.j.j.j.j.j.j.j.j.j.j.z.p.C t ] 4 4 4 4 4 4 4 ",
"4 4 4 4 4 4 4 4 4 4 4 ' + 5.j.k.j.j.j.j.j.j.j.j.j.j.j.j.j.j.j.j.j.j.j.j.j.j.j.j.j.j.j.j.j.j.j.z.t.N i  .4 4 4 4 4 4 4 4 ",
"4 4 4 4 4 4 4 4 4 4 4 4 ' - ,.a.z.j.j.j.j.j.j.j.j.j.j.j.j.j.j.j.j.j.j.j.j.j.j.j.j.j.j.j.k.k.k.8.k Q / 4 4 4 4 4 4 4 4 4 ",
"4 4 4 4 4 4 4 4 4 4 4 4 4 ' u m 0.z.j.j.j.j.j.j.j.j.j.j.j.j.j.j.j.j.j.j.j.j.j.j.j.j.j.k.k.p.>.O +.I 4 4 4 4 4 4 4 4 4 4 ",
"4 4 4 4 4 4 4 4 4 4 4 4 4 4 L ( O :.r.z.j.j.j.j.j.j.j.j.j.j.j.j.j.j.j.j.j.j.j.j.j.j.z.p.4.l s ..D 4 4 4 4 4 4 4 4 4 4 4 ",
"4 4 4 4 4 4 4 4 4 4 4 4 4 4 4 4  .j # >.e.j.z.k.j.j.j.j.j.j.j.j.j.j.j.j.j.j.j.z.z.p.3.b > O.I 4 4 4 4 4 4 4 4 4 4 4 4 4 ",
"4 4 4 4 4 4 4 4 4 4 4 4 4 4 4 4 4 4 { Q O N 2.r.f.k.z.z.k.k.g.k.j.z.z.z.z.j.p.9.:.k y @.~ 4 4 4 4 4 4 4 4 4 4 4 4 4 4 4 ",
"4 4 4 4 4 4 4 4 4 4 4 4 4 4 4 4 4 4 4 4 4 ' d & n :.2.8.e.t.u.u.y.r.0.4.,.N % < ) $.P 4 4 4 4 4 4 4 4 4 4 4 4 4 4 4 4 4 ",
"4 4 4 4 4 4 4 4 4 4 4 4 4 4 4 4 4 4 4 4 4 4 4 8 ' ( j a 1 1 = x = 1 2 g ) %.@.~ D 4 4 4 4 4 4 4 4 4 4 4 4 4 4 4 4 4 4 4 ",
"4 4 4 4 4 4 4 4 4 4 4 4 4 4 4 4 4 4 4 4 4 4 4 4 S 4 4 4 S G I I ~ I P D 4 4 4 4 4 4 4 4 4 4 4 4 4 4 4 4 4 4 4 4 4 4 4 4 "
};
