/* XPM */
static char *UHVw[] = {
/* columns rows colors chars-per-pixel */
"60 60 218 2 ",
"   c #1C1804",
".  c #261A00",
"X  c #292600",
"o  c #2F2A00",
"O  c #292505",
"+  c #322D01",
"@  c #332F09",
"#  c #353101",
"$  c #3A3502",
"%  c #3D3901",
"&  c #36310A",
"*  c #39350B",
"=  c #3D3A0A",
"-  c #3A3210",
";  c #3D3914",
":  c #3F3D1A",
">  c #433C01",
",  c #413C0B",
"<  c #413704",
"1  c #433D1A",
"2  c #454203",
"3  c #4A4404",
"4  c #4A440C",
"5  c #49450B",
"6  c #534D05",
"7  c #5C5302",
"8  c #575409",
"9  c #585508",
"0  c #45431D",
"q  c #4C4916",
"w  c #565314",
"e  c #5A5618",
"r  c #52510D",
"t  c #625F0E",
"y  c #615C16",
"u  c #686418",
"i  c #736D1B",
"p  c #7E791E",
"a  c #7D761C",
"s  c #4A4523",
"d  c #4D4927",
"f  c #524D2E",
"g  c #504E25",
"h  c #534E31",
"j  c #5B5632",
"k  c #5D5A3C",
"l  c #4C4733",
"z  c #605B3D",
"x  c #6C6824",
"c  c #706A23",
"v  c #7D7A22",
"b  c #77702A",
"n  c #7B7626",
"m  c #7A7535",
"M  c #625D41",
"N  c #6C664C",
"B  c #6C694B",
"V  c #666244",
"C  c #706D4E",
"Z  c #746E54",
"A  c #747257",
"S  c #76725B",
"D  c #7F795F",
"F  c #797457",
"G  c #6D6B54",
"H  c #7C7A65",
"J  c #817C1E",
"K  c #827D27",
"L  c #837D35",
"P  c #847B5E",
"I  c #827C62",
"U  c #86841F",
"Y  c #89852C",
"T  c #918C2E",
"R  c #8A8432",
"E  c #8F893F",
"W  c #938E37",
"Q  c #949236",
"!  c #A39C32",
"~  c #ABA53E",
"^  c #AAA237",
"/  c #8D8747",
"(  c #999342",
")  c #9A974A",
"_  c #978F44",
"`  c #A19B43",
"'  c #A39F4B",
"]  c #ADA946",
"[  c #A9A448",
"{  c #B3AB46",
"}  c #B9B44B",
"|  c #ADA952",
" . c #B4AE54",
".. c #B0A958",
"X. c #BBB659",
"o. c #BEBA55",
"O. c #84836C",
"+. c #8D876D",
"@. c #908C6F",
"#. c #8B8872",
"$. c #938E79",
"%. c #99977D",
"&. c #BBB966",
"*. c #C3BE5C",
"=. c #C2BB63",
"-. c #C5C051",
";. c #CBC455",
":. c #C5C15A",
">. c #CBC75B",
",. c #D1CB5A",
"<. c #D2C75B",
"1. c #D7D25D",
"2. c #CAC14C",
"3. c #E1DB5F",
"4. c #F6EE4E",
"5. c #F9EE4E",
"6. c #F2EA47",
"7. c #F6F04D",
"8. c #F9F14E",
"9. c #ECE35B",
"0. c #F6ED52",
"q. c #F9EE52",
"w. c #F5EE5C",
"e. c #F9EF59",
"r. c #F0E45E",
"t. c #F6F053",
"y. c #FAF152",
"u. c #F6F05C",
"i. c #F9F15C",
"p. c #CBC665",
"a. c #D3CB68",
"s. c #DDD966",
"d. c #D5D26A",
"f. c #DBD56B",
"g. c #DDD96C",
"h. c #DAD465",
"j. c #DDD87C",
"k. c #E1DA65",
"l. c #E2DB6E",
"z. c #E1DD71",
"x. c #DDE06F",
"c. c #EDEC63",
"v. c #E6E26D",
"b. c #EBE56C",
"n. c #EEEA6D",
"m. c #EBE367",
"M. c #F4ED63",
"N. c #F3ED6C",
"B. c #F8EF68",
"V. c #F6F063",
"C. c #FAF163",
"Z. c #F5F16A",
"A. c #F9F16C",
"S. c #EBE572",
"D. c #EDEA72",
"F. c #F3ED73",
"G. c #F4EF7A",
"H. c #F5F071",
"J. c #001c3d",
"K. c #001c3d",
"L. c #001c3d",
"P. c #001c3d",
"I. c #001c3d",
"U. c #001c3d",
"Y. c #001c3d",
"T. c #001c3d",
"R. c #001c3d",
"E. c #001c3d",
"W. c #001c3d",
"Q. c #001c3d",
"!. c #001c3d",
"~. c #001c3d",
"^. c #001c3d",
"/. c #001c3d",
"(. c #001c3d",
"). c #001c3d",
"_. c #001c3d",
"`. c #001c3d",
"'. c #001c3d",
"]. c #001c3d",
"[. c #001c3d",
"{. c #001c3d",
"}. c #001c3d",
"|. c #001c3d",
" X c #001c3d",
".X c #001c3d",
"XX c #001c3d",
"oX c #001c3d",
"OX c #001c3d",
"+X c #001c3d",
"@X c #001c3d",
"#X c #001c3d",
"$X c #001c3d",
"%X c #001c3d",
"&X c #001c3d",
"*X c #001c3d",
"=X c #001c3d",
"-X c #001c3d",
";X c #001c3d",
":X c #001c3d",
">X c #001c3d",
",X c #001c3d",
"<X c #001c3d",
"1X c #001c3d",
"2X c #001c3d",
"3X c #001c3d",
"4X c #001c3d",
"5X c #001c3d",
"6X c #001c3d",
"7X c #001c3d",
"8X c #001c3d",
"9X c #001c3d",
"0X c #001c3d",
"qX c #001c3d",
"wX c #001c3d",
"eX c #001c3d",
"rX c #001c3d",
"tX c #001c3d",
/* pixels */
"2XeXeXeXeXeXeXeXeXeX5XeXeXeXeXeXtXeXeXeXeXeXeXeXeX5XeXeXeXeXeXeX2X5XeXeXeXeXeXeX5X5X5X5XeXeXeXtXtXtX5X5X7X5X1XeXeXeXeXeX",
"eXeXeXeXeXeXeXeXeXeX2XeXeXeXeXeXeXeXeXeXeX5XeXeXeXeXeXeXeXeXeXeXeXeXeXeXeXeXeXeXeX5X5X5X5X5XtXeXeXeXeXeX5X7X5XeXeXeXeXeX",
"eXeXeXeXeXeXeXeXeXeX2XeXeXeXeX1XW.L.<X5X2X5X5XeXeXeXeXeXeXeXeXeXeXeXeXeXeXeXeXeXeXeX XW.-X7X5XeXeXtXeXeXeXeXeXeXeXeXeXeX",
"eXeXeXeXeXeX5XeXeXeXeX2XeXeX[.M O   _.5X2X5X5XeXeXeXeXeXeXeXeXeXeXeXeXeXeXeXeXeXeX1XH   l ~.5X5XeXeXeXeXeXeXeXeXeXeXeXeX",
"eXeXeXeXeX5X2XeXeXeXeX5X:X$.+ y &.e G eXeXeXeXeXeXeXeXeXeXeXeXeXeXeXeXeXeXeXeXeX5X#X* / m O Z %XeXeXeXeXeXeXeXeXeXeXeXeX",
"eXeXeXeX5X5XeXeXeXeXeX@Xk $ ( S.H.] @ .XeXeXeXeXeXeXeXeXeXeXeXeXeXeXeXeXeXeXeXeX5XJ.% j.(. .3 1 _.5XeX5XeXeXeXeXeXeXeXeX",
"eX5XeXeXeXeXeXeXeXeXXX; 8 :.F.M.V.S.5 O.5X5XeXeXeXeXeX5X2X5XeXeXeXeX5X5XeXeXeXeX<Xf v F.M.Z.h.i + T.,X2XeXeXeXeXeXeXeXeX",
"5X5XeXeXeXeXeXeXeX!.- x g.M.w.q.t.Z.( = $XeX5X5XeXeX5X5X5X5X5XeXeXeX5X2X5X5XeX5X`.o :.M.0.t.V.b.R o %.2X5XeXeXeXeXeXeXeX",
"5XeXeXeXeXeXeXeX/.@ i S.C.0.4.q.0.M.s.% %.2X5X5XeXeXeXeXeX5XeXeXeXeXeX5XeXeXeX2XZ y l.0.4.8.4.w.D.` X I.1X5X5XeXeXeXeXeX",
"eXeXeXeXeXeXeX'.* b v.w.5.5.q.4.e.w.Z.U q ;X2X5XeXeXeXeXeXeXeXeXeXeXeXeXeX5XeX@X, ` A.q.5.5.7.4.w.D.) X T.5X5XeXeXeXeXeX",
"eXeXeXeXeXeX+Xs t l.C.q.q.5.0.4.5.q.u.,.o E.5X5XeXeXeXeXeXeXeXeXeXeXeXeXeXeXeXP.$ l.B.5.5.5.5.0.0.V.D.Y @ '.1X5XeXeXeXeX",
"eXeXeXeX5X,XB 2 k.M.0.5.5.5.y.q.5.5.t.H.c j ,XeXeXeXeXeXeXeXeXeXeXeXeXeXeXeX<Xh v F.q.5.5.5.0.q.0.0.e.v.x s %X5XeXeXeXeX",
"eXeXeX5X5XU.+ *.M.0.e.q.q.q.4.5.5.5.e.B.X.# _.5XeXeXeX5XeXeXeXeXeXeX5X5X5X5X'.+ *.w.q.5.5.5.5.4.4.t.4.w.f.> D 2XeXeXeXeX",
"eXeXeXeXOX$ Y F.u.0.e.q.q.e.4.5.5.5.0.C.D.9 B 5XeXeX5X5XeXeXeXeXeXeXeX5X5X5XS w b.0.8.5.5.8.5.5.4.8.5.5.N.{ + ^.eXeXeXeX",
"eXeX5X2XF 6 l.M.0.4.4.8.5.5.5.5.5.5.4.0.N.] &  XeXeX5X5XeXeXeXeXeXeXeXeX5XOX= ' A.q.5.5.8.6.0.0.y.5.8.5.V.F.c g ;X5XeXeX",
"eXeXeX[.+ | N.e.q.4.q.4.5.5.5.5.5.5.5.0.w.v.5 #.5XeXeXeXeXeXeXeXeXeXeXeX5XI.% g.M.5.5.8.5.0.y.y.0.5.5.5.q.N.p.# T.eXeXeX",
"2X5X7XZ 7 v.w.0.4.q.0.q.4.5.5.0.6.8.5.5.e.N.( * @X5X5X5XeXeXeXeX2XeXeXeX<Xf v N.w.5.5.5.q.q.0.0.6.q.5.5.0.w.N.v s ,XeXeX",
"2X5X+X- ~ C.y.4.4.0.q.q.5.8.4.8.8.5.5.5.5.w.f.> P.5X5XeXeXeXeXeX5XeXeXeX`.# *.w.5.5.5.5.q.0.5.7.q.5.5.q.t.0.u.;.# ~.eXeX",
"2X2XK.< l.e.0.5.8.0.q.0.5.8.4.4.5.8.5.5.q.w.H.K 0 :XeXeXeXeXeXeXeXeXeXeXF w S.0.5.5.5.5.q.q.5.4.4.4.5.5.u.0.0.F.u N 5XeX",
"eX:Xf L F.0.5.4.0.0.q.5.5.5.8.4.5.5.5.q.4.u.M.p.+ ~.5XeXeXeXeXeXeXeXeX#X& [ V.t.5.5.q.5.0.q.5.7.7.8.q.5.0.t.t.N.| & @XeX",
"eX}.# X.A.8.5.4.q.0.q.0.8.4.4.7.5.5.4.4.q.0.u.D.c k >X5XeX5X5X5X5XeXeXJ.> h.w.5.5.5.q.q.q.0.5.5.8.8.5.q.0.q.y.w.d.% E.eX",
"eXY.> l.u.4.4.5.q.q.q.5.5.5.8.4.5.q.5.4.q.4.y.N.X.+ '.eXeXeX5X2X2X5X<Xh p N.e.5.5.5.q.q.0.4.5.5.4.4.5.q.q.q.4.w.D.t A eX",
"eXS u N.0.8.4.5.q.q.5.5.5.4.4.5.q.4.q.y.4.8.4.w.b.7 A 5X5X5XeX5X5X5X].+ *.0.0.q.5.5.q.q.7.7.q.5.q.5.q.5.q.y.4.y.Z.T d :X",
"1Xf T M.q.5.4.q.q.q.5.5.4.4.5.q.5.q.q.4.5.5.6.y.M.] & .X2XeXeXeXeX2XS e m.4.q.q.5.5.5.5.7.7.5.5.5.5.5.5.y.4.5.4.u.o.* |.",
"*X- { u.y.5.5.5.5.5.5.5.5.q.q.0.q.5.5.5.5.5.5.5.0.v.2 #.2X2XeXeXeX@X& ' V.4.q.e.5.5.q.5.7.5.5.5.5.5.5.5.q.5.5.5.u.1.$ ).",
"}.* -.w.q.e.5.5.5.5.5.5.q.q.4.q.q.5.4.4.q.5.5.5.q.N._ 1 &X5XeXeXeXJ.2 d.w.y.q.5.4.5.q.0.5.8.5.5.q.q.5.5.5.5.5.q.y.k.= U.",
"/.* 1.w.w.q.q.5.5.5.5.q.q.0.5.q.q.4.5.4.q.q.5.5.5.M.f.% U.eXeXeX<Xf v H.e.5.5.5.5.4.q.q.7.5.5.5.q.q.5.5.5.5.q.q.0.m.q #.",
"!.= k.q.q.q.4.5.5.5.5.5.0.q.q.q.q.5.5.q.q.q.5.5.5.0.F.K s :XeXeX`.# -.w.e.5.5.5.5.0.0.q.q.t.0.5.5.q.5.5.5.5.5.q.0.n.w O.",
"!.2 k.e.0.0.0.4.5.5.5.5.0.8.5.5.0.4.5.5.q.q.q.5.q.0.V.:.+ ^.1X2XF w n.t.q.8.5.5.8.5.q.4.q.q.5.5.5.5.5.8.5.5.q.q.4.N.e O.",
"Q., k.w.e.4.q.4.5.5.5.5.7.5.5.5.5.4.5.5.5.q.q.q.4.8.0.n.i z 2X@X$ ` A.t.q.5.5.5.5.4.5.5.q.5.5.4.5.q.4.0.5.5.5.5.q.N.e H ",
").= 1.y.0.7.4.4.5.q.q.4.7.7.5.5.7.4.0.5.5.5.5.5.8.4.w.A.X.o '.U.% g.M.4.q.4.5.5.5.8.7.5.q.q.5.0.5.5.7.7.4.5.5.5.t.m.q O.",
"].$ ,.u.0.4.4.y.q.q.q.5.7.7.5.5.5.8.q.q.5.5.4.5.4.4.y.w.S.7 B g a N.e.y.4.q.0.5.4.5.8.5.q.q.8.5.5.5.0.q.4.4.5.q.7.m.5 %.",
"|.* o.V.4.5.8.4.q.q.q.q.5.5.5.5.4.4.0.q.5.5.5.5.q.q.5.0.M.~ . . 2.e.q.5.y.4.q.4.5.5.5.q.5.q.5.7.4.4.q.q.0.4.4.0.0.k.% T.",
";X: [ c.q.8.8.4.q.q.q.5.5.6.5.5.4.4.0.q.5.5.5.5.q.q.y.4.u.3.> 7 r.y.4.5.y.5.y.4.4.5.4.5.5.4.4.q.4.4.q.0.4.4.0.q.i.;.$ '.",
"eXk K c.i.5.8.8.5.q.q.5.8.5.5.5.5.0.e.q.q.5.5.5.q.q.8.6.t.V.! ^ C.5.q.5.4.q.q.5.5.5.5.5.5.0.5.5.5.5.5.4.5.8.y.0.C.~ , &X",
"eX#.8 S.q.8.6.5.5.q.q.5.5.5.5.5.5.q.q.q.q.5.5.5.q.5.8.7.5.5.9.9.0.4.q.4.4.5.4.5.q.4.0.5.5.8.4.q.6.4.5.5.q.0.4.w.N.J j 2X",
"eX!.$ d.M.4.5.5.5.5.5.5.5.5.5.q.5.5.5.5.5.q.5.5.5.5.5.5.8.4.q.e.q.q.5.4.q.5.4.5.q.4.y.5.4.4.8.0.5.5.5.5.q.5.q.w.S.6 @.2X",
"eX$X* [ A.4.5.q.5.5.5.5.5.5.0.q.5.5.5.5.5.5.5.5.5.5.5.5.q.4.5.5.y.5.4.5.5.4.q.5.5.5.4.4.5.q.5.5.q.5.5.5.5.q.q.M.p.+ _.5X",
"eX2XC y b.t.q.q.q.q.5.5.5.q.0.5.5.5.5.q.q.q.0.8.q.5.q.4.0.e.5.5.4.4.5.y.4.4.5.q.4.q.q.5.0.8.5.4.5.5.q.q.q.q.0.N./ 0 ;X2X",
"eX5XQ.+ >.V.q.q.q.q.5.5.5.5.5.7.5.5.5.5.q.q.q.q.5.5.5.q.q.q.q.q.5.5.q.4.4.q.4.4.4.5.4.5.5.5.4.q.5.5.5.q.q.q.0.S.5 #.2X5X",
"2X5X=Xs Y N.w.5.4.e.5.5.5.5.5.4.5.4.q.q.0.0.q.7.5.5.6.8.5.q.q.q.0.5.7.5.5.q.5.0.8.0.4.5.q.5.5.4.4.q.5.5.5.0.M.{ o |.2X2X",
"5XeXeXJ.# d.V.0.y.5.5.8.5.5.5.5.5.0.q.0.q.0.4.0.8.5.5.8.5.5.q.5.q.5.q.q.4.4.5.8.5.5.5.q.7.q.4.q.q.4.5.8.4.i.S.9 A 2XeX5X",
"5XeXeX=X0 L H.0.q.4.0.q.q.0.4.5.5.5.5.5.0.7.5.0.0.5.8.6.5.5.5.5.5.4.5.4.5.y.4.5.5.5.7.4.q.4.5.5.q.y.6.8.t.c.| + XXeXeX5X",
"eXeXeXeXU.# :.N.0.q.y.0.q.y.5.q.5.5.4.5.7.5.7.q.0.0.8.8.8.5.5.5.0.8.q.4.5.4.q.4.4.q.q.5.4.5.4.y.y.4.8.4.M.z.5 D 2XeXeXeX",
"5XeXeXeX<Xk 9 S.M.0.0.4.q.0.4.5.5.5.5.5.8.5.5.5.q.q.q.0.8.4.5.4.5.5.q.4.4.8.0.5.5.t.4.q.5.8.4.q.4.0.4.M.G.n ; @XeXeXeXeX",
"eXeXeXeXeX}.# R F.C.0.y.0.7.q.5.5.q.5.5.8.5.5.5.q.0.q.q.4.5.5.5.5.4.8.5.q.5.5.5.5.5.5.5.q.4.4.5.y.0.w.N. .X E.5XeX5XeXeX",
"eXeXeXeX5XeXP.o { M.0.t.4.8.y.5.q.q.5.q.5.5.5.5.q.q.0.q.0.8.5.4.q.5.0.5.5.4.q.5.5.4.5.4.5.5.q.5.4.w.w.<.> H 5XeXeXeXeXeX",
"5X5X5XeXeX5X1XP < *.M.u.0.5.5.5.q.q.q.5.5.5.q.5.5.5.5.0.q.0.q.8.4.5.4.5.q.5.7.4.5.5.5.5.t.5.5.0.0.M.k.6 j =XeXeXeXeXeXeX",
"2X5XeXeXeXeXeX>XM 2 p.N.0.t.5.5.6.5.5.q.4.0.q.5.5.5.5.5.5.q.q.0.4.7.5.4.0.y.4.4.6.8.5.q.y.5.5.q.c.x.r s OX5X5X5XeXeXeXeX",
"5X2XeXeXeXeXeX5X=Xz % *.n.0.i.q.8.6.5.q.q.q.q.q.q.5.5.5.7.5.4.0.7.8.5.q.q.4.5.8.8.7.8.q.q.q.q.N.d.6 0 .X5X5X2X5XeXeXeXeX",
"eXeXeXeXeXeXeXeX5X=XN > | F.w.t.4.y.4.5.5.5.i.5.5.5.5.5.4.q.0.0.q.q.0.5.q.5.5.5.t.5.6.t.0.M.N.>.5 d |.eX5X5X5X5XeXeXeXeX",
"eXeXeXeXeXeXeXeX5X5X;XI o R v.c.q.q.q.q.5.5.5.5.5.5.q.5.q.7.0.y.0.e.q.q.5.5.q.5.4.t.t.u.N.S.^ + V #XeXeX5X5X2X5XeXeXeXeX",
"eXeXeXeXeXeXeXeX2X5X5X2XT.@ w *.N.e.w.0.5.5.5.5.5.5.5.5.q.0.0.q.5.5.5.5.5.q.5.5.8.t.u.n.d.u + +.;X5XeXeX5X2XeXeXeXeXeXeX",
"eXeXeXeXeXeXeXeX5X5XeXeXeX XV + a ,.F.M.e.e.5.6.7.4.5.5.8.5.5.5.5.5.5.y.q.q.q.e.w.Z.s.W $ g ^.5X5XeXeXeX5XeXeXeXeX5XeXeX",
"eXeXeXeXeXeXeXeXeXeXeXeXeXeX,XE.s < b p.S.V.u.y.t.7.y.q.t.8.5.5.4.4.0.t.0.w.B.b.a.E < : J.*X2X5X2X5XeXeXeXeXeXeX5X5XeXeX",
"eXeXeXeXeXeXeXeXeXeXeXeXeXeXeXeX-XY.h # 9 Q >.v.H.N.N.V.M.M.C.w.M.Z.N.N.S.h.^ u # 1 %.#XeXeXeXeX2X5XeXeXeXeXeXeX5X5X5XeX",
"eX5X2XeXeXeXeXeXeXeXeXeXeXeXeXeX5XeX:X_.H 1 # , c / ..=.p.a.a.p.o. .( b w + 1 N ~.*X5X5XeXeXeXeXeXeXeXeXeXeXeX5X5X5X5X5X",
"5X5XeXeXeXeXeXeXeXeXeXeXeXeXeXeXeXeXeXeXeX:X`.I.G f < $ < % < > $ = 0 V $./.*X1X5X5XeX5XeXeXeXeXeXeXeXeXeXeXeXeXeXeXeXeX",
"eXeXeXeXeXeXeXeXeXeXeXeXeXeXeXeXeXeXeXeXeXeX5X5X2X:X*XoX}.{.{.{.oX@X>X2X2XeXeX5XeX2X5X5XeXeXeXeXeXeXeXeXeXeXeXeXeXeXeXeX",
"eXeXeXeXeX5XeXeXeXeXeXeXeXeXeXeXeXeXeXeXeXeXeXeX5X5X5X5XeX5X5X5X5XeX5X5XeXeXeX5XeXeX5X2XeXeXeXeXeXeXeXeXeXeXeXeXeXeXeXeX"
};
